<?xml version="1.0" encoding="UTF-8" standalone="no"?><!DOCTYPE svg PUBLIC "-//W3C//DTD SVG 1.1//EN" "http://www.w3.org/Graphics/SVG/1.1/DTD/svg11.dtd"><svg width="100%" height="100%" viewBox="0 0 565 281" version="1.1" xmlns="http://www.w3.org/2000/svg" xmlns:xlink="http://www.w3.org/1999/xlink" xml:space="preserve" xmlns:serif="http://www.serif.com/" style="fill-rule:evenodd;clip-rule:evenodd;stroke-linejoin:round;stroke-miterlimit:2;"><g><path d="M47.616,242.153l77.196,0c1.377,0 2.496,-1.123 2.496,-2.418l0,-6.047l0,-38.52l0,-25.91c0,-3.714 0,-3.714 -2.84,-4.923l-42.17,-19.606c-3.528,-1.555 -3.528,-1.555 -3.528,2.246l0,36.534c0,9.932 0,9.932 -14.458,9.932c-15.405,0 -15.319,0 -15.319,-9.932l0,-112.107l0,-47.07c0,-5.528 -26.593,-24.27 -41.481,-24.27c-7.402,0 -7.402,7.169 -7.402,8.291l0,185.088c0,48.712 0,48.712 47.506,48.712Z" style="fill:#fff;fill-rule:nonzero;"/><path d="M7.512,0.062c0,0 3.092,-0.367 6.485,0.684c6.15,1.904 15.206,5.859 22.973,10.949c5.062,3.318 10.408,7.013 12.055,12.194c1.465,4.608 0.351,13.659 0.351,20.805c0,21.847 -0.351,47.117 -0.351,47.117l-48.915,49.682c0,0 0.075,-82.472 0,-94.002c-0.144,-22.405 0,-35.014 0,-39.138c0,-2.634 0.749,-4.76 1.761,-5.988c2.255,-2.735 5.641,-2.303 5.641,-2.303Z" style="fill:url(#_Linear1);"/><path d="M15.984,240.836c-3.067,-1.046 -10.498,-0.898 -13.244,-9.832c-1.557,-5.066 -2.74,-11.835 -2.74,-21.954c0,-31.786 0,-13.751 0,-20.898c0,-21.846 0.111,-46.659 0.111,-46.659l49.154,-50.14l0,150.799c0,0 -13.559,0.127 -18.55,0c-8.152,-0.207 -13.135,-0.771 -14.731,-1.316Z" style="fill:url(#_Linear2);"/><path d="M49.265,189.779c0,-1.181 0.278,1.721 1.839,2.399c1.561,0.678 4.262,1.21 4.829,1.21c10.723,0 18.043,0.563 20.47,-0.826c1.969,-1.127 2.244,-3.272 2.244,-3.675c0,-6.296 0.209,-4.775 0.209,-4.775l48.452,0l0,56.822c0,1.282 -2.603,1.155 -3.435,1.219c-0.831,0.063 -74.608,0.063 -74.608,0.063l0,-52.437Z" style="fill:url(#_Linear3);"/><path d="M78.856,184.112l0,-39.297c0,0 0.413,-1.007 0.785,-1.007c0.372,0 46.68,21.334 46.68,21.334c0,0 0.987,0.673 0.987,1.608l0,17.362l-48.452,0Z" style="fill:url(#_Linear4);"/><path d="M199.487,280.438c0,0 -3.092,0.367 -6.485,-0.683c-6.15,-1.905 -15.205,-5.86 -22.973,-10.95c-5.062,-3.318 -10.408,-7.013 -12.056,-12.194c-1.464,-4.608 -0.35,-13.659 -0.35,-20.805c0,-21.847 0.11,-22.79 0.11,-22.79l49.155,-36.456c0,0 -0.074,44.919 0,56.448c0.144,22.406 0,35.015 0,39.138c0,2.635 -0.748,4.761 -1.76,5.989c-2.255,2.735 -5.641,2.303 -5.641,2.303Z" style="fill:url(#_Linear5);"/><path d="M207,71.45c0,31.786 0,13.752 0,20.897l0,84.213l-49.782,36.456c0,0 0.516,-106.339 0.516,-117.872l0,-39.138c0,-2.63 0,39.138 0,39.138c0,0 49.266,-33.812 49.266,-23.694Z" style="fill:url(#_Linear6);"/><path d="M157.734,95.144c0.001,1.181 -0.278,-6.144 -1.838,-6.822c-1.561,-0.678 -4.262,-1.21 -4.83,-1.21c-10.722,0 -18.043,-0.563 -20.47,0.825c-1.968,1.128 -50.904,-24.963 -50.904,-24.963c0,0 -0.401,-12.398 8.594,-18.494c8.996,-6.095 100.661,-5.983 109.66,3.56c8.525,9.042 9.054,20.313 9.054,23.41c0,2.132 -49.266,22.681 -49.266,23.694Z" style="fill:url(#_Linear7);"/><path d="M130.596,87.938l-2.452,47.747c0,0 -0.414,1.007 -0.785,1.007c-0.372,0 -46.68,-21.334 -46.68,-21.334c0,0 -0.987,-0.673 -0.987,-1.609l0,-50.775l50.904,24.963Z" style="fill:url(#_Linear8);"/></g><path d="M259.776,236.25l0,-13.176l-5.664,10.104l-1.224,0l-5.688,-10.104l0,13.176l-2.16,0l0,-17.04l2.28,0l6.168,11.064l6.192,-11.064l2.256,0l0,17.04l-2.16,0Zm9.004,0.24c-0.593,0 -1.145,-0.096 -1.656,-0.288c-0.512,-0.208 -0.96,-0.488 -1.344,-0.84c-0.369,-0.352 -0.665,-0.76 -0.888,-1.224c-0.209,-0.48 -0.312,-1 -0.312,-1.56c0,-0.576 0.127,-1.096 0.384,-1.56c0.255,-0.48 0.615,-0.888 1.08,-1.224c0.48,-0.336 1.039,-0.6 1.68,-0.792c0.655,-0.192 1.368,-0.288 2.135,-0.288c0.608,0 1.225,0.056 1.849,0.168c0.624,0.112 1.176,0.264 1.656,0.456l0,-1.008c0,-1.024 -0.288,-1.824 -0.864,-2.4c-0.576,-0.592 -1.392,-0.888 -2.448,-0.888c-1.265,0 -2.592,0.488 -3.984,1.464l-0.696,-1.368c1.615,-1.088 3.24,-1.632 4.872,-1.632c1.647,0 2.928,0.44 3.84,1.32c0.927,0.88 1.392,2.12 1.392,3.72l0,5.112c0,0.496 0.223,0.752 0.672,0.768l0,1.824c-0.225,0.032 -0.408,0.056 -0.552,0.072c-0.144,0.016 -0.297,0.024 -0.456,0.024c-0.417,0 -0.752,-0.12 -1.008,-0.36c-0.24,-0.256 -0.384,-0.56 -0.432,-0.912l-0.048,-0.888c-0.561,0.752 -1.272,1.328 -2.136,1.728c-0.849,0.384 -1.761,0.576 -2.736,0.576Zm0.552,-1.584c0.751,0 1.447,-0.136 2.088,-0.408c0.655,-0.288 1.152,-0.664 1.488,-1.128c0.303,-0.304 0.456,-0.616 0.456,-0.936l0,-1.848c-1.025,-0.4 -2.088,-0.6 -3.192,-0.6c-1.056,0 -1.92,0.224 -2.592,0.672c-0.657,0.448 -0.984,1.032 -0.984,1.752c0,0.352 0.063,0.68 0.192,0.984c0.144,0.304 0.336,0.568 0.576,0.792c0.255,0.224 0.552,0.4 0.888,0.528c0.336,0.128 0.696,0.192 1.08,0.192Zm16.144,-9.336c-1.056,0.032 -1.992,0.304 -2.808,0.816c-0.799,0.512 -1.368,1.224 -1.704,2.136l0,7.728l-2.112,0l0,-12.528l1.968,0l0,2.904c0.432,-0.864 1.001,-1.56 1.704,-2.088c0.704,-0.544 1.457,-0.848 2.256,-0.912l0.408,0c0.113,0 0.209,0.008 0.288,0.024l0,1.92Zm0.974,4.392c0,-0.88 0.152,-1.712 0.456,-2.496c0.304,-0.784 0.736,-1.464 1.296,-2.04c0.56,-0.592 1.224,-1.056 1.992,-1.392c0.784,-0.352 1.656,-0.528 2.616,-0.528c1.248,0 2.32,0.28 3.216,0.84c0.912,0.544 1.6,1.28 2.064,2.208l-2.064,0.648c-0.32,-0.592 -0.768,-1.048 -1.344,-1.368c-0.576,-0.336 -1.216,-0.504 -1.92,-0.504c-0.576,0 -1.12,0.12 -1.632,0.36c-0.512,0.224 -0.952,0.544 -1.32,0.96c-0.368,0.416 -0.664,0.904 -0.888,1.464c-0.208,0.56 -0.312,1.176 -0.312,1.848c0,0.656 0.112,1.272 0.336,1.848c0.224,0.576 0.52,1.08 0.888,1.512c0.384,0.416 0.824,0.744 1.32,0.984c0.512,0.24 1.056,0.36 1.632,0.36c0.368,0 0.728,-0.048 1.08,-0.144c0.368,-0.112 0.696,-0.256 0.984,-0.432c0.304,-0.176 0.568,-0.376 0.792,-0.6c0.224,-0.24 0.384,-0.496 0.48,-0.768l2.064,0.624c-0.192,0.464 -0.464,0.888 -0.816,1.272c-0.336,0.384 -0.736,0.712 -1.2,0.984c-0.464,0.272 -0.984,0.488 -1.56,0.648c-0.56,0.16 -1.152,0.24 -1.776,0.24c-0.944,0 -1.808,-0.176 -2.592,-0.528c-0.784,-0.352 -1.456,-0.824 -2.016,-1.416c-0.56,-0.592 -1,-1.28 -1.32,-2.064c-0.304,-0.8 -0.456,-1.64 -0.456,-2.52Zm25.001,6.288l-2.112,0l0,-7.008c0,-1.296 -0.224,-2.256 -0.672,-2.88c-0.448,-0.64 -1.104,-0.96 -1.968,-0.96c-0.416,0 -0.832,0.088 -1.248,0.264c-0.416,0.16 -0.808,0.384 -1.176,0.672c-0.352,0.288 -0.672,0.632 -0.96,1.032c-0.272,0.4 -0.48,0.84 -0.624,1.32l0,7.56l-2.112,0l0,-17.52l2.112,0l0,7.68c0.496,-0.912 1.168,-1.624 2.016,-2.136c0.848,-0.512 1.776,-0.768 2.784,-0.768c0.736,0 1.36,0.136 1.872,0.408c0.512,0.272 0.92,0.64 1.224,1.104c0.304,0.464 0.52,1.024 0.648,1.68c0.144,0.64 0.216,1.328 0.216,2.064l0,7.488Zm8.683,0c0,-0.64 0.048,-1.24 0.144,-1.8c0.111,-0.56 0.312,-1.096 0.6,-1.608c0.288,-0.512 0.679,-1 1.176,-1.464c0.511,-0.464 1.176,-0.928 1.992,-1.392c0.48,-0.256 0.967,-0.504 1.464,-0.744c0.495,-0.256 0.943,-0.52 1.344,-0.792c0.415,-0.288 0.751,-0.592 1.008,-0.912c0.271,-0.32 0.408,-0.696 0.408,-1.128c0,-0.272 -0.065,-0.544 -0.192,-0.816c-0.129,-0.272 -0.312,-0.512 -0.552,-0.72c-0.24,-0.208 -0.545,-0.376 -0.912,-0.504c-0.353,-0.128 -0.761,-0.192 -1.224,-0.192c-0.48,0 -0.921,0.072 -1.32,0.216c-0.384,0.128 -0.729,0.296 -1.032,0.504c-0.305,0.192 -0.569,0.4 -0.792,0.624c-0.225,0.224 -0.408,0.424 -0.552,0.6l-1.368,-1.536c0.127,-0.144 0.343,-0.336 0.648,-0.576c0.303,-0.256 0.687,-0.512 1.152,-0.768c0.463,-0.256 0.999,-0.472 1.608,-0.648c0.607,-0.192 1.287,-0.288 2.04,-0.288c0.735,0 1.399,0.104 1.992,0.312c0.591,0.192 1.087,0.464 1.488,0.816c0.415,0.352 0.735,0.768 0.96,1.248c0.223,0.464 0.336,0.96 0.336,1.488c0,0.624 -0.137,1.168 -0.408,1.632c-0.273,0.464 -0.609,0.872 -1.008,1.224c-0.384,0.352 -0.801,0.656 -1.248,0.912c-0.449,0.24 -0.849,0.448 -1.2,0.624c-0.353,0.176 -0.753,0.392 -1.2,0.648c-0.432,0.24 -0.849,0.52 -1.248,0.84c-0.401,0.304 -0.753,0.648 -1.056,1.032c-0.288,0.384 -0.473,0.8 -0.552,1.248l8.184,0l0,1.92l-10.68,0Zm21.219,-12.048l-8.76,0l0,-1.944l12.096,0l-8.568,17.04l-2.4,0l7.632,-15.096Zm4.362,6.456l0,-1.92l7.08,0l0,1.92l-7.08,0Zm9.645,5.592c0,-0.64 0.048,-1.24 0.144,-1.8c0.112,-0.56 0.312,-1.096 0.6,-1.608c0.288,-0.512 0.68,-1 1.176,-1.464c0.512,-0.464 1.176,-0.928 1.992,-1.392c0.48,-0.256 0.968,-0.504 1.464,-0.744c0.496,-0.256 0.944,-0.52 1.344,-0.792c0.416,-0.288 0.752,-0.592 1.008,-0.912c0.272,-0.32 0.408,-0.696 0.408,-1.128c0,-0.272 -0.064,-0.544 -0.192,-0.816c-0.128,-0.272 -0.312,-0.512 -0.552,-0.72c-0.24,-0.208 -0.544,-0.376 -0.912,-0.504c-0.352,-0.128 -0.76,-0.192 -1.224,-0.192c-0.48,0 -0.92,0.072 -1.32,0.216c-0.384,0.128 -0.728,0.296 -1.032,0.504c-0.304,0.192 -0.568,0.4 -0.792,0.624c-0.224,0.224 -0.408,0.424 -0.552,0.6l-1.368,-1.536c0.128,-0.144 0.344,-0.336 0.648,-0.576c0.304,-0.256 0.688,-0.512 1.152,-0.768c0.464,-0.256 1,-0.472 1.608,-0.648c0.608,-0.192 1.288,-0.288 2.04,-0.288c0.736,0 1.4,0.104 1.992,0.312c0.592,0.192 1.088,0.464 1.488,0.816c0.416,0.352 0.736,0.768 0.96,1.248c0.224,0.464 0.336,0.96 0.336,1.488c0,0.624 -0.136,1.168 -0.408,1.632c-0.272,0.464 -0.608,0.872 -1.008,1.224c-0.384,0.352 -0.8,0.656 -1.248,0.912c-0.448,0.24 -0.848,0.448 -1.2,0.624c-0.352,0.176 -0.752,0.392 -1.2,0.648c-0.432,0.24 -0.848,0.52 -1.248,0.84c-0.4,0.304 -0.752,0.648 -1.056,1.032c-0.288,0.384 -0.472,0.8 -0.552,1.248l8.184,0l0,1.92l-10.68,0Zm12.676,-7.824c0,-0.816 0.152,-1.576 0.456,-2.28c0.32,-0.72 0.752,-1.344 1.296,-1.872c0.56,-0.544 1.208,-0.968 1.944,-1.272c0.736,-0.304 1.536,-0.456 2.4,-0.456c0.912,0 1.744,0.168 2.496,0.504c0.768,0.336 1.424,0.824 1.968,1.464c0.544,0.624 0.96,1.392 1.247,2.304c0.305,0.896 0.457,1.92 0.457,3.072c0,1.68 -0.152,3.152 -0.457,4.416c-0.303,1.248 -0.735,2.288 -1.295,3.12c-0.56,0.848 -1.232,1.48 -2.016,1.896c-0.784,0.416 -1.656,0.624 -2.616,0.624c-1.104,0 -2.112,-0.264 -3.024,-0.792c-0.896,-0.528 -1.6,-1.272 -2.112,-2.232l1.296,-1.272c0.352,0.752 0.872,1.344 1.56,1.776c0.688,0.448 1.456,0.672 2.304,0.672c1.312,0 2.36,-0.584 3.144,-1.752c0.784,-1.168 1.192,-2.808 1.224,-4.92c-0.352,0.832 -0.92,1.496 -1.704,1.992c-0.784,0.496 -1.68,0.744 -2.688,0.744c-0.816,0 -1.584,-0.144 -2.304,-0.432c-0.72,-0.304 -1.344,-0.712 -1.872,-1.224c-0.528,-0.512 -0.944,-1.12 -1.248,-1.824c-0.304,-0.704 -0.456,-1.456 -0.456,-2.256Zm6.072,-4.056c-0.56,0 -1.088,0.112 -1.584,0.336c-0.48,0.208 -0.904,0.496 -1.272,0.864c-0.368,0.368 -0.664,0.8 -0.888,1.296c-0.208,0.48 -0.312,1 -0.312,1.56c0,0.56 0.104,1.088 0.312,1.584c0.224,0.48 0.52,0.904 0.888,1.272c0.368,0.352 0.792,0.64 1.272,0.864c0.496,0.208 1.024,0.312 1.584,0.312c0.56,0 1.08,-0.104 1.56,-0.312c0.496,-0.224 0.928,-0.512 1.296,-0.864c0.368,-0.368 0.656,-0.792 0.864,-1.272c0.224,-0.496 0.336,-1.024 0.336,-1.584c0,-0.544 -0.112,-1.064 -0.336,-1.56c-0.208,-0.496 -0.496,-0.928 -0.864,-1.296c-0.368,-0.368 -0.8,-0.656 -1.296,-0.864c-0.496,-0.224 -1.016,-0.336 -1.56,-0.336Zm8.972,13.824l0.48,-2.136l-0.72,0l0,-2.496l1.992,0l0,2.496l-0.72,2.136l-1.032,0Zm10.389,-1.944c0,-0.64 0.048,-1.24 0.144,-1.8c0.112,-0.56 0.312,-1.096 0.6,-1.608c0.288,-0.512 0.681,-1 1.176,-1.464c0.513,-0.464 1.176,-0.928 1.992,-1.392c0.48,-0.256 0.969,-0.504 1.464,-0.744c0.496,-0.256 0.945,-0.52 1.344,-0.792c0.417,-0.288 0.753,-0.592 1.008,-0.912c0.273,-0.32 0.408,-0.696 0.408,-1.128c0,-0.272 -0.063,-0.544 -0.192,-0.816c-0.128,-0.272 -0.312,-0.512 -0.552,-0.72c-0.24,-0.208 -0.543,-0.376 -0.912,-0.504c-0.351,-0.128 -0.759,-0.192 -1.224,-0.192c-0.48,0 -0.92,0.072 -1.32,0.216c-0.384,0.128 -0.728,0.296 -1.032,0.504c-0.303,0.192 -0.567,0.4 -0.792,0.624c-0.224,0.224 -0.408,0.424 -0.552,0.6l-1.368,-1.536c0.129,-0.144 0.345,-0.336 0.648,-0.576c0.304,-0.256 0.688,-0.512 1.152,-0.768c0.465,-0.256 1,-0.472 1.608,-0.648c0.609,-0.192 1.288,-0.288 2.04,-0.288c0.736,0 1.401,0.104 1.992,0.312c0.592,0.192 1.089,0.464 1.488,0.816c0.417,0.352 0.736,0.768 0.96,1.248c0.225,0.464 0.336,0.96 0.336,1.488c0,0.624 -0.135,1.168 -0.408,1.632c-0.272,0.464 -0.608,0.872 -1.008,1.224c-0.384,0.352 -0.8,0.656 -1.248,0.912c-0.447,0.24 -0.848,0.448 -1.2,0.624c-0.351,0.176 -0.752,0.392 -1.2,0.648c-0.432,0.24 -0.848,0.52 -1.248,0.84c-0.399,0.304 -0.752,0.648 -1.056,1.032c-0.288,0.384 -0.471,0.8 -0.552,1.248l8.184,0l0,1.92l-10.68,0Zm25.252,-7.032c0,1.056 -0.152,2.032 -0.456,2.928c-0.304,0.88 -0.728,1.648 -1.272,2.304c-0.544,0.64 -1.192,1.144 -1.944,1.512c-0.736,0.352 -1.536,0.528 -2.4,0.528c-0.88,0 -1.696,-0.176 -2.448,-0.528c-0.736,-0.368 -1.376,-0.872 -1.92,-1.512c-0.528,-0.656 -0.944,-1.424 -1.248,-2.304c-0.304,-0.896 -0.456,-1.872 -0.456,-2.928c0,-1.056 0.152,-2.024 0.456,-2.904c0.304,-0.896 0.72,-1.664 1.248,-2.304c0.544,-0.656 1.184,-1.168 1.92,-1.536c0.752,-0.368 1.568,-0.552 2.448,-0.552c0.864,0 1.664,0.184 2.4,0.552c0.752,0.368 1.4,0.88 1.944,1.536c0.544,0.64 0.968,1.408 1.272,2.304c0.304,0.88 0.456,1.848 0.456,2.904Zm-2.136,0c0,-0.784 -0.096,-1.504 -0.288,-2.16c-0.192,-0.656 -0.464,-1.216 -0.816,-1.68c-0.352,-0.48 -0.768,-0.848 -1.248,-1.104c-0.48,-0.256 -1.008,-0.384 -1.584,-0.384c-0.592,0 -1.136,0.128 -1.632,0.384c-0.48,0.256 -0.896,0.624 -1.248,1.104c-0.336,0.464 -0.6,1.024 -0.792,1.68c-0.192,0.656 -0.288,1.376 -0.288,2.16c0,0.8 0.096,1.528 0.288,2.184c0.192,0.64 0.456,1.192 0.792,1.656c0.352,0.464 0.768,0.824 1.248,1.08c0.496,0.256 1.04,0.384 1.632,0.384c0.576,0 1.104,-0.128 1.584,-0.384c0.48,-0.256 0.896,-0.616 1.248,-1.08c0.352,-0.464 0.624,-1.016 0.816,-1.656c0.192,-0.656 0.288,-1.384 0.288,-2.184Zm4.47,7.032c0,-0.64 0.048,-1.24 0.144,-1.8c0.113,-0.56 0.312,-1.096 0.6,-1.608c0.288,-0.512 0.68,-1 1.176,-1.464c0.512,-0.464 1.176,-0.928 1.992,-1.392c0.48,-0.256 0.968,-0.504 1.464,-0.744c0.497,-0.256 0.944,-0.52 1.344,-0.792c0.416,-0.288 0.752,-0.592 1.008,-0.912c0.272,-0.32 0.408,-0.696 0.408,-1.128c0,-0.272 -0.064,-0.544 -0.192,-0.816c-0.127,-0.272 -0.312,-0.512 -0.552,-0.72c-0.24,-0.208 -0.544,-0.376 -0.912,-0.504c-0.352,-0.128 -0.76,-0.192 -1.224,-0.192c-0.48,0 -0.919,0.072 -1.32,0.216c-0.384,0.128 -0.727,0.296 -1.032,0.504c-0.304,0.192 -0.568,0.4 -0.792,0.624c-0.223,0.224 -0.408,0.424 -0.552,0.6l-1.368,-1.536c0.128,-0.144 0.344,-0.336 0.648,-0.576c0.305,-0.256 0.689,-0.512 1.152,-0.768c0.464,-0.256 1.001,-0.472 1.608,-0.648c0.608,-0.192 1.289,-0.288 2.04,-0.288c0.737,0 1.4,0.104 1.992,0.312c0.593,0.192 1.088,0.464 1.488,0.816c0.416,0.352 0.737,0.768 0.96,1.248c0.224,0.464 0.336,0.96 0.336,1.488c0,0.624 -0.136,1.168 -0.408,1.632c-0.271,0.464 -0.607,0.872 -1.008,1.224c-0.384,0.352 -0.799,0.656 -1.248,0.912c-0.448,0.24 -0.847,0.448 -1.2,0.624c-0.352,0.176 -0.751,0.392 -1.2,0.648c-0.432,0.24 -0.847,0.52 -1.248,0.84c-0.4,0.304 -0.751,0.648 -1.056,1.032c-0.288,0.384 -0.472,0.8 -0.552,1.248l8.184,0l0,1.92l-10.68,0Zm25.252,-7.032c0,1.056 -0.152,2.032 -0.456,2.928c-0.304,0.88 -0.728,1.648 -1.272,2.304c-0.544,0.64 -1.192,1.144 -1.944,1.512c-0.736,0.352 -1.536,0.528 -2.4,0.528c-0.88,0 -1.696,-0.176 -2.448,-0.528c-0.736,-0.368 -1.376,-0.872 -1.92,-1.512c-0.528,-0.656 -0.944,-1.424 -1.248,-2.304c-0.304,-0.896 -0.456,-1.872 -0.456,-2.928c0,-1.056 0.152,-2.024 0.456,-2.904c0.304,-0.896 0.72,-1.664 1.248,-2.304c0.544,-0.656 1.184,-1.168 1.92,-1.536c0.752,-0.368 1.568,-0.552 2.448,-0.552c0.864,0 1.664,0.184 2.4,0.552c0.752,0.368 1.4,0.88 1.944,1.536c0.544,0.64 0.968,1.408 1.272,2.304c0.304,0.88 0.456,1.848 0.456,2.904Zm-2.136,0c0,-0.784 -0.096,-1.504 -0.288,-2.16c-0.192,-0.656 -0.464,-1.216 -0.816,-1.68c-0.352,-0.48 -0.768,-0.848 -1.248,-1.104c-0.48,-0.256 -1.008,-0.384 -1.584,-0.384c-0.592,0 -1.136,0.128 -1.632,0.384c-0.48,0.256 -0.896,0.624 -1.248,1.104c-0.336,0.464 -0.6,1.024 -0.792,1.68c-0.192,0.656 -0.288,1.376 -0.288,2.16c0,0.8 0.096,1.528 0.288,2.184c0.192,0.64 0.456,1.192 0.792,1.656c0.352,0.464 0.768,0.824 1.248,1.08c0.496,0.256 1.04,0.384 1.632,0.384c0.576,0 1.104,-0.128 1.584,-0.384c0.48,-0.256 0.896,-0.616 1.248,-1.08c0.352,-0.464 0.624,-1.016 0.816,-1.656c0.192,-0.656 0.288,-1.384 0.288,-2.184Z" style="fill:#d3d3d3;fill-rule:nonzero;"/><path d="M245.04,264.75l0,-17.04l7.104,0c0.752,0 1.44,0.16 2.064,0.48c0.64,0.304 1.184,0.72 1.632,1.248c0.464,0.512 0.824,1.096 1.08,1.752c0.256,0.64 0.384,1.296 0.384,1.968c0,0.704 -0.12,1.384 -0.36,2.04c-0.24,0.656 -0.584,1.24 -1.032,1.752c-0.432,0.512 -0.96,0.92 -1.584,1.224c-0.608,0.304 -1.288,0.456 -2.04,0.456l-5.088,0l0,6.12l-2.16,0Zm2.16,-8.04l4.968,0c0.448,0 0.848,-0.088 1.2,-0.264c0.368,-0.192 0.68,-0.448 0.936,-0.768c0.256,-0.336 0.456,-0.72 0.6,-1.152c0.144,-0.432 0.216,-0.888 0.216,-1.368c0,-0.496 -0.088,-0.96 -0.264,-1.392c-0.16,-0.432 -0.384,-0.808 -0.672,-1.128c-0.272,-0.32 -0.6,-0.568 -0.984,-0.744c-0.368,-0.176 -0.76,-0.264 -1.176,-0.264l-4.824,0l0,7.08Zm15.533,8.28c-0.592,0 -1.144,-0.096 -1.656,-0.288c-0.513,-0.208 -0.961,-0.488 -1.344,-0.84c-0.369,-0.352 -0.664,-0.76 -0.889,-1.224c-0.207,-0.48 -0.312,-1 -0.312,-1.56c0,-0.576 0.129,-1.096 0.385,-1.56c0.255,-0.48 0.615,-0.888 1.079,-1.224c0.481,-0.336 1.041,-0.6 1.68,-0.792c0.657,-0.192 1.368,-0.288 2.137,-0.288c0.608,0 1.224,0.056 1.848,0.168c0.623,0.112 1.175,0.264 1.656,0.456l0,-1.008c0,-1.024 -0.288,-1.824 -0.865,-2.4c-0.575,-0.592 -1.392,-0.888 -2.447,-0.888c-1.264,0 -2.592,0.488 -3.984,1.464l-0.697,-1.368c1.617,-1.088 3.24,-1.632 4.873,-1.632c1.647,0 2.928,0.44 3.839,1.32c0.928,0.88 1.392,2.12 1.392,3.72l0,5.112c0,0.496 0.225,0.752 0.673,0.768l0,1.824c-0.225,0.032 -0.409,0.056 -0.553,0.072c-0.144,0.016 -0.296,0.024 -0.455,0.024c-0.417,0 -0.753,-0.12 -1.008,-0.36c-0.241,-0.256 -0.385,-0.56 -0.433,-0.912l-0.048,-0.888c-0.56,0.752 -1.272,1.328 -2.136,1.728c-0.848,0.384 -1.76,0.576 -2.736,0.576Zm0.552,-1.584c0.753,0 1.449,-0.136 2.088,-0.408c0.657,-0.288 1.152,-0.664 1.488,-1.128c0.304,-0.304 0.456,-0.616 0.456,-0.936l0,-1.848c-1.023,-0.4 -2.088,-0.6 -3.192,-0.6c-1.056,0 -1.92,0.224 -2.592,0.672c-0.656,0.448 -0.984,1.032 -0.984,1.752c0,0.352 0.064,0.68 0.192,0.984c0.144,0.304 0.336,0.568 0.576,0.792c0.256,0.224 0.552,0.4 0.888,0.528c0.336,0.128 0.696,0.192 1.08,0.192Zm13.386,1.584c-1.313,0 -2.304,-0.44 -2.976,-1.32c-0.672,-0.88 -1.008,-2.192 -1.008,-3.936l0,-7.512l2.112,0l0,7.104c0,2.56 0.888,3.84 2.664,3.84c0.864,0 1.671,-0.272 2.424,-0.816c0.768,-0.56 1.335,-1.32 1.704,-2.28l0,-7.848l2.112,0l0,9.936c0,0.496 0.223,0.752 0.672,0.768l0,1.824c-0.24,0.032 -0.432,0.048 -0.576,0.048c-0.129,0.016 -0.257,0.024 -0.384,0.024c-0.417,0 -0.768,-0.12 -1.056,-0.36c-0.273,-0.256 -0.417,-0.568 -0.432,-0.936l-0.048,-1.464c-0.561,0.944 -1.296,1.672 -2.208,2.184c-0.912,0.496 -1.913,0.744 -3,0.744Zm10.598,-17.76l2.112,0l0,14.28c0,0.464 0.12,0.832 0.36,1.104c0.256,0.256 0.607,0.384 1.056,0.384c0.175,0 0.384,-0.024 0.624,-0.072c0.24,-0.064 0.463,-0.136 0.672,-0.216l0.336,1.704c-0.353,0.144 -0.768,0.264 -1.248,0.36c-0.48,0.096 -0.905,0.144 -1.272,0.144c-0.816,0 -1.464,-0.232 -1.944,-0.696c-0.464,-0.464 -0.696,-1.112 -0.696,-1.944l0,-15.048Zm12.363,17.76c-0.944,0 -1.808,-0.168 -2.592,-0.504c-0.785,-0.352 -1.457,-0.824 -2.016,-1.416c-0.56,-0.592 -1.001,-1.28 -1.32,-2.064c-0.305,-0.8 -0.456,-1.64 -0.456,-2.52c0,-0.88 0.151,-1.712 0.456,-2.496c0.319,-0.784 0.76,-1.472 1.32,-2.064c0.576,-0.592 1.255,-1.056 2.04,-1.392c0.784,-0.352 1.648,-0.528 2.592,-0.528c0.943,0 1.8,0.176 2.568,0.528c0.784,0.352 1.447,0.824 1.992,1.416c0.544,0.576 0.96,1.256 1.248,2.04c0.304,0.768 0.456,1.568 0.456,2.4c0,0.176 -0.008,0.336 -0.024,0.48c0,0.144 -0.008,0.256 -0.024,0.336l-10.392,0c0.048,0.624 0.192,1.192 0.432,1.704c0.24,0.512 0.552,0.952 0.936,1.32c0.384,0.368 0.816,0.656 1.296,0.864c0.496,0.208 1.015,0.312 1.56,0.312c0.384,0 0.76,-0.048 1.128,-0.144c0.367,-0.112 0.712,-0.256 1.032,-0.432c0.319,-0.176 0.6,-0.392 0.84,-0.648c0.256,-0.256 0.448,-0.544 0.576,-0.864l1.824,0.504c-0.209,0.464 -0.497,0.888 -0.864,1.272c-0.353,0.384 -0.768,0.72 -1.248,1.008c-0.464,0.272 -0.984,0.488 -1.56,0.648c-0.576,0.16 -1.176,0.24 -1.8,0.24Zm4.296,-7.344c-0.048,-0.592 -0.2,-1.136 -0.456,-1.632c-0.24,-0.512 -0.552,-0.944 -0.936,-1.296c-0.368,-0.352 -0.8,-0.624 -1.296,-0.816c-0.497,-0.208 -1.025,-0.312 -1.584,-0.312c-0.56,0 -1.088,0.104 -1.584,0.312c-0.497,0.192 -0.936,0.472 -1.32,0.84c-0.368,0.352 -0.672,0.776 -0.912,1.272c-0.224,0.496 -0.36,1.04 -0.408,1.632l8.496,0Zm4.564,10.512c0.208,0.032 0.416,0.056 0.624,0.072c0.208,0.016 0.368,0.024 0.48,0.024c0.192,0 0.36,-0.048 0.504,-0.144c0.16,-0.08 0.312,-0.248 0.456,-0.504c0.16,-0.256 0.336,-0.616 0.528,-1.08c0.192,-0.448 0.432,-1.04 0.72,-1.776l-5.304,-12.528l2.184,0l4.272,10.632l3.888,-10.632l2.016,0l-6.096,15.816c-0.224,0.56 -0.6,1.048 -1.128,1.464c-0.512,0.432 -1.224,0.648 -2.136,0.648c-0.144,0 -0.296,-0.008 -0.456,-0.024c-0.144,-0.016 -0.328,-0.048 -0.552,-0.096l0,-1.872Zm18.252,-3.408l0,-17.04l7.104,0c0.752,0 1.44,0.16 2.064,0.48c0.64,0.304 1.184,0.72 1.632,1.248c0.464,0.512 0.824,1.096 1.08,1.752c0.256,0.64 0.384,1.296 0.384,1.968c0,0.704 -0.12,1.384 -0.36,2.04c-0.24,0.656 -0.584,1.24 -1.032,1.752c-0.432,0.512 -0.96,0.92 -1.584,1.224c-0.608,0.304 -1.288,0.456 -2.04,0.456l-5.088,0l0,6.12l-2.16,0Zm2.16,-8.04l4.968,0c0.448,0 0.848,-0.088 1.2,-0.264c0.368,-0.192 0.68,-0.448 0.936,-0.768c0.256,-0.336 0.456,-0.72 0.6,-1.152c0.144,-0.432 0.216,-0.888 0.216,-1.368c0,-0.496 -0.088,-0.96 -0.264,-1.392c-0.16,-0.432 -0.384,-0.808 -0.672,-1.128c-0.272,-0.32 -0.6,-0.568 -0.984,-0.744c-0.368,-0.176 -0.76,-0.264 -1.176,-0.264l-4.824,0l0,7.08Zm15.533,8.28c-0.593,0 -1.145,-0.096 -1.656,-0.288c-0.512,-0.208 -0.96,-0.488 -1.344,-0.84c-0.368,-0.352 -0.665,-0.76 -0.888,-1.224c-0.209,-0.48 -0.312,-1 -0.312,-1.56c0,-0.576 0.127,-1.096 0.384,-1.56c0.256,-0.48 0.616,-0.888 1.08,-1.224c0.48,-0.336 1.039,-0.6 1.68,-0.792c0.655,-0.192 1.368,-0.288 2.136,-0.288c0.607,0 1.224,0.056 1.848,0.168c0.624,0.112 1.176,0.264 1.656,0.456l0,-1.008c0,-1.024 -0.288,-1.824 -0.864,-2.4c-0.576,-0.592 -1.392,-0.888 -2.448,-0.888c-1.265,0 -2.592,0.488 -3.984,1.464l-0.696,-1.368c1.615,-1.088 3.24,-1.632 4.872,-1.632c1.648,0 2.928,0.44 3.84,1.32c0.928,0.88 1.392,2.12 1.392,3.72l0,5.112c0,0.496 0.223,0.752 0.672,0.768l0,1.824c-0.224,0.032 -0.408,0.056 -0.552,0.072c-0.144,0.016 -0.296,0.024 -0.456,0.024c-0.416,0 -0.752,-0.12 -1.008,-0.36c-0.24,-0.256 -0.384,-0.56 -0.432,-0.912l-0.048,-0.888c-0.56,0.752 -1.272,1.328 -2.136,1.728c-0.848,0.384 -1.76,0.576 -2.736,0.576Zm0.552,-1.584c0.751,0 1.447,-0.136 2.088,-0.408c0.655,-0.288 1.152,-0.664 1.488,-1.128c0.304,-0.304 0.456,-0.616 0.456,-0.936l0,-1.848c-1.025,-0.4 -2.088,-0.6 -3.192,-0.6c-1.056,0 -1.92,0.224 -2.592,0.672c-0.656,0.448 -0.984,1.032 -0.984,1.752c0,0.352 0.064,0.68 0.192,0.984c0.144,0.304 0.336,0.568 0.576,0.792c0.256,0.224 0.552,0.4 0.888,0.528c0.336,0.128 0.696,0.192 1.08,0.192Zm12.746,1.344l-4.944,-12.528l2.184,0l3.96,10.68l3.984,-10.68l2.016,0l-4.944,12.528l-2.256,0Zm9.29,0l0,-12.528l2.112,0l0,12.528l-2.112,0Zm0,-14.88l0,-2.64l2.112,0l0,2.64l-2.112,0Zm5.58,-2.64l2.112,0l0,14.28c0,0.464 0.12,0.832 0.36,1.104c0.255,0.256 0.607,0.384 1.056,0.384c0.175,0 0.384,-0.024 0.624,-0.072c0.24,-0.064 0.463,-0.136 0.672,-0.216l0.336,1.704c-0.353,0.144 -0.768,0.264 -1.248,0.36c-0.48,0.096 -0.905,0.144 -1.272,0.144c-0.816,0 -1.464,-0.232 -1.944,-0.696c-0.465,-0.464 -0.696,-1.112 -0.696,-1.944l0,-15.048Zm6.819,17.52l0,-12.528l2.112,0l0,12.528l-2.112,0Zm0,-14.88l0,-2.64l2.112,0l0,2.64l-2.112,0Zm11.003,15.12c-0.944,0 -1.808,-0.176 -2.592,-0.528c-0.768,-0.352 -1.432,-0.824 -1.992,-1.416c-0.544,-0.592 -0.968,-1.28 -1.272,-2.064c-0.304,-0.784 -0.456,-1.608 -0.456,-2.472c0,-0.88 0.152,-1.712 0.456,-2.496c0.32,-0.784 0.752,-1.472 1.296,-2.064c0.56,-0.592 1.224,-1.064 1.992,-1.416c0.784,-0.352 1.64,-0.528 2.568,-0.528c0.928,0 1.784,0.176 2.568,0.528c0.784,0.352 1.448,0.824 1.992,1.416c0.56,0.592 0.992,1.28 1.296,2.064c0.32,0.784 0.48,1.616 0.48,2.496c0,0.864 -0.152,1.688 -0.456,2.472c-0.304,0.784 -0.736,1.472 -1.296,2.064c-0.56,0.592 -1.232,1.064 -2.016,1.416c-0.768,0.352 -1.624,0.528 -2.568,0.528Zm-4.152,-6.456c0,0.656 0.104,1.264 0.312,1.824c0.224,0.56 0.52,1.048 0.888,1.464c0.384,0.416 0.824,0.744 1.32,0.984c0.512,0.24 1.056,0.36 1.632,0.36c0.576,0 1.112,-0.12 1.608,-0.36c0.512,-0.24 0.96,-0.568 1.344,-0.984c0.384,-0.432 0.68,-0.928 0.888,-1.488c0.224,-0.576 0.336,-1.192 0.336,-1.848c0,-0.64 -0.112,-1.24 -0.336,-1.8c-0.208,-0.576 -0.504,-1.072 -0.888,-1.488c-0.384,-0.432 -0.832,-0.768 -1.344,-1.008c-0.496,-0.24 -1.032,-0.36 -1.608,-0.36c-0.576,0 -1.12,0.128 -1.632,0.384c-0.496,0.24 -0.936,0.576 -1.32,1.008c-0.368,0.416 -0.664,0.912 -0.888,1.488c-0.208,0.56 -0.312,1.168 -0.312,1.824Zm23.919,6.216l-2.112,0l0,-7.008c0,-1.344 -0.208,-2.32 -0.624,-2.928c-0.4,-0.608 -1.016,-0.912 -1.848,-0.912c-0.432,0 -0.864,0.088 -1.296,0.264c-0.432,0.16 -0.84,0.384 -1.224,0.672c-0.384,0.288 -0.72,0.632 -1.008,1.032c-0.288,0.4 -0.504,0.84 -0.648,1.32l0,7.56l-2.112,0l0,-12.528l1.92,0l0,2.688c0.496,-0.88 1.208,-1.584 2.136,-2.112c0.944,-0.528 1.968,-0.792 3.072,-0.792c0.72,0 1.32,0.136 1.8,0.408c0.48,0.256 0.864,0.624 1.152,1.104c0.288,0.464 0.488,1.016 0.6,1.656c0.128,0.64 0.192,1.336 0.192,2.088l0,7.488Zm3.356,1.944l0.48,-2.136l-0.72,0l0,-2.496l1.992,0l0,2.496l-0.72,2.136l-1.032,0Zm18.405,-3.768c0.992,0 1.816,-0.192 2.472,-0.576c0.656,-0.384 1.176,-0.88 1.56,-1.488c0.4,-0.624 0.68,-1.328 0.84,-2.112c0.16,-0.8 0.24,-1.608 0.24,-2.424l0,-8.616l2.16,0l0,8.616c0,1.152 -0.136,2.248 -0.408,3.288c-0.256,1.024 -0.672,1.928 -1.248,2.712c-0.576,0.784 -1.328,1.408 -2.256,1.872c-0.912,0.448 -2.024,0.672 -3.336,0.672c-1.36,0 -2.504,-0.24 -3.432,-0.72c-0.928,-0.48 -1.68,-1.112 -2.256,-1.896c-0.56,-0.8 -0.968,-1.712 -1.224,-2.736c-0.24,-1.04 -0.36,-2.104 -0.36,-3.192l0,-8.616l2.16,0l0,8.616c0,0.848 0.08,1.672 0.24,2.472c0.176,0.784 0.456,1.48 0.84,2.088c0.4,0.608 0.92,1.104 1.56,1.488c0.656,0.368 1.472,0.552 2.448,0.552Zm10.005,-6.816c0,-1.024 0.176,-2.04 0.528,-3.048c0.368,-1.024 0.896,-1.936 1.584,-2.736c0.704,-0.816 1.56,-1.472 2.568,-1.968c1.008,-0.496 2.153,-0.744 3.432,-0.744c1.52,0 2.825,0.344 3.912,1.032c1.088,0.688 1.896,1.584 2.424,2.688l-1.704,1.104c-0.256,-0.544 -0.568,-1 -0.936,-1.368c-0.352,-0.368 -0.744,-0.664 -1.176,-0.888c-0.415,-0.224 -0.847,-0.384 -1.296,-0.48c-0.448,-0.096 -0.888,-0.144 -1.32,-0.144c-0.943,0 -1.783,0.2 -2.52,0.6c-0.72,0.384 -1.327,0.896 -1.824,1.536c-0.496,0.624 -0.871,1.336 -1.128,2.136c-0.24,0.784 -0.36,1.576 -0.36,2.376c0,0.896 0.144,1.752 0.432,2.568c0.305,0.8 0.72,1.512 1.248,2.136c0.528,0.624 1.152,1.12 1.872,1.488c0.72,0.368 1.505,0.552 2.352,0.552c0.449,0 0.905,-0.056 1.368,-0.168c0.48,-0.112 0.936,-0.288 1.368,-0.528c0.432,-0.256 0.833,-0.568 1.2,-0.936c0.384,-0.384 0.696,-0.84 0.936,-1.368l1.8,0.984c-0.271,0.64 -0.655,1.208 -1.152,1.704c-0.48,0.48 -1.032,0.888 -1.656,1.224c-0.607,0.336 -1.255,0.592 -1.944,0.768c-0.688,0.176 -1.36,0.264 -2.016,0.264c-1.168,0 -2.239,-0.256 -3.216,-0.768c-0.976,-0.512 -1.824,-1.176 -2.544,-1.992c-0.703,-0.832 -1.255,-1.768 -1.656,-2.808c-0.384,-1.056 -0.576,-2.128 -0.576,-3.216Zm17.464,8.64l0,-17.04l2.16,0l0,15.12l9.504,0l0,1.92l-11.664,0Zm19.199,-17.04l1.824,0l6.96,17.04l-2.304,0l-2.016,-4.992l-7.152,0l-1.992,4.992l-2.304,0l6.984,-17.04Zm3.984,10.368l-3.072,-7.872l-3.168,7.872l6.24,0Z" style="fill:#d3d3d3;fill-rule:nonzero;"/><path d="M249.03,120.75l13.95,0l0,-28.53l24.75,0l0,28.53l13.95,0l0,-65.07l-14.13,0l0,26.01l-24.57,0l0,-26.01l-13.95,0l0,65.07Zm82.861,-65.07l-23.49,65.07l13.32,0l4.861,-14.04l25.74,0l4.68,14.04l14.039,0l-22.589,-65.07l-16.56,0Zm-1.71,40.5l9.63,-27.72l9,27.72l-18.63,0Zm98.022,-19.26c0,-12.96 -9.99,-21.6 -24.21,-21.6c-18.27,0 -29.79,13.68 -29.79,34.29c0,16.11 7.29,32.67 29.7,32.67c5.94,0 13.23,-1.35 18.99,-7.29c5.22,-5.4 5.58,-11.43 5.85,-15.3l-14.67,0c-0.27,8.64 -5.85,12.33 -11.7,12.33c-13.59,0 -13.59,-18.45 -13.59,-22.32c0,-13.41 4.32,-24.21 14.67,-24.21c9.45,0 10.26,9.18 10.53,11.43l14.22,0Zm8.999,43.83l13.95,0l0,-33.12l22.77,33.12l17.37,0l-25.92,-35.91l23.85,-29.16l-16.29,0l-21.78,28.17l0,-27.99l-13.95,0l0,64.89Zm57.151,-20.79c0.089,6.3 0.269,22.32 25.199,22.32c18,0 27.721,-9.45 27.721,-21.15c0,-12.69 -11.071,-15.75 -22.321,-18.45c-9.36,-2.34 -14.13,-3.42 -14.13,-9.45c0,-5.31 4.231,-8.82 10.711,-8.82c9.63,0 10.35,7.65 10.529,9.9l13.411,0c0,-2.16 0,-7.38 -3.69,-12.06c-4.86,-6.12 -12.87,-7.65 -19.62,-7.65c-18.09,0 -25.74,9.45 -25.74,20.16c0,11.25 8.46,15.84 23.94,19.71c8.279,1.98 12.33,2.97 12.33,8.73c0,5.49 -4.77,9.09 -12.331,9.09c-11.969,0 -11.789,-9.27 -11.789,-12.33l-14.22,0Z" style="fill:url(#_Linear9);fill-rule:nonzero;"/><path d="M279.083,195l-1.126,0l0,1.125l1.125,0l0,-1.125Zm62.087,0l0,1.125l1.125,0l0,-1.125l-1.125,0Zm0,-15.111l1.125,0l0,-1.125l-1.125,0l0,1.125Zm-36.135,0l-0.656,-0.914l-2.837,2.039l3.493,0l0,-1.125Zm31.864,-53.874l-0.888,0.69l0.005,0.006l0.883,-0.696Zm-50.808,-0.548l-0.865,-0.719l-0.002,0.002l0.868,0.717Zm-5.476,14.673l-1.125,0l0,1.125l1.125,0l0,-1.125Zm21.353,0l0,1.125l1.012,0l0.107,-1.007l-1.119,-0.118Zm14.454,7.446l0.922,0.645l0.018,-0.026l0.016,-0.026l-0.956,-0.593Zm-37.34,31.646l-0.668,-0.905l-0.457,0.337l0,0.568l1.125,0Zm0,16.893l62.087,0l0,-2.25l-62.087,0l0,2.25Zm63.212,-1.125l0,-15.111l-2.25,0l0,15.111l2.25,0Zm-1.125,-16.236l-36.135,0l0,2.25l36.135,0l0,-2.25Zm-35.479,2.038c10.484,-7.535 19.557,-14.058 25.993,-20.688c6.46,-6.654 10.392,-13.545 10.392,-21.835l-2.25,0c0,7.478 -3.514,13.837 -9.756,20.268c-6.266,6.455 -15.151,12.853 -25.691,20.428l1.312,1.827Zm36.385,-42.523c0,-4.59 -1.265,-9.117 -4.293,-12.96l-1.767,1.392c2.666,3.384 3.81,7.398 3.81,11.568l2.25,0Zm-4.288,-12.954c-5.233,-6.745 -13.977,-9.743 -25.745,-9.743l0,2.25c11.446,0 19.346,2.916 23.968,8.872l1.777,-1.379Zm-25.745,-9.743c-3.277,0 -8.252,0.249 -13.249,1.499c-4.98,1.245 -10.119,3.518 -13.568,7.667l1.731,1.439c3.012,-3.626 7.619,-5.733 12.383,-6.924c4.749,-1.187 9.519,-1.431 12.703,-1.431l0,-2.25Zm-26.818,9.168c-5.492,6.636 -5.733,12.853 -5.733,15.39l2.25,0c0,-2.28 0.196,-7.89 5.217,-13.956l-1.734,-1.434Zm-4.608,16.515l21.352,0l0,-2.25l-21.352,0l0,2.25Zm22.471,-1.007c0.113,-1.068 0.293,-3.037 1.334,-4.748c0.981,-1.612 2.801,-3.114 6.526,-3.114l0,-2.25c-4.487,0 -7.047,1.892 -8.448,4.195c-1.341,2.203 -1.543,4.669 -1.65,5.682l2.238,0.235Zm7.86,-7.862c1.286,0 3.089,0.212 4.538,1.116c1.361,0.85 2.549,2.393 2.549,5.424l2.25,0c0,-3.758 -1.548,-6.047 -3.608,-7.333c-1.974,-1.231 -4.277,-1.457 -5.729,-1.457l0,2.25Zm7.087,6.54c0,3.209 -1.199,5.846 -2.568,8.058l1.912,1.185c1.478,-2.387 2.906,-5.444 2.906,-9.243l-2.25,0Zm-2.534,8.006c-2.696,3.859 -7.626,8.511 -14.109,13.832c-6.462,5.303 -14.378,11.199 -22.977,17.553l1.337,1.809c8.592,-6.348 16.554,-12.277 23.067,-17.623c6.493,-5.328 11.637,-10.148 14.526,-14.282l-1.845,-1.289Zm-37.542,32.29l0,15.768l2.25,0l0,-15.768l-2.25,0Zm83.14,8.103l0.85,-0.737l-0.002,-0.003l-0.848,0.74Zm47.085,-60.554l-0.882,0.697l0.009,0.013l0.01,0.012l0.863,-0.722Zm-47.523,-0.109l0.863,0.722l0.005,-0.007l-0.868,-0.715Zm33.398,12.483l1.084,-0.298l-0.001,-0.005l-1.083,0.303Zm-1.424,38.434l0.974,0.563l0.005,-0.008l0.005,-0.009l-0.984,-0.546Zm-42.187,-20.914c0,7.603 1.196,21.547 9.804,31.4l1.695,-1.48c-8.036,-9.2 -9.249,-22.412 -9.249,-29.92l-2.25,0Zm9.801,31.396c5.981,6.902 15.11,9.587 24.064,9.587l0,-2.25c-8.565,0 -16.956,-2.571 -22.364,-8.81l-1.7,1.473Zm24.064,9.587c12.476,0 21.049,-4.687 26.457,-12.285c5.364,-7.535 7.518,-17.795 7.518,-28.808l-2.25,0c0,10.778 -2.117,20.502 -7.101,27.503c-4.938,6.938 -12.79,11.34 -24.624,11.34l0,2.25Zm33.975,-41.093c0,-15.335 -4.011,-24.252 -9.241,-30.505l-1.726,1.443c4.844,5.792 8.717,14.176 8.717,29.062l2.25,0Zm-9.221,-30.48c-1.716,-2.175 -4.273,-4.76 -8.285,-6.795c-4.011,-2.034 -9.419,-3.489 -16.797,-3.489l0,2.25c7.075,0 12.125,1.392 15.779,3.246c3.652,1.852 5.969,4.194 7.538,6.181l1.765,-1.393Zm-25.082,-10.284c-7.034,0 -17.197,1.67 -24.192,10.155l1.736,1.431c6.365,-7.72 15.692,-9.336 22.456,-9.336l0,-2.25Zm-24.186,10.149c-8.153,9.738 -9.351,23.447 -9.351,30.725l2.25,0c0,-7.176 1.21,-20.185 8.826,-29.281l-1.725,-1.444Zm14.361,31.053c0,-11.475 1.351,-17.609 3.29,-20.858c0.945,-1.583 2.021,-2.463 3.155,-2.966c1.159,-0.515 2.464,-0.674 3.927,-0.674l0,-2.25c-1.602,0 -3.267,0.17 -4.839,0.867c-1.596,0.708 -3.012,1.923 -4.175,3.87c-2.276,3.814 -3.608,10.491 -3.608,22.011l2.25,0Zm10.372,-24.498c3.193,0 5.071,1.129 6.26,2.479c1.231,1.4 1.807,3.132 2.183,4.474l2.167,-0.606c-0.391,-1.396 -1.074,-3.551 -2.662,-5.354c-1.63,-1.853 -4.132,-3.243 -7.948,-3.243l0,2.25Zm8.442,6.948c1.489,5.424 1.821,14.16 1.821,17.988l2.25,0c0,-3.836 -0.325,-12.84 -1.902,-18.584l-2.169,0.596Zm1.821,17.988c0,0.812 0,4.326 -0.405,8.361c-0.41,4.086 -1.219,8.505 -2.738,11.241l1.966,1.092c1.766,-3.177 2.6,-8.01 3.011,-12.109c0.416,-4.15 0.416,-7.754 0.416,-8.585l-2.25,0Zm-3.134,19.586c-1.404,2.434 -4.383,3.927 -7.457,3.927l0,2.25c3.714,0 7.524,-1.792 9.405,-5.052l-1.948,-1.125Zm-7.457,3.927c-2.051,0 -3.625,-0.503 -4.865,-1.419c-1.25,-0.924 -2.257,-2.34 -3.04,-4.328c-1.584,-4.026 -2.139,-10.101 -2.139,-18.204l-2.25,0c0,8.103 0.54,14.566 2.295,19.027c0.887,2.255 2.111,4.069 3.797,5.315c1.696,1.253 3.763,1.859 6.202,1.859l0,-2.25Zm40.952,14.046l-1.125,0l0,1.125l1.125,0l0,-1.125Zm62.086,0l0,1.125l1.125,0l0,-1.125l-1.125,0Zm0,-15.111l1.125,0l0,-1.125l-1.125,0l0,1.125Zm-36.135,0l-0.657,-0.914l-2.835,2.039l3.492,0l0,-1.125Zm31.865,-53.874l-0.889,0.69l0.005,0.006l0.884,-0.696Zm-50.808,-0.548l-0.866,-0.719l-0.001,0.002l0.867,0.717Zm-5.475,14.673l-1.125,0l0,1.125l1.125,0l0,-1.125Zm21.352,0l0,1.125l1.013,0l0.106,-1.007l-1.119,-0.118Zm14.454,7.446l0.922,0.645l0.018,-0.026l0.017,-0.026l-0.957,-0.593Zm-37.339,31.646l-0.669,-0.905l-0.456,0.337l0,0.568l1.125,0Zm0,16.893l62.086,0l0,-2.25l-62.086,0l0,2.25Zm63.211,-1.125l0,-15.111l-2.25,0l0,15.111l2.25,0Zm-1.125,-16.236l-36.135,0l0,2.25l36.135,0l0,-2.25Zm-35.478,2.038c10.484,-7.535 19.557,-14.058 25.992,-20.688c6.46,-6.654 10.392,-13.545 10.392,-21.835l-2.25,0c0,7.478 -3.513,13.837 -9.756,20.268c-6.267,6.455 -15.152,12.853 -25.692,20.428l1.314,1.827Zm36.384,-42.523c0,-4.59 -1.265,-9.117 -4.293,-12.96l-1.767,1.392c2.666,3.384 3.81,7.398 3.81,11.568l2.25,0Zm-4.287,-12.954c-5.234,-6.745 -13.978,-9.743 -25.746,-9.743l0,2.25c11.446,0 19.347,2.916 23.968,8.872l1.778,-1.379Zm-25.746,-9.743c-3.277,0 -8.251,0.249 -13.248,1.499c-4.982,1.245 -10.12,3.518 -13.569,7.667l1.731,1.439c3.012,-3.626 7.619,-5.733 12.384,-6.924c4.748,-1.187 9.519,-1.431 12.702,-1.431l0,-2.25Zm-26.818,9.168c-5.492,6.636 -5.733,12.853 -5.733,15.39l2.25,0c0,-2.28 0.196,-7.89 5.216,-13.956l-1.733,-1.434Zm-4.608,16.515l21.352,0l0,-2.25l-21.352,0l0,2.25Zm22.471,-1.007c0.112,-1.068 0.293,-3.037 1.334,-4.748c0.981,-1.612 2.8,-3.114 6.526,-3.114l0,-2.25c-4.487,0 -7.047,1.892 -8.448,4.195c-1.341,2.203 -1.543,4.669 -1.65,5.682l2.238,0.235Zm7.86,-7.862c1.285,0 3.089,0.212 4.537,1.116c1.361,0.85 2.551,2.393 2.551,5.424l2.25,0c0,-3.758 -1.549,-6.047 -3.609,-7.333c-1.973,-1.231 -4.277,-1.457 -5.729,-1.457l0,2.25Zm7.088,6.54c0,3.209 -1.2,5.846 -2.57,8.058l1.914,1.185c1.477,-2.387 2.906,-5.444 2.906,-9.243l-2.25,0Zm-2.535,8.006c-2.696,3.859 -7.625,8.511 -14.108,13.832c-6.463,5.303 -14.379,11.199 -22.978,17.553l1.337,1.809c8.593,-6.348 16.554,-12.277 23.068,-17.623c6.493,-5.328 11.637,-10.148 14.525,-14.282l-1.844,-1.289Zm-37.542,32.29l0,15.768l2.25,0l0,-15.768l-2.25,0Zm83.14,8.103l0.849,-0.737l-0.003,-0.003l-0.846,0.74Zm47.085,-60.554l-0.884,0.697l0.01,0.013l0.01,0.012l0.864,-0.722Zm-47.523,-0.109l0.862,0.722l0.005,-0.007l-0.867,-0.715Zm33.397,12.483l1.085,-0.298l-0.002,-0.005l-1.083,0.303Zm-1.423,38.434l0.974,0.563l0.004,-0.008l0.005,-0.009l-0.983,-0.546Zm-42.188,-20.914c0,7.603 1.196,21.547 9.804,31.4l1.694,-1.48c-8.036,-9.2 -9.248,-22.412 -9.248,-29.92l-2.25,0Zm9.801,31.396c5.981,6.902 15.11,9.587 24.065,9.587l0,-2.25c-8.566,0 -16.958,-2.571 -22.365,-8.81l-1.7,1.473Zm24.065,9.587c12.475,0 21.048,-4.687 26.457,-12.285c5.364,-7.535 7.518,-17.795 7.518,-28.808l-2.25,0c0,10.778 -2.118,20.502 -7.101,27.503c-4.939,6.938 -12.791,11.34 -24.624,11.34l0,2.25Zm33.975,-41.093c0,-15.335 -4.011,-24.252 -9.242,-30.505l-1.726,1.443c4.845,5.792 8.718,14.176 8.718,29.062l2.25,0Zm-9.222,-30.48c-1.716,-2.175 -4.272,-4.76 -8.285,-6.795c-4.011,-2.034 -9.418,-3.489 -16.797,-3.489l0,2.25c7.075,0 12.125,1.392 15.779,3.246c3.652,1.852 5.968,4.194 7.537,6.181l1.766,-1.393Zm-25.082,-10.284c-7.033,0 -17.197,1.67 -24.192,10.155l1.736,1.431c6.365,-7.72 15.692,-9.336 22.456,-9.336l0,-2.25Zm-24.187,10.149c-8.152,9.738 -9.35,23.447 -9.35,30.725l2.25,0c0,-7.176 1.211,-20.185 8.826,-29.281l-1.726,-1.444Zm14.362,31.053c0,-11.475 1.351,-17.609 3.29,-20.858c0.945,-1.583 2.02,-2.463 3.155,-2.966c1.159,-0.515 2.464,-0.674 3.928,-0.674l0,-2.25c-1.603,0 -3.269,0.17 -4.84,0.867c-1.596,0.708 -3.012,1.923 -4.175,3.87c-2.277,3.814 -3.608,10.491 -3.608,22.011l2.25,0Zm10.373,-24.498c3.192,0 5.07,1.129 6.258,2.479c1.233,1.4 1.809,3.132 2.184,4.474l2.167,-0.606c-0.391,-1.396 -1.074,-3.551 -2.662,-5.354c-1.631,-1.853 -4.132,-3.243 -7.947,-3.243l0,2.25Zm8.441,6.948c1.489,5.424 1.822,14.16 1.822,17.988l2.25,0c0,-3.836 -0.326,-12.84 -1.902,-18.584l-2.17,0.596Zm1.822,17.988c0,0.812 -0.001,4.326 -0.405,8.361c-0.411,4.086 -1.219,8.505 -2.739,11.241l1.967,1.092c1.765,-3.177 2.599,-8.01 3.01,-12.109c0.417,-4.15 0.417,-7.754 0.417,-8.585l-2.25,0Zm-3.135,19.586c-1.404,2.434 -4.383,3.927 -7.457,3.927l0,2.25c3.715,0 7.525,-1.792 9.406,-5.052l-1.949,-1.125Zm-7.457,3.927c-2.051,0 -3.625,-0.503 -4.865,-1.419c-1.25,-0.924 -2.258,-2.34 -3.04,-4.328c-1.584,-4.026 -2.139,-10.101 -2.139,-18.204l-2.25,0c0,8.103 0.539,14.566 2.295,19.027c0.887,2.255 2.111,4.069 3.797,5.315c1.696,1.253 3.763,1.859 6.202,1.859l0,-2.25Z" style="fill:url(#_Linear10);fill-rule:nonzero;"/><defs><linearGradient id="_Linear1" x1="0" y1="0" x2="1" y2="0" gradientUnits="userSpaceOnUse" gradientTransform="matrix(-59.8631,-43.9393,43.9393,-59.8631,31.2926,116.024)"><stop offset="0" style="stop-color:#001b2b;stop-opacity:1"/><stop offset="1" style="stop-color:#2774ae;stop-opacity:1"/></linearGradient><linearGradient id="_Linear2" x1="0" y1="0" x2="1" y2="0" gradientUnits="userSpaceOnUse" gradientTransform="matrix(-91.6827,-62.628,62.628,-91.6827,88.2322,217.068)"><stop offset="0" style="stop-color:#000;stop-opacity:1"/><stop offset="1" style="stop-color:#d8d8d8;stop-opacity:1"/></linearGradient><linearGradient id="_Linear3" x1="0" y1="0" x2="1" y2="0" gradientUnits="userSpaceOnUse" gradientTransform="matrix(43.518,-90.993,90.993,43.518,93.2873,283.461)"><stop offset="0" style="stop-color:#efefef;stop-opacity:1"/><stop offset="1" style="stop-color:#000;stop-opacity:1"/></linearGradient><linearGradient id="_Linear4" x1="0" y1="0" x2="1" y2="0" gradientUnits="userSpaceOnUse" gradientTransform="matrix(-33.7842,61.914,-61.914,-33.7842,85.8953,119.419)"><stop offset="0" style="stop-color:#000;stop-opacity:1"/><stop offset="1" style="stop-color:#fff;stop-opacity:1"/></linearGradient><linearGradient id="_Linear5" x1="0" y1="0" x2="1" y2="0" gradientUnits="userSpaceOnUse" gradientTransform="matrix(71.118,44.2433,-44.2433,71.118,139.775,230.797)"><stop offset="0" style="stop-color:#000;stop-opacity:1"/><stop offset="1" style="stop-color:#ffd100;stop-opacity:1"/></linearGradient><linearGradient id="_Linear6" x1="0" y1="0" x2="1" y2="0" gradientUnits="userSpaceOnUse" gradientTransform="matrix(94.4213,62.5612,-62.5612,94.4213,117.843,82.0485)"><stop offset="0" style="stop-color:#000;stop-opacity:1"/><stop offset="1" style="stop-color:#d8d8d8;stop-opacity:1"/></linearGradient><linearGradient id="_Linear7" x1="0" y1="0" x2="1" y2="0" gradientUnits="userSpaceOnUse" gradientTransform="matrix(-26.973,97.7762,-97.7762,-26.973,135.178,1.49978)"><stop offset="0" style="stop-color:#efefef;stop-opacity:1"/><stop offset="1" style="stop-color:#000;stop-opacity:1"/></linearGradient><linearGradient id="_Linear8" x1="0" y1="0" x2="1" y2="0" gradientUnits="userSpaceOnUse" gradientTransform="matrix(73.3852,-77.25,77.25,73.3852,123.2,181.3)"><stop offset="0" style="stop-color:#000;stop-opacity:1"/><stop offset="1" style="stop-color:#fff;stop-opacity:1"/></linearGradient><linearGradient id="_Linear9" x1="0" y1="0" x2="1" y2="0" gradientUnits="userSpaceOnUse" gradientTransform="matrix(342.029,94.773,-94.773,342.029,248.25,39)"><stop offset="0" style="stop-color:#fff;stop-opacity:1"/><stop offset="1" style="stop-color:#dfdfdf;stop-opacity:0.49"/></linearGradient><linearGradient id="_Linear10" x1="0" y1="0" x2="1" y2="0" gradientUnits="userSpaceOnUse" gradientTransform="matrix(162.328,115.954,-115.954,162.328,421.5,120.144)"><stop offset="0" style="stop-color:#fff;stop-opacity:1"/><stop offset="1" style="stop-color:#fff;stop-opacity:0"/></linearGradient></defs></svg>