<svg width="12" height="9" viewBox="0 0 12 9" fill="none" xmlns="http://www.w3.org/2000/svg">
<path d="M1.53033 3.46967C1.23744 3.17678 0.762563 3.17678 0.46967 3.46967C0.176777 3.76256 0.176777 4.23744 0.46967 4.53033L1.53033 3.46967ZM4.5 7.5L3.96967 8.03033C4.26256 8.32322 4.73744 8.32322 5.03033 8.03033L4.5 7.5ZM11.5303 1.53033C11.8232 1.23744 11.8232 0.762563 11.5303 0.46967C11.2374 0.176777 10.7626 0.176777 10.4697 0.46967L11.5303 1.53033ZM0.46967 4.53033L3.96967 8.03033L5.03033 6.96967L1.53033 3.46967L0.46967 4.53033ZM5.03033 8.03033L11.5303 1.53033L10.4697 0.46967L3.96967 6.96967L5.03033 8.03033Z" fill="#EEEEEE"/>
</svg>
