<svg width="1440" height="255" viewBox="0 0 1440 255" fill="none" xmlns="http://www.w3.org/2000/svg">
<path d="M694.899 59.2458H598.123V321.431H694.899V59.2458Z" fill="#C7CEEA"/>
<path d="M685.974 81.2078H605.671V87.3851H685.974V81.2078Z" fill="#BF6D9D"/>
<path d="M685.973 95.6218H605.67V101.799H685.973V95.6218Z" fill="#BF6D9D"/>
<path d="M685.973 110.036H605.67V116.213H685.973V110.036Z" fill="#BF6D9D"/>
<path d="M685.973 124.45H605.67V130.627H685.973V124.45Z" fill="#BF6D9D"/>
<path d="M685.973 138.864H605.67V145.041H685.973V138.864Z" fill="#BF6D9D"/>
<path d="M685.973 153.274H605.67V159.452H685.973V153.274Z" fill="#BF6D9D"/>
<path d="M685.973 167.688H605.67V173.866H685.973V167.688Z" fill="#BF6D9D"/>
<path d="M685.973 182.102H605.67V188.28H685.973V182.102Z" fill="#BF6D9D"/>
<path d="M685.973 196.516H605.67V202.693H685.973V196.516Z" fill="#BF6D9D"/>
<path d="M685.973 210.93H605.67V217.107H685.973V210.93Z" fill="#BF6D9D"/>
<path d="M685.973 225.344H605.67V231.521H685.973V225.344Z" fill="#BF6D9D"/>
<path d="M685.973 239.758H605.67V245.935H685.973V239.758Z" fill="#BF6D9D"/>
<path d="M685.973 254.168H605.67V260.346H685.973V254.168Z" fill="#BF6D9D"/>
<path d="M574.788 74.2534H508.21V321.434H574.788V74.2534Z" fill="#EDFDFC"/>
<path d="M508.213 74.2544H479.386V321.435H508.213V74.2544Z" fill="#BF6D9D"/>
<path d="M723.759 122.39H693.857V321.434H723.759V122.39Z" fill="#BF6D9D"/>
<path d="M65.8904 122.39H-0.687012V321.434H65.8904V122.39Z" fill="#C6E6EC"/>
<path d="M479.385 39.3398H434.084V321.431H479.385V39.3398Z" fill="#EDFDFC"/>
<path d="M479.385 61.3049H446.439V68.1677H479.385V61.3049Z" fill="#C6E6EC"/>
<path d="M479.385 92.189H446.439V99.0517H479.385V92.189Z" fill="#C6E6EC"/>
<path d="M479.385 123.076H446.439V129.938H479.385V123.076Z" fill="#C6E6EC"/>
<path d="M479.385 153.963H446.439V160.825H479.385V153.963Z" fill="#C6E6EC"/>
<path d="M479.385 184.847H446.439V191.709H479.385V184.847Z" fill="#C6E6EC"/>
<path d="M479.385 215.733H446.439V222.596H479.385V215.733Z" fill="#C6E6EC"/>
<path d="M479.385 246.62H446.439V253.483H479.385V246.62Z" fill="#C6E6EC"/>
<path d="M434.085 39.3408H358.585V321.432H434.085V39.3408Z" fill="#C7CEEA"/>
<path d="M375.744 39.3398H371.625V321.431H375.744V39.3398Z" fill="#BF6D9D"/>
<path d="M391.532 39.3398H387.414V321.431H391.532V39.3398Z" fill="#BF6D9D"/>
<path d="M407.316 39.3398H403.198V321.431H407.316V39.3398Z" fill="#BF6D9D"/>
<path d="M423.104 39.3398H418.986V321.431H423.104V39.3398Z" fill="#BF6D9D"/>
<path d="M227.062 83.0471H160.485V321.431H227.062V83.0471Z" fill="#C6E6EC"/>
<path d="M160.485 83.0481H131.657V321.432H160.485V83.0481Z" fill="#BF6D9D"/>
<path d="M131.66 0H86.3594V321.431H131.66V0Z" fill="#EDFDFC"/>
<path d="M131.661 21.9619H98.7151V28.8247H131.661V21.9619Z" fill="#C6E6EC"/>
<path d="M131.661 52.8486H98.7146V59.7114H131.661V52.8486Z" fill="#C6E6EC"/>
<path d="M131.661 83.7356H98.7146V90.5984H131.661V83.7356Z" fill="#C6E6EC"/>
<path d="M131.661 114.62H98.7146V121.482H131.661V114.62Z" fill="#C6E6EC"/>
<path d="M131.661 145.507H98.7146V152.369H131.661V145.507Z" fill="#C6E6EC"/>
<path d="M131.661 176.394H98.7146V183.256H131.661V176.394Z" fill="#C6E6EC"/>
<path d="M131.661 207.277H98.7146V214.14H131.661V207.277Z" fill="#C6E6EC"/>
<path d="M131.661 238.164H98.7146V245.027H131.661V238.164Z" fill="#C6E6EC"/>
<path d="M86.3596 0.00170898H10.8604V321.433H86.3596V0.00170898Z" fill="#C7CEEA"/>
<path d="M28.0189 0H23.9006V321.431H28.0189V0Z" fill="#BF6D9D"/>
<path d="M43.8067 0H39.6885V321.431H43.8067V0Z" fill="#BF6D9D"/>
<path d="M59.5912 0H55.4729V321.431H59.5912V0Z" fill="#BF6D9D"/>
<path d="M75.3787 0H71.2605V321.431H75.3787V0Z" fill="#BF6D9D"/>
<path d="M396.336 167.688H320.151V321.431H396.336V167.688Z" fill="#EDFDFC"/>
<path d="M393.591 153.963H320.151V167.691H393.591V153.963Z" fill="#C7CEEA"/>
<path d="M320.151 153.963H246.71V167.691H320.151V153.963Z" fill="#BF6D9D"/>
<path d="M345.545 196.516H340.742V321.431H345.545V196.516Z" fill="#ACDEE7"/>
<path d="M360.645 196.516H355.842V321.431H360.645V196.516Z" fill="#ACDEE7"/>
<path d="M375.744 196.516H370.94V321.431H375.744V196.516Z" fill="#ACDEE7"/>
<path d="M320.15 167.688H243.966V321.431H320.15V167.688Z" fill="#C7CEEA"/>
<path d="M279.653 196.516H274.849V321.431H279.653V196.516Z" fill="#F37588"/>
<path d="M294.755 196.516H289.952V321.431H294.755V196.516Z" fill="#F37588"/>
<path d="M309.854 196.516H305.051V321.431H309.854V196.516Z" fill="#F37588"/>
<path d="M372.314 143.667H323.583V153.963H372.314V143.667Z" fill="#C6E6EC"/>
<path d="M323.58 143.667H274.849V153.963H323.58V143.667Z" fill="#F37588"/>
<path d="M631.814 159.757H576.853V321.434H631.814V159.757Z" fill="#EDFDFC"/>
<path d="M629.832 149.854H576.853V159.757H629.832V149.854Z" fill="#C7CEEA"/>
<path d="M576.852 149.854H523.873V159.757H576.852V149.854Z" fill="#BF6D9D"/>
<path d="M595.171 180.555H591.705V321.433H595.171V180.555Z" fill="#ACDEE7"/>
<path d="M606.066 180.553H602.601V321.431H606.066V180.553Z" fill="#ACDEE7"/>
<path d="M616.958 180.553H613.493V321.431H616.958V180.553Z" fill="#ACDEE7"/>
<path d="M576.853 159.757H521.891V321.434H576.853V159.757Z" fill="#ACDEE7"/>
<path d="M547.639 180.555H544.173V321.433H547.639V180.555Z" fill="#BF6D9D"/>
<path d="M558.53 180.553H555.065V321.431H558.53V180.553Z" fill="#BF6D9D"/>
<path d="M569.425 180.553H565.96V321.431H569.425V180.553Z" fill="#BF6D9D"/>
<path d="M614.483 142.427H579.327V149.853H614.483V142.427Z" fill="#C6E6EC"/>
<path d="M579.33 142.427H544.173V149.853H579.33V142.427Z" fill="#F37588"/>
<path d="M222.001 51.6944V30.4177H219.256V51.6944H215.824V18.063H213.079V51.6944H199.354V70.2265H229.552V51.6944H222.001Z" fill="#BF6D9D"/>
<path d="M272.105 26.9878V321.431H184.251V76.4038L243.966 42.814L272.105 26.9878Z" fill="#EDFDFC"/>
<path d="M265.928 105.232H184.251V112.095H265.928V105.232Z" fill="#BF6D9D"/>
<path d="M265.928 118.272H184.251V125.134H265.928V118.272Z" fill="#BF6D9D"/>
<path d="M265.928 131.312H184.251V138.175H265.928V131.312Z" fill="#BF6D9D"/>
<path d="M265.928 144.352H184.251V151.215H265.928V144.352Z" fill="#BF6D9D"/>
<path d="M265.928 157.392H184.251V164.255H265.928V157.392Z" fill="#BF6D9D"/>
<path d="M265.928 170.435H184.251V177.298H265.928V170.435Z" fill="#BF6D9D"/>
<path d="M265.928 183.475H184.251V190.338H265.928V183.475Z" fill="#BF6D9D"/>
<path d="M265.928 196.515H184.251V203.378H265.928V196.515Z" fill="#BF6D9D"/>
<path d="M265.928 209.556H184.251V216.419H265.928V209.556Z" fill="#BF6D9D"/>
<path d="M265.928 222.596H184.251V229.459H265.928V222.596Z" fill="#BF6D9D"/>
<path d="M265.928 235.639H184.251V242.501H265.928V235.639Z" fill="#BF6D9D"/>
<path d="M265.928 248.679H184.251V255.541H265.928V248.679Z" fill="#BF6D9D"/>
<path d="M243.966 42.814V321.431H184.251V76.4038L243.966 42.814Z" fill="#C7CEEA"/>
<path d="M243.963 105.232H184.251V112.095H243.963V105.232Z" fill="#F37588"/>
<path d="M243.963 118.272H184.251V125.134H243.963V118.272Z" fill="#F37588"/>
<path d="M243.963 131.312H184.251V138.175H243.963V131.312Z" fill="#F37588"/>
<path d="M243.963 144.352H184.251V151.215H243.963V144.352Z" fill="#F37588"/>
<path d="M243.963 157.392H184.251V164.255H243.963V157.392Z" fill="#F37588"/>
<path d="M243.963 170.435H184.251V177.298H243.963V170.435Z" fill="#F37588"/>
<path d="M243.963 183.475H184.251V190.338H243.963V183.475Z" fill="#F37588"/>
<path d="M243.963 196.515H184.251V203.378H243.963V196.515Z" fill="#F37588"/>
<path d="M243.963 209.556H184.251V216.419H243.963V209.556Z" fill="#F37588"/>
<path d="M243.963 222.596H184.251V229.459H243.963V222.596Z" fill="#F37588"/>
<path d="M243.963 235.639H184.251V242.501H243.963V235.639Z" fill="#F37588"/>
<path d="M243.963 248.679H184.251V255.541H243.963V248.679Z" fill="#F37588"/>
<path d="M1429.53 59.2458H1332.75V321.431H1429.53V59.2458Z" fill="#C7CEEA"/>
<path d="M1420.6 81.2078H1340.3V87.3851H1420.6V81.2078Z" fill="#BF6D9D"/>
<path d="M1420.6 95.6216H1340.3V101.799H1420.6V95.6216Z" fill="#BF6D9D"/>
<path d="M1420.6 110.036H1340.3V116.213H1420.6V110.036Z" fill="#BF6D9D"/>
<path d="M1420.6 124.449H1340.3V130.627H1420.6V124.449Z" fill="#BF6D9D"/>
<path d="M1420.6 138.864H1340.3V145.041H1420.6V138.864Z" fill="#BF6D9D"/>
<path d="M1420.6 153.274H1340.3V159.452H1420.6V153.274Z" fill="#BF6D9D"/>
<path d="M1420.6 167.688H1340.3V173.865H1420.6V167.688Z" fill="#BF6D9D"/>
<path d="M1420.6 182.102H1340.3V188.279H1420.6V182.102Z" fill="#BF6D9D"/>
<path d="M1420.6 196.516H1340.3V202.693H1420.6V196.516Z" fill="#BF6D9D"/>
<path d="M1420.6 210.929H1340.3V217.107H1420.6V210.929Z" fill="#BF6D9D"/>
<path d="M1420.6 225.343H1340.3V231.521H1420.6V225.343Z" fill="#BF6D9D"/>
<path d="M1420.6 239.757H1340.3V245.935H1420.6V239.757Z" fill="#BF6D9D"/>
<path d="M1420.6 254.168H1340.3V260.346H1420.6V254.168Z" fill="#BF6D9D"/>
<path d="M1309.41 74.2534H1242.84V321.434H1309.41V74.2534Z" fill="#EDFDFC"/>
<path d="M1242.84 74.2544H1214.01V321.435H1242.84V74.2544Z" fill="#BF6D9D"/>
<path d="M1458.39 122.39H1428.48V321.434H1458.39V122.39Z" fill="#BF6D9D"/>
<path d="M800.517 122.39H733.94V321.434H800.517V122.39Z" fill="#C6E6EC"/>
<path d="M733.94 122.391H716.627V321.434H733.94V122.391Z" fill="#BF6D9D"/>
<path d="M1214.01 39.3398H1168.71V321.431H1214.01V39.3398Z" fill="#EDFDFC"/>
<path d="M1214.01 61.3049H1181.07V68.1677H1214.01V61.3049Z" fill="#C6E6EC"/>
<path d="M1214.01 92.189H1181.07V99.0517H1214.01V92.189Z" fill="#C6E6EC"/>
<path d="M1214.01 123.076H1181.07V129.938H1214.01V123.076Z" fill="#C6E6EC"/>
<path d="M1214.01 153.963H1181.07V160.825H1214.01V153.963Z" fill="#C6E6EC"/>
<path d="M1214.01 184.847H1181.07V191.709H1214.01V184.847Z" fill="#C6E6EC"/>
<path d="M1214.01 215.733H1181.07V222.596H1214.01V215.733Z" fill="#C6E6EC"/>
<path d="M1214.01 246.62H1181.07V253.483H1214.01V246.62Z" fill="#C6E6EC"/>
<path d="M1168.71 39.3408H1093.21V321.432H1168.71V39.3408Z" fill="#C7CEEA"/>
<path d="M1110.37 39.3398H1106.25V321.431H1110.37V39.3398Z" fill="#BF6D9D"/>
<path d="M1126.16 39.3398H1122.04V321.431H1126.16V39.3398Z" fill="#BF6D9D"/>
<path d="M1141.94 39.3398H1137.82V321.431H1141.94V39.3398Z" fill="#BF6D9D"/>
<path d="M1157.73 39.3398H1153.61V321.431H1157.73V39.3398Z" fill="#BF6D9D"/>
<path d="M961.689 83.0471H895.112V321.431H961.689V83.0471Z" fill="#C6E6EC"/>
<path d="M895.112 83.0481H866.284V321.432H895.112V83.0481Z" fill="#BF6D9D"/>
<path d="M866.288 0H820.987V321.431H866.288V0Z" fill="#EDFDFC"/>
<path d="M866.288 21.9617H833.342V28.8244H866.288V21.9617Z" fill="#C6E6EC"/>
<path d="M866.288 52.8484H833.342V59.7111H866.288V52.8484Z" fill="#C6E6EC"/>
<path d="M866.288 83.7354H833.342V90.5981H866.288V83.7354Z" fill="#C6E6EC"/>
<path d="M866.288 114.62H833.342V121.482H866.288V114.62Z" fill="#C6E6EC"/>
<path d="M866.288 145.507H833.342V152.369H866.288V145.507Z" fill="#C6E6EC"/>
<path d="M866.288 176.394H833.342V183.256H866.288V176.394Z" fill="#C6E6EC"/>
<path d="M866.288 207.277H833.342V214.14H866.288V207.277Z" fill="#C6E6EC"/>
<path d="M866.288 238.164H833.342V245.027H866.288V238.164Z" fill="#C6E6EC"/>
<path d="M820.987 0.00170898H745.487V321.433H820.987V0.00170898Z" fill="#C7CEEA"/>
<path d="M762.646 0H758.528V321.431H762.646V0Z" fill="#BF6D9D"/>
<path d="M778.433 0H774.315V321.431H778.433V0Z" fill="#BF6D9D"/>
<path d="M794.218 0H790.1V321.431H794.218V0Z" fill="#BF6D9D"/>
<path d="M810.006 0H805.888V321.431H810.006V0Z" fill="#BF6D9D"/>
<path d="M1130.96 167.688H1054.78V321.431H1130.96V167.688Z" fill="#EDFDFC"/>
<path d="M1128.22 153.963H1054.78V167.691H1128.22V153.963Z" fill="#C7CEEA"/>
<path d="M1054.78 153.963H981.337V167.691H1054.78V153.963Z" fill="#BF6D9D"/>
<path d="M1080.17 196.516H1075.37V321.431H1080.17V196.516Z" fill="#ACDEE7"/>
<path d="M1095.27 196.516H1090.47V321.431H1095.27V196.516Z" fill="#ACDEE7"/>
<path d="M1110.37 196.516H1105.57V321.431H1110.37V196.516Z" fill="#ACDEE7"/>
<path d="M1054.78 167.688H978.593V321.431H1054.78V167.688Z" fill="#C7CEEA"/>
<path d="M1014.28 196.516H1009.48V321.431H1014.28V196.516Z" fill="#F37588"/>
<path d="M1029.38 196.516H1024.58V321.431H1029.38V196.516Z" fill="#F37588"/>
<path d="M1044.48 196.516H1039.68V321.431H1044.48V196.516Z" fill="#F37588"/>
<path d="M1106.94 143.667H1058.21V153.963H1106.94V143.667Z" fill="#C6E6EC"/>
<path d="M1058.21 143.667H1009.48V153.963H1058.21V143.667Z" fill="#F37588"/>
<path d="M1366.44 159.757H1311.48V321.434H1366.44V159.757Z" fill="#EDFDFC"/>
<path d="M1364.46 149.854H1311.48V159.757H1364.46V149.854Z" fill="#C7CEEA"/>
<path d="M1311.48 149.854H1258.5V159.757H1311.48V149.854Z" fill="#BF6D9D"/>
<path d="M1329.8 180.555H1326.33V321.433H1329.8V180.555Z" fill="#ACDEE7"/>
<path d="M1340.69 180.553H1337.23V321.431H1340.69V180.553Z" fill="#ACDEE7"/>
<path d="M1351.59 180.553H1348.12V321.431H1351.59V180.553Z" fill="#ACDEE7"/>
<path d="M1311.48 159.757H1256.52V321.434H1311.48V159.757Z" fill="#ACDEE7"/>
<path d="M1282.27 180.555H1278.8V321.433H1282.27V180.555Z" fill="#BF6D9D"/>
<path d="M1293.16 180.553H1289.69V321.431H1293.16V180.553Z" fill="#BF6D9D"/>
<path d="M1304.05 180.553H1300.59V321.431H1304.05V180.553Z" fill="#BF6D9D"/>
<path d="M1349.11 142.427H1313.95V149.853H1349.11V142.427Z" fill="#C6E6EC"/>
<path d="M1313.96 142.427H1278.8V149.853H1313.96V142.427Z" fill="#F37588"/>
<path d="M956.628 51.6944V30.4177H953.884V51.6944H950.451V18.063H947.706V51.6944H933.981V70.2265H964.179V51.6944H956.628Z" fill="#BF6D9D"/>
<path d="M1006.73 26.9878V321.431H918.878V76.4038L978.593 42.814L1006.73 26.9878Z" fill="#EDFDFC"/>
<path d="M1000.56 105.232H918.878V112.095H1000.56V105.232Z" fill="#BF6D9D"/>
<path d="M1000.56 118.272H918.878V125.134H1000.56V118.272Z" fill="#BF6D9D"/>
<path d="M1000.56 131.312H918.878V138.175H1000.56V131.312Z" fill="#BF6D9D"/>
<path d="M1000.56 144.352H918.878V151.215H1000.56V144.352Z" fill="#BF6D9D"/>
<path d="M1000.56 157.392H918.878V164.255H1000.56V157.392Z" fill="#BF6D9D"/>
<path d="M1000.56 170.435H918.878V177.298H1000.56V170.435Z" fill="#BF6D9D"/>
<path d="M1000.56 183.475H918.878V190.338H1000.56V183.475Z" fill="#BF6D9D"/>
<path d="M1000.56 196.515H918.878V203.378H1000.56V196.515Z" fill="#BF6D9D"/>
<path d="M1000.56 209.556H918.878V216.419H1000.56V209.556Z" fill="#BF6D9D"/>
<path d="M1000.56 222.596H918.878V229.459H1000.56V222.596Z" fill="#BF6D9D"/>
<path d="M1000.56 235.639H918.878V242.501H1000.56V235.639Z" fill="#BF6D9D"/>
<path d="M1000.56 248.679H918.878V255.541H1000.56V248.679Z" fill="#BF6D9D"/>
<path d="M978.593 42.814V321.431H918.878V76.4038L978.593 42.814Z" fill="#C7CEEA"/>
<path d="M978.59 105.232H918.878V112.095H978.59V105.232Z" fill="#F37588"/>
<path d="M978.59 118.272H918.878V125.134H978.59V118.272Z" fill="#F37588"/>
<path d="M978.59 131.312H918.878V138.175H978.59V131.312Z" fill="#F37588"/>
<path d="M978.59 144.352H918.878V151.215H978.59V144.352Z" fill="#F37588"/>
<path d="M978.59 157.392H918.878V164.255H978.59V157.392Z" fill="#F37588"/>
<path d="M978.59 170.435H918.878V177.298H978.59V170.435Z" fill="#F37588"/>
<path d="M978.59 183.475H918.878V190.338H978.59V183.475Z" fill="#F37588"/>
<path d="M978.59 196.515H918.878V203.378H978.59V196.515Z" fill="#F37588"/>
<path d="M978.59 209.556H918.878V216.419H978.59V209.556Z" fill="#F37588"/>
<path d="M978.59 222.596H918.878V229.459H978.59V222.596Z" fill="#F37588"/>
<path d="M978.59 235.639H918.878V242.501H978.59V235.639Z" fill="#F37588"/>
<path d="M978.59 248.679H918.878V255.541H978.59V248.679Z" fill="#F37588"/>
</svg>
