<svg width="11" height="11" viewBox="0 0 11 11" fill="none" xmlns="http://www.w3.org/2000/svg">
<path fill-rule="evenodd" clip-rule="evenodd" d="M9.82388 1.32574C10.1168 1.03285 10.1168 0.557973 9.82388 0.26508C9.53099 -0.0278132 9.05612 -0.0278132 8.76322 0.26508L5.04447 3.98384L1.3266 0.26597C1.03371 -0.0269228 0.558834 -0.0269228 0.265942 0.26597C-0.0269518 0.558864 -0.0269518 1.03374 0.265942 1.32663L3.98381 5.0445L0.26508 8.76322C-0.0278132 9.05612 -0.0278132 9.53099 0.26508 9.82388C0.557973 10.1168 1.03285 10.1168 1.32574 9.82388L5.04447 6.10516L8.76408 9.82477C9.05698 10.1177 9.53185 10.1177 9.82474 9.82477C10.1176 9.53188 10.1176 9.05701 9.82474 8.76411L6.10513 5.0445L9.82388 1.32574Z" fill="#EEEEEE"/>
</svg>
