<svg width="1440" height="255" viewBox="0 0 1440 255" fill="none" xmlns="http://www.w3.org/2000/svg">
<path d="M694.899 59.2458H598.123V321.431H694.899V59.2458Z" fill="#C7CEEA"/>
<path d="M685.974 81.2078H605.671V87.3851H685.974V81.2078Z" fill="#BF6D9D"/>
<path d="M685.973 95.6218H605.67V101.799H685.973V95.6218Z" fill="#BF6D9D"/>
<path d="M685.973 110.036H605.67V116.213H685.973V110.036Z" fill="#BF6D9D"/>
<path d="M685.973 124.45H605.67V130.627H685.973V124.45Z" fill="#BF6D9D"/>
<path d="M685.973 138.864H605.67V145.041H685.973V138.864Z" fill="#BF6D9D"/>
<path d="M685.973 153.274H605.67V159.452H685.973V153.274Z" fill="#BF6D9D"/>
<path d="M685.973 167.688H605.67V173.866H685.973V167.688Z" fill="#BF6D9D"/>
<path d="M685.973 182.102H605.67V188.28H685.973V182.102Z" fill="#BF6D9D"/>
<path d="M685.973 196.516H605.67V202.693H685.973V196.516Z" fill="#BF6D9D"/>
<path d="M685.973 210.93H605.67V217.107H685.973V210.93Z" fill="#BF6D9D"/>
<path d="M685.973 225.344H605.67V231.521H685.973V225.344Z" fill="#BF6D9D"/>
<path d="M685.973 239.758H605.67V245.935H685.973V239.758Z" fill="#BF6D9D"/>
<path d="M685.973 254.168H605.67V260.346H685.973V254.168Z" fill="#BF6D9D"/>
<path d="M574.788 74.2534H508.21V321.434H574.788V74.2534Z" fill="#EDFDFC"/>
<path d="M508.213 74.2544H479.386V321.435H508.213V74.2544Z" fill="#BF6D9D"/>
<path d="M723.759 122.39H693.857V321.434H723.759V122.39Z" fill="#BF6D9D"/>
<path d="M65.8904 122.39H-0.687012V321.434H65.8904V122.39Z" fill="#C6E6EC"/>
<path d="M479.385 39.3398H434.084V321.431H479.385V39.3398Z" fill="#EDFDFC"/>
<path d="M479.385 61.3049H446.439V68.1677H479.385V61.3049Z" fill="#C6E6EC"/>
<path d="M479.385 92.189H446.439V99.0517H479.385V92.189Z" fill="#C6E6EC"/>
<path d="M479.385 123.076H446.439V129.938H479.385V123.076Z" fill="#C6E6EC"/>
<path d="M479.385 153.963H446.439V160.825H479.385V153.963Z" fill="#C6E6EC"/>
<path d="M479.385 184.847H446.439V191.709H479.385V184.847Z" fill="#C6E6EC"/>
<path d="M479.385 215.733H446.439V222.596H479.385V215.733Z" fill="#C6E6EC"/>
<path d="M479.385 246.62H446.439V253.483H479.385V246.62Z" fill="#C6E6EC"/>
<path d="M434.085 39.3408H358.585V321.432H434.085V39.3408Z" fill="#C7CEEA"/>
<path d="M375.744 39.3398H371.625V321.431H375.744V39.3398Z" fill="#BF6D9D"/>
<path d="M391.532 39.3398H387.414V321.431H391.532V39.3398Z" fill="#BF6D9D"/>
<path d="M407.316 39.3398H403.198V321.431H407.316V39.3398Z" fill="#BF6D9D"/>
<path d="M423.104 39.3398H418.986V321.431H423.104V39.3398Z" fill="#BF6D9D"/>
<path d="M227.062 83.0471H160.485V321.431H227.062V83.0471Z" fill="#C6E6EC"/>
<path d="M160.485 83.0481H131.657V321.432H160.485V83.0481Z" fill="#BF6D9D"/>
<path d="M131.66 0H86.3594V321.431H131.66V0Z" fill="#EDFDFC"/>
<path d="M131.661 21.9619H98.7151V28.8247H131.661V21.9619Z" fill="#C6E6EC"/>
<path d="M131.661 52.8486H98.7146V59.7114H131.661V52.8486Z" fill="#C6E6EC"/>
<path d="M131.661 83.7356H98.7146V90.5984H131.661V83.7356Z" fill="#C6E6EC"/>
<path d="M131.661 114.62H98.7146V121.482H131.661V114.62Z" fill="#C6E6EC"/>
<path d="M131.661 145.507H98.7146V152.369H131.661V145.507Z" fill="#C6E6EC"/>
<path d="M131.661 176.394H98.7146V183.256H131.661V176.394Z" fill="#C6E6EC"/>
<path d="M131.661 207.277H98.7146V214.14H131.661V207.277Z" fill="#C6E6EC"/>
<path d="M131.661 238.164H98.7146V245.027H131.661V238.164Z" fill="#C6E6EC"/>
<path d="M86.3596 0.00170898H10.8604V321.433H86.3596V0.00170898Z" fill="#C7CEEA"/>
<path d="M28.0189 0H23.9006V321.431H28.0189V0Z" fill="#BF6D9D"/>
<path d="M43.8067 0H39.6885V321.431H43.8067V0Z" fill="#BF6D9D"/>
<path d="M59.5912 0H55.4729V321.431H59.5912V0Z" fill="#BF6D9D"/>
<path d="M75.3787 0H71.2605V321.431H75.3787V0Z" fill="#BF6D9D"/>
<path d="M396.336 167.688H320.151V321.431H396.336V167.688Z" fill="#EDFDFC"/>
<path d="M393.591 153.963H320.151V167.691H393.591V153.963Z" fill="#C7CEEA"/>
<path d="M320.151 153.963H246.71V167.691H320.151V153.963Z" fill="#BF6D9D"/>
<path d="M345.545 196.516H340.742V321.431H345.545V196.516Z" fill="#ACDEE7"/>
<path d="M360.645 196.516H355.842V321.431H360.645V196.516Z" fill="#ACDEE7"/>
<path d="M375.744 196.516H370.94V321.431H375.744V196.516Z" fill="#ACDEE7"/>
<path d="M320.15 167.688H243.966V321.431H320.15V167.688Z" fill="#C7CEEA"/>
<path d="M279.653 196.516H274.849V321.431H279.653V196.516Z" fill="#F37588"/>
<path d="M294.755 196.516H289.952V321.431H294.755V196.516Z" fill="#F37588"/>
<path d="M309.854 196.516H305.051V321.431H309.854V196.516Z" fill="#F37588"/>
<path d="M372.314 143.667H323.583V153.963H372.314V143.667Z" fill="#C6E6EC"/>
<path d="M323.58 143.667H274.849V153.963H323.58V143.667Z" fill="#F37588"/>
<path d="M631.814 159.757H576.853V321.434H631.814V159.757Z" fill="#EDFDFC"/>
<path d="M629.832 149.854H576.853V159.757H629.832V149.854Z" fill="#C7CEEA"/>
<path d="M576.852 149.854H523.873V159.757H576.852V149.854Z" fill="#BF6D9D"/>
<path d="M595.171 180.555H591.705V321.433H595.171V180.555Z" fill="#ACDEE7"/>
<path d="M606.066 180.553H602.601V321.431H606.066V180.553Z" fill="#ACDEE7"/>
<path d="M616.958 180.553H613.493V321.431H616.958V180.553Z" fill="#ACDEE7"/>
<path d="M576.853 159.757H521.891V321.434H576.853V159.757Z" fill="#ACDEE7"/>
<path d="M547.639 180.555H544.173V321.433H547.639V180.555Z" fill="#BF6D9D"/>
<path d="M558.53 180.553H555.065V321.431H558.53V180.553Z" fill="#BF6D9D"/>
<path d="M569.425 180.553H565.96V321.431H569.425V180.553Z" fill="#BF6D9D"/>
<path d="M614.483 142.427H579.327V149.853H614.483V142.427Z" fill="#C6E6EC"/>
<path d="M579.33 142.427H544.173V149.853H579.33V142.427Z" fill="#F37588"/>
<path d="M222.001 51.6944V30.4177H219.256V51.6944H215.824V18.063H213.079V51.6944H199.354V70.2265H229.552V51.6944H222.001Z" fill="#BF6D9D"/>
<path d="M272.105 26.9878V321.431H184.251V76.4038L243.966 42.814L272.105 26.9878Z" fill="#EDFDFC"/>
<path d="M265.928 105.232H184.251V112.095H265.928V105.232Z" fill="#BF6D9D"/>
<path d="M265.928 118.272H184.251V125.134H265.928V118.272Z" fill="#BF6D9D"/>
<path d="M265.928 131.312H184.251V138.175H265.928V131.312Z" fill="#BF6D9D"/>
<path d="M265.928 144.352H184.251V151.215H265.928V144.352Z" fill="#BF6D9D"/>
<path d="M265.928 157.392H184.251V164.255H265.928V157.392Z" fill="#BF6D9D"/>
<path d="M265.928 170.435H184.251V177.298H265.928V170.435Z" fill="#BF6D9D"/>
<path d="M265.928 183.475H184.251V190.338H265.928V183.475Z" fill="#BF6D9D"/>
<path d="M265.928 196.515H184.251V203.378H265.928V196.515Z" fill="#BF6D9D"/>
<path d="M265.928 209.556H184.251V216.419H265.928V209.556Z" fill="#BF6D9D"/>
<path d="M265.928 222.596H184.251V229.459H265.928V222.596Z" fill="#BF6D9D"/>
<path d="M265.928 235.639H184.251V242.501H265.928V235.639Z" fill="#BF6D9D"/>
<path d="M265.928 248.679H184.251V255.541H265.928V248.679Z" fill="#BF6D9D"/>
<path d="M243.966 42.814V321.431H184.251V76.4038L243.966 42.814Z" fill="#C7CEEA"/>
<path d="M243.963 105.232H184.251V112.095H243.963V105.232Z" fill="#F37588"/>
<path d="M243.963 118.272H184.251V125.134H243.963V118.272Z" fill="#F37588"/>
<path d="M243.963 131.312H184.251V138.175H243.963V131.312Z" fill="#F37588"/>
<path d="M243.963 144.352H184.251V151.215H243.963V144.352Z" fill="#F37588"/>
<path d="M243.963 157.392H184.251V164.255H243.963V157.392Z" fill="#F37588"/>
<path d="M243.963 170.435H184.251V177.298H243.963V170.435Z" fill="#F37588"/>
<path d="M243.963 183.475H184.251V190.338H243.963V183.475Z" fill="#F37588"/>
<path d="M243.963 196.515H184.251V203.378H243.963V196.515Z" fill="#F37588"/>
<path d="M243.963 209.556H184.251V216.419H243.963V209.556Z" fill="#F37588"/>
<path d="M243.963 222.596H184.251V229.459H243.963V222.596Z" fill="#F37588"/>
<path d="M243.963 235.639H184.251V242.501H243.963V235.639Z" fill="#F37588"/>
<path d="M243.963 248.679H184.251V255.541H243.963V248.679Z" fill="#F37588"/>
<path d="M1429.53 59.2458H1332.75V321.431H1429.53V59.2458Z" fill="#C7CEEA"/>
<path d="M1420.6 81.2078H1340.3V87.3851H1420.6V81.2078Z" fill="#BF6D9D"/>
<path d="M1420.6 95.6216H1340.3V101.799H1420.6V95.6216Z" fill="#BF6D9D"/>
<path d="M1420.6 110.036H1340.3V116.213H1420.6V110.036Z" fill="#BF6D9D"/>
<path d="M1420.6 124.449H1340.3V130.627H1420.6V124.449Z" fill="#BF6D9D"/>
<path d="M1420.6 138.864H1340.3V145.041H1420.6V138.864Z" fill="#BF6D9D"/>
<path d="M1420.6 153.274H1340.3V159.452H1420.6V153.274Z" fill="#BF6D9D"/>
<path d="M1420.6 167.688H1340.3V173.865H1420.6V167.688Z" fill="#BF6D9D"/>
<path d="M1420.6 182.102H1340.3V188.279H1420.6V182.102Z" fill="#BF6D9D"/>
<path d="M1420.6 196.516H1340.3V202.693H1420.6V196.516Z" fill="#BF6D9D"/>
<path d="M1420.6 210.929H1340.3V217.107H1420.6V210.929Z" fill="#BF6D9D"/>
<path d="M1420.6 225.343H1340.3V231.521H1420.6V225.343Z" fill="#BF6D9D"/>
<path d="M1420.6 239.757H1340.3V245.935H1420.6V239.757Z" fill="#BF6D9D"/>
<path d="M1420.6 254.168H1340.3V260.346H1420.6V254.168Z" fill="#BF6D9D"/>
<path d="M1309.41 74.2534H1242.84V321.434H1309.41V74.2534Z" fill="#EDFDFC"/>
<path d="M1242.84 74.2544H1214.01V321.435H1242.84V74.2544Z" fill="#BF6D9D"/>
<path d="M1458.39 122.39H1428.48V321.434H1458.39V122.39Z" fill="#BF6D9D"/>
<path d="M800.517 122.39H733.94V321.434H800.517V122.39Z" fill="#C6E6EC"/>
<path d="M733.94 122.391H716.627V321.434H733.94V122.391Z" fill="#BF6D9D"/>
<path d="M1214.01 39.3398H1168.71V321.431H1214.01V39.3398Z" fill="#EDFDFC"/>
<path d="M1214.01 61.3049H1181.07V68.1677H1214.01V61.3049Z" fill="#C6E6EC"/>
<path d="M1214.01 92.189H1181.07V99.0517H1214.01V92.189Z" fill="#C6E6EC"/>
<path d="M1214.01 123.076H1181.07V129.938H1214.01V123.076Z" fill="#C6E6EC"/>
<path d="M1214.01 153.963H1181.07V160.825H1214.01V153.963Z" fill="#C6E6EC"/>
<path d="M1214.01 184.847H1181.07V191.709H1214.01V184.847Z" fill="#C6E6EC"/>
<path d="M1214.01 215.733H1181.07V222.596H1214.01V215.733Z" fill="#C6E6EC"/>
<path d="M1214.01 246.62H1181.07V253.483H1214.01V246.62Z" fill="#C6E6EC"/>
<path d="M1168.71 39.3408H1093.21V321.432H1168.71V39.3408Z" fill="#C7CEEA"/>
<path d="M1110.37 39.3398H1106.25V321.431H1110.37V39.3398Z" fill="#BF6D9D"/>
<path d="M1126.16 39.3398H1122.04V321.431H1126.16V39.3398Z" fill="#BF6D9D"/>
<path d="M1141.94 39.3398H1137.82V321.431H1141.94V39.3398Z" fill="#BF6D9D"/>
<path d="M1157.73 39.3398H1153.61V321.431H1157.73V39.3398Z" fill="#BF6D9D"/>
<path d="M961.689 83.0471H895.112V321.431H961.689V83.0471Z" fill="#C6E6EC"/>
<path d="M895.112 83.0481H866.284V321.432H895.112V83.0481Z" fill="#BF6D9D"/>
<path d="M866.288 0H820.987V321.431H866.288V0Z" fill="#EDFDFC"/>
<path d="M866.288 21.9617H833.342V28.8244H866.288V21.9617Z" fill="#C6E6EC"/>
<path d="M866.288 52.8484H833.342V59.7111H866.288V52.8484Z" fill="#C6E6EC"/>
<path d="M866.288 83.7354H833.342V90.5981H866.288V83.7354Z" fill="#C6E6EC"/>
<path d="M866.288 114.62H833.342V121.482H866.288V114.62Z" fill="#C6E6EC"/>
<path d="M866.288 145.507H833.342V152.369H866.288V145.507Z" fill="#C6E6EC"/>
<path d="M866.288 176.394H833.342V183.256H866.288V176.394Z" fill="#C6E6EC"/>
<path d="M866.288 207.277H833.342V214.14H866.288V207.277Z" fill="#C6E6EC"/>
<path d="M866.288 238.164H833.342V245.027H866.288V238.164Z" fill="#C6E6EC"/>
<path d="M820.987 0.00170898H745.487V321.433H820.987V0.00170898Z" fill="#C7CEEA"/>
<path d="M762.646 0H758.528V321.431H762.646V0Z" fill="#BF6D9D"/>
<path d="M778.433 0H774.315V321.431H778.433V0Z" fill="#BF6D9D"/>
<path d="M794.218 0H790.1V321.431H794.218V0Z" fill="#BF6D9D"/>
<path d="M810.006 0H805.888V321.431H810.006V0Z" fill="#BF6D9D"/>
<path d="M1130.96 167.688H1054.78V321.431H1130.96V167.688Z" fill="#EDFDFC"/>
<path d="M1128.22 153.963H1054.78V167.691H1128.22V153.963Z" fill="#C7CEEA"/>
<path d="M1054.78 153.963H981.337V167.691H1054.78V153.963Z" fill="#BF6D9D"/>
<path d="M1080.17 196.516H1075.37V321.431H1080.17V196.516Z" fill="#ACDEE7"/>
<path d="M1095.27 196.516H1090.47V321.431H1095.27V196.516Z" fill="#ACDEE7"/>
<path d="M1110.37 196.516H1105.57V321.431H1110.37V196.516Z" fill="#ACDEE7"/>
<path d="M1054.78 167.688H978.593V321.431H1054.78V167.688Z" fill="#C7CEEA"/>
<path d="M1014.28 196.516H1009.48V321.431H1014.28V196.516Z" fill="#F37588"/>
<path d="M1029.38 196.516H1024.58V321.431H1029.38V196.516Z" fill="#F37588"/>
<path d="M1044.48 196.516H1039.68V321.431H1044.48V196.516Z" fill="#F37588"/>
<path d="M1106.94 143.667H1058.21V153.963H1106.94V143.667Z" fill="#C6E6EC"/>
<path d="M1058.21 143.667H1009.48V153.963H1058.21V143.667Z" fill="#F37588"/>
<path d="M1366.44 159.757H1311.48V321.434H1366.44V159.757Z" fill="#EDFDFC"/>
<path d="M1364.46 149.854H1311.48V159.757H1364.46V149.854Z" fill="#C7CEEA"/>
<path d="M1311.48 149.854H1258.5V159.757H1311.48V149.854Z" fill="#BF6D9D"/>
<path d="M1329.8 180.555H1326.33V321.433H1329.8V180.555Z" fill="#ACDEE7"/>
<path d="M1340.69 180.553H1337.23V321.431H1340.69V180.553Z" fill="#ACDEE7"/>
<path d="M1351.59 180.553H1348.12V321.431H1351.59V180.553Z" fill="#ACDEE7"/>
<path d="M1311.48 159.757H1256.52V321.434H1311.48V159.757Z" fill="#ACDEE7"/>
<path d="M1282.27 180.555H1278.8V321.433H1282.27V180.555Z" fill="#BF6D9D"/>
<path d="M1293.16 180.553H1289.69V321.431H1293.16V180.553Z" fill="#BF6D9D"/>
<path d="M1304.05 180.553H1300.59V321.431H1304.05V180.553Z" fill="#BF6D9D"/>
<path d="M1349.11 142.427H1313.95V149.853H1349.11V142.427Z" fill="#C6E6EC"/>
<path d="M1313.96 142.427H1278.8V149.853H1313.96V142.427Z" fill="#F37588"/>
<path d="M956.628 51.6944V30.4177H953.884V51.6944H950.451V18.063H947.706V51.6944H933.981V70.2265H964.179V51.6944H956.628Z" fill="#BF6D9D"/>
<path d="M1006.73 26.9878V321.431H918.878V76.4038L978.593 42.814L1006.73 26.9878Z" fill="#EDFDFC"/>
<path d="M1000.56 105.232H918.878V112.095H1000.56V105.232Z" fill="#BF6D9D"/>
<path d="M1000.56 118.272H918.878V125.134H1000.56V118.272Z" fill="#BF6D9D"/>
<path d="M1000.56 131.312H918.878V138.175H1000.56V131.312Z" fill="#BF6D9D"/>
<path d="M1000.56 144.352H918.878V151.215H1000.56V144.352Z" fill="#BF6D9D"/>
<path d="M1000.56 157.392H918.878V164.255H1000.56V157.392Z" fill="#BF6D9D"/>
<path d="M1000.56 170.435H918.878V177.298H1000.56V170.435Z" fill="#BF6D9D"/>
<path d="M1000.56 183.475H918.878V190.338H1000.56V183.475Z" fill="#BF6D9D"/>
<path d="M1000.56 196.515H918.878V203.378H1000.56V196.515Z" fill="#BF6D9D"/>
<path d="M1000.56 209.556H918.878V216.419H1000.56V209.556Z" fill="#BF6D9D"/>
<path d="M1000.56 222.596H918.878V229.459H1000.56V222.596Z" fill="#BF6D9D"/>
<path d="M1000.56 235.639H918.878V242.501H1000.56V235.639Z" fill="#BF6D9D"/>
<path d="M1000.56 248.679H918.878V255.541H1000.56V248.679Z" fill="#BF6D9D"/>
<path d="M978.593 42.814V321.431H918.878V76.4038L978.593 42.814Z" fill="#C7CEEA"/>
<path d="M978.59 105.232H918.878V112.095H978.59V105.232Z" fill="#F37588"/>
<path d="M978.59 118.272H918.878V125.134H978.59V118.272Z" fill="#F37588"/>
<path d="M978.59 131.312H918.878V138.175H978.59V131.312Z" fill="#F37588"/>
<path d="M978.59 144.352H918.878V151.215H978.59V144.352Z" fill="#F37588"/>
<path d="M978.59 157.392H918.878V164.255H978.59V157.392Z" fill="#F37588"/>
<path d="M978.59 170.435H918.878V177.298H978.59V170.435Z" fill="#F37588"/>
<path d="M978.59 183.475H918.878V190.338H978.59V183.475Z" fill="#F37588"/>
<path d="M978.59 196.515H918.878V203.378H978.59V196.515Z" fill="#F37588"/>
<path d="M978.59 209.556H918.878V216.419H978.59V209.556Z" fill="#F37588"/>
<path d="M978.59 222.596H918.878V229.459H978.59V222.596Z" fill="#F37588"/>
<path d="M978.59 235.639H918.878V242.501H978.59V235.639Z" fill="#F37588"/>
<path d="M978.59 248.679H918.878V255.541H978.59V248.679Z" fill="#F37588"/>
<path d="M575.073 347.975C574.479 346.42 573.506 345.043 572.244 343.954C557.447 331.248 461.572 249.68 433.67 245.389C426.182 244.237 420.676 244.047 416.667 244.301C409.553 244.756 402.584 242.204 397.538 237.17C378.962 218.634 332.686 181.35 266.918 189.005C251.343 190.819 235.866 184.581 225.855 172.514C204.572 146.864 162.443 109.701 106.882 127.614C91.5896 132.545 74.9202 129.527 62.2713 119.631C45.7113 106.677 24.117 97.5242 18.9561 131.923V363.763H566.536C573.575 363.763 578.425 356.707 575.902 350.135L575.073 347.975Z" fill="#9CCA4B"/>
<path d="M0 363.757H539.09C546.302 363.757 551.163 356.373 548.3 349.749C547.695 348.349 546.785 347.111 545.628 346.114C531.406 333.897 434.892 251.714 406.886 247.405C399.398 246.253 393.892 246.063 389.883 246.317C382.769 246.772 375.8 244.22 370.754 239.186C352.178 220.65 305.902 183.366 240.134 191.021C224.559 192.835 209.082 186.597 199.071 174.53C177.788 148.88 135.66 111.717 80.0986 129.631C64.8058 134.561 48.1363 131.543 35.4874 121.647C23.6102 112.356 9.14112 105.018 0 114.315L0 363.757Z" fill="#435A26"/>
<path d="M273.26 209.389C275.168 209.389 276.716 207.842 276.716 205.933C276.716 204.024 275.168 202.477 273.26 202.477C271.351 202.477 269.804 204.024 269.804 205.933C269.804 207.842 271.351 209.389 273.26 209.389Z" fill="#BF6D9D"/>
<path d="M61.3784 168.124C63.2871 168.124 64.8344 166.577 64.8344 164.668C64.8344 162.76 63.2871 161.212 61.3784 161.212C59.4697 161.212 57.9224 162.76 57.9224 164.668C57.9224 166.577 59.4697 168.124 61.3784 168.124Z" fill="#BF6D9D"/>
<path d="M81.7055 219.245C83.6142 219.245 85.1615 217.697 85.1615 215.789C85.1615 213.88 83.6142 212.333 81.7055 212.333C79.7968 212.333 78.2495 213.88 78.2495 215.789C78.2495 217.697 79.7968 219.245 81.7055 219.245Z" fill="#BF6D9D"/>
<path d="M150.624 214.112C152.533 214.112 154.08 212.565 154.08 210.656C154.08 208.747 152.533 207.2 150.624 207.2C148.715 207.2 147.168 208.747 147.168 210.656C147.168 212.565 148.715 214.112 150.624 214.112Z" fill="#BF6D9D"/>
<path d="M255.859 248.194L254.315 243.569C254.079 242.861 253.106 242.791 252.772 243.46L250.456 248.096C250.312 248.379 250.024 248.563 249.707 248.563H247.19C246.286 248.563 246.021 249.79 246.845 250.164L249.074 251.178C249.414 251.333 249.615 251.696 249.558 252.071L248.89 256.396C248.769 257.197 249.736 257.692 250.312 257.116L253.054 254.375C253.394 254.035 253.953 254.052 254.275 254.409L256.02 256.373C256.602 257.03 257.674 256.466 257.46 255.613L256.798 252.964C256.671 252.462 257.023 251.973 257.535 251.927L259.523 251.748C260.392 251.668 260.577 250.475 259.77 250.135L256.337 248.707C256.107 248.615 255.934 248.425 255.859 248.194Z" fill="#BF6D9D"/>
<path d="M109.578 243.742L111.122 239.117C111.358 238.408 112.332 238.339 112.666 239.007L114.981 243.644C115.125 243.926 115.413 244.111 115.73 244.111H118.247C119.151 244.111 119.416 245.337 118.593 245.712L116.363 246.726C116.024 246.881 115.822 247.244 115.88 247.618L116.548 251.944C116.669 252.745 115.701 253.24 115.125 252.664L112.383 249.922C112.043 249.582 111.485 249.6 111.162 249.957L109.417 251.921C108.835 252.578 107.764 252.013 107.977 251.161L108.639 248.511C108.766 248.01 108.415 247.52 107.902 247.474L105.915 247.296C105.045 247.215 104.861 246.023 105.667 245.683L109.1 244.255C109.331 244.157 109.503 243.972 109.578 243.742Z" fill="#BF6D9D"/>
<path d="M101.992 180.048L103.536 175.422C103.772 174.714 104.745 174.645 105.085 175.313L107.401 179.95C107.545 180.232 107.833 180.416 108.15 180.416H110.667C111.571 180.416 111.836 181.643 111.012 182.018L108.783 183.031C108.443 183.187 108.242 183.55 108.299 183.924L108.967 188.25C109.088 189.051 108.121 189.546 107.545 188.97L104.803 186.228C104.463 185.888 103.904 185.906 103.582 186.263L101.837 188.227C101.255 188.884 100.183 188.319 100.397 187.467L101.059 184.817C101.186 184.316 100.834 183.826 100.322 183.78L98.3345 183.602C97.4648 183.521 97.2805 182.329 98.0869 181.989L101.52 180.56C101.739 180.468 101.912 180.278 101.992 180.048Z" fill="#BF6D9D"/>
<path d="M29.1799 242.377L30.7236 237.751C30.9597 237.043 31.9332 236.974 32.273 237.642L34.5885 242.279C34.7325 242.561 35.0205 242.745 35.3373 242.745H37.8544C38.7588 242.745 39.0237 243.972 38.2 244.347L35.9709 245.36C35.6311 245.516 35.4295 245.879 35.4871 246.253L36.1552 250.579C36.2762 251.38 35.3085 251.875 34.7325 251.299L31.9908 248.557C31.6509 248.217 31.0922 248.235 30.7696 248.592L29.0244 250.556C28.4426 251.212 27.3712 250.648 27.5844 249.796L28.2468 247.146C28.3735 246.645 28.0221 246.155 27.5095 246.109L25.5223 245.931C24.6525 245.85 24.4682 244.658 25.2746 244.318L28.7076 242.889C28.9322 242.791 29.105 242.607 29.1799 242.377Z" fill="#BF6D9D"/>
<path d="M18.8408 146.79L20.3844 142.164C20.6206 141.456 21.594 141.387 21.9339 142.055L24.2494 146.692C24.3934 146.974 24.6814 147.158 24.9982 147.158H27.5153C28.4196 147.158 28.6846 148.385 27.8609 148.759L25.6318 149.773C25.292 149.929 25.0904 150.292 25.148 150.666L25.8161 154.992C25.9371 155.792 24.9694 156.288 24.3934 155.712L21.6516 152.97C21.3118 152.63 20.7531 152.647 20.4305 153.005L18.6852 154.969C18.1035 155.625 17.0321 155.061 17.2452 154.208L17.9076 151.559C18.0344 151.058 17.683 150.568 17.1704 150.522L15.1832 150.343C14.3134 150.263 14.1291 149.07 14.9355 148.731L18.3684 147.302C18.5931 147.204 18.7659 147.02 18.8408 146.79Z" fill="#BF6D9D"/>
<path d="M320.659 233.788L322.203 229.163C322.439 228.455 323.412 228.386 323.746 229.054L326.062 233.691C326.206 233.973 326.494 234.157 326.811 234.157H329.328C330.232 234.157 330.497 235.384 329.673 235.758L327.444 236.772C327.104 236.928 326.903 237.291 326.96 237.665L327.629 241.991C327.75 242.791 326.782 243.287 326.206 242.711L323.464 239.969C323.124 239.629 322.566 239.646 322.243 240.004L320.498 241.968C319.916 242.624 318.845 242.06 319.058 241.207L319.72 238.558C319.847 238.057 319.495 237.567 318.983 237.521L316.996 237.342C316.126 237.262 315.942 236.069 316.748 235.73L320.181 234.301C320.406 234.209 320.578 234.019 320.659 233.788Z" fill="#BF6D9D"/>
<path d="M199.457 237.74L200.805 236.34L200.39 236.271C199.503 236.121 199.446 234.866 200.316 234.635L202.712 234.002C202.712 233.858 202.683 233.714 202.608 233.581L201.37 231.467C200.915 230.69 201.836 229.837 202.573 230.356L203.8 231.22L204.411 228.276C204.561 227.545 205.523 227.36 205.932 227.988L207.7 230.684L210.073 229.405C210.73 229.048 211.49 229.67 211.277 230.384L210.603 232.631L212.878 232.942C213.748 233.063 213.875 234.261 213.051 234.56L211.179 235.246C210.695 235.424 210.482 235.989 210.73 236.438L212.049 238.828C212.221 239.139 212.17 239.462 212.003 239.698C211.807 240.096 211.3 240.338 210.828 240.067L209.1 239.07C208.656 238.811 208.086 239.013 207.896 239.497L206.916 242.043C206.652 242.722 205.788 242.722 205.442 242.21C204.993 242.78 204.042 242.544 203.962 241.783L203.616 238.564L200.2 239.157C199.405 239.284 198.893 238.322 199.457 237.74Z" fill="#BF6D9D"/>
<path d="M136.552 155.602L137.9 154.202L137.485 154.133C136.598 153.984 136.54 152.728 137.41 152.497L139.806 151.864C139.806 151.72 139.778 151.576 139.703 151.443L138.464 149.329C138.009 148.552 138.931 147.699 139.668 148.218L140.895 149.082L141.506 146.138C141.655 145.407 142.617 145.223 143.026 145.85L144.795 148.546L147.168 147.267C147.824 146.91 148.585 147.532 148.372 148.247L147.698 150.493L149.973 150.804C150.843 150.925 150.969 152.123 150.146 152.423L148.274 153.108C147.79 153.287 147.577 153.851 147.824 154.3L149.143 156.691C149.316 157.002 149.264 157.324 149.097 157.561C148.901 157.958 148.395 158.2 147.922 157.929L146.194 156.933C145.751 156.673 145.18 156.875 144.99 157.359L144.011 159.905C143.746 160.585 142.882 160.585 142.537 160.072C142.087 160.642 141.137 160.406 141.056 159.646L140.711 156.426L137.295 157.019C136.5 157.152 135.988 156.19 136.552 155.602Z" fill="#BF6D9D"/>
<path d="M22.6079 194.407L23.9557 193.007L23.541 192.938C22.654 192.789 22.5964 191.533 23.4661 191.302L25.8623 190.669C25.8623 190.525 25.8335 190.381 25.7586 190.248L24.5202 188.134C24.0652 187.357 24.9868 186.504 25.7241 187.023L26.9509 187.887L27.5615 184.943C27.7113 184.212 28.6732 184.028 29.0821 184.655L30.8505 187.351L33.2236 186.072C33.8802 185.715 34.6405 186.337 34.4274 187.051L33.7535 189.298L36.0287 189.609C36.8985 189.73 37.0252 190.928 36.2015 191.227L34.3295 191.913C33.8457 192.092 33.6325 192.656 33.8802 193.105L35.1993 195.496C35.3721 195.807 35.3202 196.129 35.1532 196.365C34.9573 196.763 34.4505 197.005 33.9781 196.734L32.2501 195.738C31.8066 195.478 31.2364 195.68 31.0463 196.164L30.0671 198.71C29.8021 199.389 28.9381 199.389 28.5925 198.877C28.1433 199.447 27.1929 199.211 27.1122 198.451L26.7666 195.231L23.3509 195.824C22.5561 195.951 22.0434 194.989 22.6079 194.407Z" fill="#BF6D9D"/>
<path d="M57.7151 264.005L59.0629 262.606L58.6482 262.536C57.7612 262.387 57.7036 261.131 58.5733 260.901L60.9695 260.267C60.9695 260.123 60.9407 259.979 60.8658 259.846L59.6274 257.733C59.1724 256.955 60.094 256.102 60.8312 256.621L62.0581 257.485L62.6687 254.542C62.8184 253.81 63.7804 253.626 64.1893 254.254L65.9576 256.949L68.3308 255.67C68.9874 255.313 69.7477 255.935 69.5346 256.65L68.8607 258.896L71.1359 259.207C72.0056 259.328 72.1324 260.526 71.3087 260.826L69.4367 261.511C68.9528 261.69 68.7397 262.254 68.9874 262.703L70.3064 265.094C70.4792 265.405 70.4274 265.727 70.2604 265.964C70.0645 266.361 69.5576 266.603 69.0853 266.332L67.3573 265.336C66.9138 265.077 66.3436 265.278 66.1535 265.762L65.1743 268.308C64.9093 268.988 64.0453 268.988 63.6997 268.475C63.2504 269.045 62.3 268.809 62.2194 268.049L61.8738 264.829L58.4581 265.422C57.6632 265.555 57.1506 264.593 57.7151 264.005Z" fill="#BF6D9D"/>
<path d="M864.927 347.975C865.52 346.42 866.494 345.043 867.755 343.954C882.553 331.248 978.428 249.68 1006.33 245.389C1013.82 244.237 1019.32 244.047 1023.33 244.301C1030.45 244.756 1037.42 242.204 1042.46 237.17C1061.04 218.634 1107.31 181.35 1173.08 189.005C1188.66 190.819 1204.13 184.581 1214.14 172.514C1235.43 146.864 1277.56 109.701 1333.12 127.614C1348.41 132.545 1365.08 129.527 1377.73 119.631C1394.29 106.677 1415.88 97.5242 1421.04 131.923V363.763H873.463C866.425 363.763 861.575 356.707 864.097 350.135L864.927 347.975Z" fill="#9CCA4B"/>
<path d="M1440 363.757H900.91C893.698 363.757 888.837 356.373 891.699 349.749C892.304 348.349 893.214 347.111 894.372 346.114C908.594 333.897 1005.11 251.714 1033.11 247.405C1040.6 246.253 1046.11 246.063 1050.12 246.317C1057.23 246.772 1064.2 244.22 1069.25 239.186C1087.82 220.65 1134.1 183.366 1199.87 191.021C1215.44 192.835 1230.92 186.597 1240.93 174.53C1262.21 148.88 1304.34 111.717 1359.9 129.631C1375.19 134.561 1391.86 131.543 1404.51 121.647C1416.39 112.356 1430.86 105.018 1440 114.315V363.757Z" fill="#435A26"/>
<path d="M1166.74 209.389C1168.65 209.389 1170.2 207.842 1170.2 205.933C1170.2 204.024 1168.65 202.477 1166.74 202.477C1164.83 202.477 1163.28 204.024 1163.28 205.933C1163.28 207.842 1164.83 209.389 1166.74 209.389Z" fill="#BF6D9D"/>
<path d="M1378.62 168.124C1380.53 168.124 1382.08 166.577 1382.08 164.668C1382.08 162.76 1380.53 161.212 1378.62 161.212C1376.71 161.212 1375.17 162.76 1375.17 164.668C1375.17 166.577 1376.71 168.124 1378.62 168.124Z" fill="#BF6D9D"/>
<path d="M1358.29 219.245C1360.2 219.245 1361.75 217.697 1361.75 215.789C1361.75 213.88 1360.2 212.333 1358.29 212.333C1356.38 212.333 1354.84 213.88 1354.84 215.789C1354.84 217.697 1356.38 219.245 1358.29 219.245Z" fill="#BF6D9D"/>
<path d="M1289.38 214.112C1291.28 214.112 1292.83 212.565 1292.83 210.656C1292.83 208.747 1291.28 207.2 1289.38 207.2C1287.47 207.2 1285.92 208.747 1285.92 210.656C1285.92 212.565 1287.47 214.112 1289.38 214.112Z" fill="#BF6D9D"/>
<path d="M1184.14 248.194L1185.68 243.569C1185.92 242.86 1186.89 242.791 1187.23 243.459L1189.55 248.096C1189.69 248.378 1189.98 248.563 1190.3 248.563H1192.82C1193.72 248.563 1193.98 249.79 1193.16 250.164L1190.93 251.178C1190.59 251.333 1190.39 251.696 1190.45 252.07L1191.12 256.396C1191.24 257.197 1190.27 257.692 1189.69 257.116L1186.95 254.374C1186.61 254.035 1186.05 254.052 1185.73 254.409L1183.99 256.373C1183.4 257.03 1182.33 256.465 1182.55 255.613L1183.21 252.963C1183.33 252.462 1182.98 251.973 1182.47 251.926L1180.48 251.748C1179.61 251.667 1179.43 250.475 1180.24 250.135L1183.67 248.707C1183.89 248.614 1184.07 248.424 1184.14 248.194Z" fill="#BF6D9D"/>
<path d="M1330.42 243.741L1328.88 239.116C1328.64 238.408 1327.67 238.339 1327.33 239.007L1325.01 243.643C1324.87 243.926 1324.58 244.11 1324.26 244.11H1321.75C1320.84 244.11 1320.58 245.337 1321.4 245.711L1323.63 246.725C1323.97 246.881 1324.17 247.243 1324.11 247.618L1323.45 251.944C1323.33 252.744 1324.29 253.24 1324.87 252.664L1327.61 249.922C1327.95 249.582 1328.51 249.599 1328.83 249.956L1330.58 251.921C1331.16 252.577 1332.23 252.013 1332.02 251.16L1331.35 248.511C1331.23 248.01 1331.58 247.52 1332.09 247.474L1334.08 247.295C1334.95 247.215 1335.13 246.022 1334.33 245.682L1330.89 244.254C1330.67 244.156 1330.5 243.972 1330.42 243.741Z" fill="#BF6D9D"/>
<path d="M1338.01 180.047L1336.46 175.422C1336.23 174.714 1335.25 174.644 1334.91 175.313L1332.6 179.949C1332.45 180.232 1332.17 180.416 1331.85 180.416H1329.33C1328.43 180.416 1328.16 181.643 1328.99 182.017L1331.22 183.031C1331.56 183.186 1331.76 183.549 1331.7 183.924L1331.03 188.25C1330.91 189.05 1331.88 189.546 1332.45 188.97L1335.2 186.228C1335.54 185.888 1336.09 185.905 1336.42 186.262L1338.16 188.226C1338.74 188.883 1339.82 188.319 1339.6 187.466L1338.94 184.817C1338.81 184.315 1339.16 183.826 1339.68 183.78L1341.66 183.601C1342.53 183.521 1342.72 182.328 1341.91 181.988L1338.48 180.56C1338.26 180.468 1338.09 180.278 1338.01 180.047Z" fill="#BF6D9D"/>
<path d="M1410.82 242.376L1409.28 237.751C1409.04 237.043 1408.07 236.974 1407.73 237.642L1405.42 242.278C1405.27 242.561 1404.98 242.745 1404.67 242.745H1402.15C1401.25 242.745 1400.98 243.972 1401.8 244.346L1404.03 245.36C1404.37 245.516 1404.58 245.878 1404.52 246.253L1403.85 250.579C1403.73 251.379 1404.7 251.875 1405.27 251.299L1408.01 248.557C1408.35 248.217 1408.91 248.234 1409.24 248.591L1410.98 250.556C1411.56 251.212 1412.63 250.648 1412.42 249.795L1411.76 247.146C1411.63 246.645 1411.98 246.155 1412.5 246.109L1414.48 245.93C1415.35 245.85 1415.54 244.657 1414.73 244.318L1411.3 242.889C1411.07 242.791 1410.89 242.607 1410.82 242.376Z" fill="#BF6D9D"/>
<path d="M1421.16 146.789L1419.61 142.164C1419.38 141.455 1418.41 141.386 1418.07 142.054L1415.75 146.691C1415.61 146.974 1415.32 147.158 1415 147.158H1412.48C1411.58 147.158 1411.31 148.385 1412.14 148.759L1414.37 149.773C1414.71 149.928 1414.91 150.291 1414.85 150.666L1414.18 154.991C1414.06 155.792 1415.03 156.287 1415.61 155.711L1418.35 152.97C1418.69 152.63 1419.25 152.647 1419.57 153.004L1421.31 154.968C1421.9 155.625 1422.97 155.061 1422.75 154.208L1422.09 151.558C1421.96 151.057 1422.32 150.568 1422.83 150.522L1424.82 150.343C1425.69 150.262 1425.87 149.07 1425.06 148.73L1421.63 147.302C1421.41 147.204 1421.23 147.02 1421.16 146.789Z" fill="#BF6D9D"/>
<path d="M1119.34 233.788L1117.8 229.163C1117.56 228.455 1116.59 228.386 1116.25 229.054L1113.94 233.691C1113.79 233.973 1113.51 234.157 1113.19 234.157H1110.67C1109.77 234.157 1109.5 235.384 1110.33 235.758L1112.55 236.772C1112.89 236.928 1113.1 237.291 1113.04 237.665L1112.37 241.991C1112.25 242.791 1113.22 243.287 1113.79 242.711L1116.53 239.969C1116.87 239.629 1117.43 239.646 1117.76 240.004L1119.5 241.968C1120.08 242.624 1121.15 242.06 1120.94 241.207L1120.28 238.558C1120.15 238.057 1120.5 237.567 1121.02 237.521L1123 237.342C1123.87 237.262 1124.06 236.069 1123.25 235.73L1119.82 234.301C1119.59 234.209 1119.42 234.019 1119.34 233.788Z" fill="#BF6D9D"/>
<path d="M1240.54 237.74L1239.19 236.34L1239.61 236.271C1240.5 236.121 1240.55 234.865 1239.68 234.635L1237.29 234.001C1237.29 233.857 1237.32 233.713 1237.39 233.581L1238.63 231.467C1239.08 230.689 1238.16 229.837 1237.43 230.355L1236.2 231.219L1235.59 228.276C1235.44 227.544 1234.48 227.36 1234.07 227.988L1232.3 230.684L1229.93 229.405C1229.27 229.048 1228.51 229.67 1228.72 230.384L1229.4 232.63L1227.12 232.941C1226.25 233.062 1226.12 234.261 1226.95 234.56L1228.82 235.245C1229.3 235.424 1229.52 235.989 1229.27 236.438L1227.95 238.828C1227.78 239.139 1227.83 239.462 1228 239.698C1228.19 240.095 1228.7 240.337 1229.17 240.067L1230.9 239.07C1231.34 238.811 1231.91 239.013 1232.1 239.496L1233.08 242.042C1233.35 242.722 1234.21 242.722 1234.56 242.209C1235.01 242.78 1235.96 242.543 1236.04 241.783L1236.38 238.563L1239.8 239.157C1240.59 239.283 1241.11 238.321 1240.54 237.74Z" fill="#BF6D9D"/>
<path d="M1303.45 155.602L1302.1 154.202L1302.51 154.133C1303.4 153.984 1303.46 152.728 1302.59 152.497L1300.19 151.864C1300.19 151.72 1300.22 151.576 1300.3 151.443L1301.53 149.329C1301.99 148.552 1301.07 147.699 1300.33 148.218L1299.1 149.082L1298.49 146.138C1298.34 145.407 1297.38 145.223 1296.97 145.85L1295.2 148.546L1292.83 147.267C1292.17 146.91 1291.41 147.532 1291.63 148.247L1292.3 150.493L1290.03 150.804C1289.16 150.925 1289.03 152.123 1289.85 152.423L1291.73 153.108C1292.21 153.287 1292.42 153.851 1292.17 154.3L1290.86 156.691C1290.68 157.002 1290.73 157.324 1290.9 157.561C1291.1 157.958 1291.6 158.2 1292.08 157.929L1293.8 156.933C1294.25 156.673 1294.82 156.875 1295.01 157.359L1295.99 159.905C1296.25 160.585 1297.12 160.585 1297.46 160.072C1297.91 160.642 1298.86 160.406 1298.94 159.646L1299.29 156.426L1302.7 157.019C1303.5 157.152 1304.01 156.19 1303.45 155.602Z" fill="#BF6D9D"/>
<path d="M1417.39 194.407L1416.04 193.007L1416.46 192.938C1417.35 192.789 1417.4 191.533 1416.53 191.302L1414.14 190.669C1414.14 190.525 1414.17 190.381 1414.24 190.248L1415.48 188.134C1415.93 187.357 1415.01 186.504 1414.28 187.023L1413.05 187.887L1412.44 184.943C1412.29 184.212 1411.33 184.028 1410.92 184.655L1409.15 187.351L1406.78 186.072C1406.12 185.715 1405.36 186.337 1405.57 187.051L1406.25 189.298L1403.97 189.609C1403.1 189.73 1402.97 190.928 1403.8 191.227L1405.67 191.913C1406.15 192.092 1406.37 192.656 1406.12 193.105L1404.8 195.496C1404.63 195.807 1404.68 196.129 1404.85 196.365C1405.04 196.763 1405.55 197.005 1406.02 196.734L1407.75 195.738C1408.19 195.478 1408.76 195.68 1408.95 196.164L1409.93 198.71C1410.2 199.389 1411.06 199.389 1411.41 198.877C1411.86 199.447 1412.81 199.211 1412.89 198.451L1413.23 195.231L1416.65 195.824C1417.44 195.951 1417.96 194.989 1417.39 194.407Z" fill="#BF6D9D"/>
<path d="M1382.28 264.005L1380.94 262.606L1381.35 262.536C1382.24 262.387 1382.3 261.131 1381.43 260.901L1379.03 260.267C1379.03 260.123 1379.06 259.979 1379.13 259.846L1380.37 257.733C1380.83 256.955 1379.9 256.102 1379.17 256.621L1377.94 257.485L1377.33 254.542C1377.18 253.81 1376.22 253.626 1375.81 254.254L1374.04 256.949L1371.67 255.67C1371.01 255.313 1370.25 255.935 1370.46 256.65L1371.14 258.896L1368.86 259.207C1367.99 259.328 1367.87 260.526 1368.69 260.826L1370.56 261.511C1371.05 261.69 1371.26 262.254 1371.01 262.703L1369.69 265.094C1369.52 265.405 1369.57 265.727 1369.74 265.964C1369.93 266.361 1370.44 266.603 1370.91 266.332L1372.64 265.336C1373.09 265.077 1373.66 265.278 1373.85 265.762L1374.82 268.308C1375.09 268.988 1375.95 268.988 1376.3 268.475C1376.75 269.045 1377.7 268.809 1377.78 268.049L1378.13 264.829L1381.54 265.422C1382.34 265.555 1382.85 264.593 1382.28 264.005Z" fill="#BF6D9D"/>
</svg>
