<svg width="577" height="147" viewBox="0 0 577 147" fill="none" xmlns="http://www.w3.org/2000/svg">
<path d="M575.073 239.975C574.479 238.42 573.506 237.043 572.244 235.954C557.447 223.248 461.572 141.68 433.67 137.389C426.182 136.237 420.676 136.047 416.667 136.301C409.553 136.756 402.584 134.204 397.538 129.17C378.962 110.634 332.686 73.3495 266.918 81.0046C251.343 82.819 235.866 76.5809 225.855 64.5137C204.572 38.8644 162.443 1.7009 106.882 19.6145C91.5896 24.5451 74.9202 21.5268 62.2713 11.6311C45.7113 -1.3231 24.117 -10.4758 18.9561 23.923V255.763H566.536C573.575 255.763 578.425 248.707 575.902 242.135L575.073 239.975Z" fill="#9CCA4B"/>
<path d="M0 255.757H539.09C546.301 255.757 551.163 248.373 548.3 241.749C547.695 240.349 546.785 239.111 545.628 238.114C531.406 225.897 434.892 143.714 406.886 139.405C399.398 138.253 393.892 138.063 389.883 138.317C382.769 138.772 375.8 136.22 370.754 131.186C352.178 112.65 305.902 75.3656 240.134 83.0206C224.559 84.835 209.082 78.5969 199.071 66.5297C177.788 40.8804 135.66 3.71694 80.0986 21.6305C64.8058 26.5611 48.1363 23.5429 35.4874 13.6472C23.6102 4.35631 9.14112 -2.98192 0 6.31472L0 255.757Z" fill="#435A26"/>
<path d="M273.26 101.389C275.168 101.389 276.716 99.8417 276.716 97.9331C276.716 96.0244 275.168 94.4771 273.26 94.4771C271.351 94.4771 269.804 96.0244 269.804 97.9331C269.804 99.8417 271.351 101.389 273.26 101.389Z" fill="#BF6D9D"/>
<path d="M61.3784 60.1244C63.2871 60.1244 64.8344 58.5771 64.8344 56.6684C64.8344 54.7597 63.2871 53.2124 61.3784 53.2124C59.4697 53.2124 57.9224 54.7597 57.9224 56.6684C57.9224 58.5771 59.4697 60.1244 61.3784 60.1244Z" fill="#BF6D9D"/>
<path d="M81.7055 111.245C83.6142 111.245 85.1615 109.697 85.1615 107.789C85.1615 105.88 83.6142 104.333 81.7055 104.333C79.7968 104.333 78.2495 105.88 78.2495 107.789C78.2495 109.697 79.7968 111.245 81.7055 111.245Z" fill="#BF6D9D"/>
<path d="M150.624 106.112C152.533 106.112 154.08 104.565 154.08 102.656C154.08 100.747 152.533 99.2002 150.624 99.2002C148.715 99.2002 147.168 100.747 147.168 102.656C147.168 104.565 148.715 106.112 150.624 106.112Z" fill="#BF6D9D"/>
<path d="M255.859 140.194L254.315 135.569C254.079 134.861 253.106 134.791 252.772 135.46L250.456 140.096C250.312 140.379 250.024 140.563 249.707 140.563H247.19C246.286 140.563 246.021 141.79 246.845 142.164L249.074 143.178C249.414 143.333 249.615 143.696 249.558 144.071L248.89 148.396C248.769 149.197 249.736 149.692 250.312 149.116L253.054 146.375C253.394 146.035 253.953 146.052 254.275 146.409L256.02 148.373C256.602 149.03 257.674 148.466 257.46 147.613L256.798 144.964C256.671 144.462 257.023 143.973 257.535 143.927L259.522 143.748C260.392 143.668 260.577 142.475 259.77 142.135L256.337 140.707C256.107 140.615 255.934 140.425 255.859 140.194Z" fill="#BF6D9D"/>
<path d="M109.578 135.742L111.122 131.117C111.358 130.408 112.332 130.339 112.666 131.007L114.981 135.644C115.125 135.926 115.413 136.111 115.73 136.111H118.247C119.151 136.111 119.416 137.337 118.593 137.712L116.363 138.726C116.024 138.881 115.822 139.244 115.88 139.618L116.548 143.944C116.669 144.745 115.701 145.24 115.125 144.664L112.383 141.922C112.043 141.582 111.485 141.6 111.162 141.957L109.417 143.921C108.835 144.578 107.764 144.013 107.977 143.161L108.639 140.511C108.766 140.01 108.415 139.52 107.902 139.474L105.915 139.296C105.045 139.215 104.861 138.023 105.667 137.683L109.1 136.255C109.331 136.157 109.503 135.972 109.578 135.742Z" fill="#BF6D9D"/>
<path d="M101.992 72.0478L103.536 67.4225C103.772 66.714 104.745 66.6449 105.085 67.3131L107.401 71.9498C107.545 72.2321 107.833 72.4164 108.15 72.4164H110.667C111.571 72.4164 111.836 73.6432 111.012 74.0176L108.783 75.0314C108.443 75.1869 108.242 75.5498 108.299 75.9242L108.967 80.25C109.088 81.0506 108.121 81.546 107.545 80.97L104.803 78.2282C104.463 77.8884 103.904 77.9056 103.582 78.2628L101.837 80.2269C101.255 80.8836 100.183 80.3191 100.397 79.4667L101.059 76.8171C101.186 76.3159 100.834 75.8263 100.322 75.7802L98.3345 75.6016C97.4648 75.521 97.2805 74.3287 98.0869 73.9889L101.52 72.5604C101.739 72.4683 101.912 72.2782 101.992 72.0478Z" fill="#BF6D9D"/>
<path d="M29.1799 134.377L30.7236 129.751C30.9597 129.043 31.9332 128.974 32.273 129.642L34.5885 134.279C34.7325 134.561 35.0205 134.745 35.3373 134.745H37.8544C38.7588 134.745 39.0237 135.972 38.2 136.347L35.9709 137.36C35.6311 137.516 35.4295 137.879 35.4871 138.253L36.1552 142.579C36.2762 143.38 35.3085 143.875 34.7325 143.299L31.9908 140.557C31.6509 140.217 31.0922 140.235 30.7696 140.592L29.0244 142.556C28.4426 143.212 27.3712 142.648 27.5844 141.796L28.2468 139.146C28.3735 138.645 28.0221 138.155 27.5095 138.109L25.5223 137.931C24.6525 137.85 24.4682 136.658 25.2746 136.318L28.7076 134.889C28.9322 134.791 29.105 134.607 29.1799 134.377Z" fill="#BF6D9D"/>
<path d="M18.8408 38.7895L20.3844 34.1642C20.6206 33.4557 21.594 33.3866 21.9339 34.0547L24.2494 38.6916C24.3934 38.9738 24.6814 39.1582 24.9982 39.1582H27.5153C28.4196 39.1582 28.6846 40.385 27.8609 40.7594L25.6318 41.7731C25.292 41.9287 25.0904 42.2916 25.148 42.666L25.8161 46.9917C25.9371 47.7924 24.9694 48.2877 24.3934 47.7117L21.6516 44.97C21.3118 44.6301 20.7531 44.6474 20.4305 45.0045L18.6852 46.9687C18.1035 47.6253 17.0321 47.0609 17.2452 46.2084L17.9076 43.5587C18.0344 43.0576 17.683 42.5681 17.1704 42.522L15.1832 42.3434C14.3134 42.2627 14.1291 41.0705 14.9355 40.7306L18.3684 39.3022C18.5931 39.2042 18.7659 39.0199 18.8408 38.7895Z" fill="#BF6D9D"/>
<path d="M320.659 125.788L322.203 121.163C322.439 120.455 323.412 120.386 323.746 121.054L326.062 125.691C326.206 125.973 326.494 126.157 326.811 126.157H329.328C330.232 126.157 330.497 127.384 329.673 127.758L327.444 128.772C327.104 128.928 326.903 129.291 326.96 129.665L327.629 133.991C327.75 134.791 326.782 135.287 326.206 134.711L323.464 131.969C323.124 131.629 322.566 131.646 322.243 132.004L320.498 133.968C319.916 134.624 318.845 134.06 319.058 133.207L319.72 130.558C319.847 130.057 319.495 129.567 318.983 129.521L316.996 129.342C316.126 129.262 315.942 128.069 316.748 127.73L320.181 126.301C320.406 126.209 320.578 126.019 320.659 125.788Z" fill="#BF6D9D"/>
<path d="M199.457 129.74L200.805 128.34L200.39 128.271C199.503 128.121 199.446 126.866 200.316 126.635L202.712 126.002C202.712 125.858 202.683 125.714 202.608 125.581L201.37 123.467C200.915 122.69 201.836 121.837 202.573 122.356L203.8 123.22L204.411 120.276C204.561 119.545 205.523 119.36 205.932 119.988L207.7 122.684L210.073 121.405C210.73 121.048 211.49 121.67 211.277 122.384L210.603 124.631L212.878 124.942C213.748 125.063 213.875 126.261 213.051 126.56L211.179 127.246C210.695 127.424 210.482 127.989 210.73 128.438L212.049 130.828C212.221 131.139 212.17 131.462 212.003 131.698C211.807 132.096 211.3 132.338 210.828 132.067L209.1 131.07C208.656 130.811 208.086 131.013 207.896 131.497L206.916 134.043C206.652 134.722 205.788 134.722 205.442 134.21C204.993 134.78 204.042 134.544 203.962 133.783L203.616 130.564L200.2 131.157C199.405 131.284 198.893 130.322 199.457 129.74Z" fill="#BF6D9D"/>
<path d="M136.552 47.6021L137.9 46.2025L137.485 46.1333C136.598 45.9836 136.54 44.7279 137.41 44.4975L139.806 43.8639C139.806 43.7199 139.778 43.5759 139.703 43.4434L138.464 41.3295C138.009 40.5519 138.931 39.6994 139.668 40.2178L140.895 41.0818L141.506 38.1385C141.655 37.4069 142.617 37.2226 143.026 37.8505L144.795 40.5461L147.168 39.2674C147.824 38.9103 148.585 39.5323 148.372 40.2466L147.698 42.493L149.973 42.804C150.843 42.925 150.969 44.123 150.146 44.4226L148.274 45.108C147.79 45.2866 147.577 45.8511 147.824 46.3003L149.143 48.6907C149.316 49.0018 149.264 49.3244 149.097 49.5605C148.901 49.958 148.395 50.1999 147.922 49.9292L146.194 48.9327C145.751 48.6735 145.18 48.8751 144.99 49.3589L144.011 51.9049C143.746 52.5846 142.882 52.5845 142.537 52.0719C142.087 52.6421 141.137 52.406 141.056 51.6456L140.711 48.4258L137.295 49.0191C136.5 49.1516 135.988 48.1896 136.552 47.6021Z" fill="#BF6D9D"/>
<path d="M22.6079 86.407L23.9557 85.0074L23.541 84.9383C22.654 84.7885 22.5964 83.5328 23.4661 83.3024L25.8623 82.6688C25.8623 82.5248 25.8335 82.3808 25.7586 82.2483L24.5202 80.1344C24.0652 79.3568 24.9868 78.5043 25.7241 79.0227L26.9509 79.8867L27.5615 76.9434C27.7113 76.2119 28.6732 76.0276 29.0821 76.6554L30.8505 79.351L33.2236 78.0723C33.8802 77.7152 34.6405 78.3373 34.4274 79.0515L33.7535 81.2979L36.0287 81.609C36.8985 81.7299 37.0252 82.928 36.2015 83.2275L34.3295 83.913C33.8457 84.0915 33.6325 84.656 33.8802 85.1053L35.1993 87.4957C35.3721 87.8067 35.3202 88.1293 35.1532 88.3654C34.9573 88.7629 34.4505 89.0048 33.9781 88.7341L32.2501 87.7376C31.8066 87.4784 31.2364 87.68 31.0463 88.1639L30.0671 90.7098C29.8021 91.3895 28.9381 91.3894 28.5925 90.8768C28.1433 91.447 27.1929 91.2109 27.1122 90.4506L26.7666 87.2307L23.3509 87.824C22.5561 87.9508 22.0434 86.9888 22.6079 86.407Z" fill="#BF6D9D"/>
<path d="M57.7151 156.005L59.0629 154.606L58.6482 154.536C57.7612 154.387 57.7036 153.131 58.5733 152.901L60.9695 152.267C60.9695 152.123 60.9407 151.979 60.8658 151.846L59.6274 149.733C59.1724 148.955 60.094 148.102 60.8312 148.621L62.0581 149.485L62.6687 146.542C62.8184 145.81 63.7804 145.626 64.1893 146.254L65.9576 148.949L68.3308 147.67C68.9874 147.313 69.7477 147.935 69.5346 148.65L68.8607 150.896L71.1359 151.207C72.0056 151.328 72.1324 152.526 71.3087 152.826L69.4367 153.511C68.9528 153.69 68.7397 154.254 68.9874 154.703L70.3064 157.094C70.4792 157.405 70.4274 157.727 70.2604 157.964C70.0645 158.361 69.5576 158.603 69.0853 158.332L67.3573 157.336C66.9138 157.077 66.3436 157.278 66.1535 157.762L65.1743 160.308C64.9093 160.988 64.0453 160.988 63.6997 160.475C63.2504 161.045 62.3 160.809 62.2194 160.049L61.8738 156.829L58.4581 157.422C57.6632 157.555 57.1506 156.593 57.7151 156.005Z" fill="#BF6D9D"/>
</svg>
