<svg width="155" height="193" viewBox="0 0 155 193" fill="none" xmlns="http://www.w3.org/2000/svg">
<path d="M123.013 158.683C124.151 157.648 125.489 156.835 126.967 156.307C130.321 156.287 133.656 156.267 137.01 156.185C143 156.064 149.01 155.921 155 155.597C149.01 155.292 143 155.129 137.01 155.008C133.656 154.947 130.321 154.906 126.967 154.886C125.489 154.358 124.151 153.545 123.013 152.51C124.89 150.56 126.767 148.631 128.604 146.64C131.579 143.432 134.554 140.223 137.389 136.872C134.115 139.776 130.94 142.782 127.785 145.808C125.849 147.676 123.932 149.585 122.015 151.494C120.997 150.337 120.198 148.976 119.679 147.473C119.659 144.061 119.639 140.67 119.559 137.258C119.439 131.206 119.3 125.093 119 119C118.7 125.093 118.541 131.206 118.421 137.298C118.361 140.71 118.321 144.102 118.301 147.514C117.782 149.016 116.983 150.377 115.965 151.535C114.048 149.626 112.151 147.717 110.195 145.848C107.04 142.822 103.885 139.796 100.591 136.912C103.426 140.263 106.401 143.472 109.376 146.681C111.213 148.651 113.09 150.601 114.967 152.55C113.829 153.586 112.491 154.398 111.013 154.926C107.659 154.947 104.324 154.967 100.97 155.048C95 155.15 88.99 155.292 83 155.617C88.99 155.942 95 156.084 100.99 156.206C104.344 156.267 107.679 156.307 111.033 156.328C112.511 156.856 113.829 157.668 114.987 158.704C113.11 160.653 111.233 162.583 109.396 164.573C106.421 167.782 103.446 170.991 100.611 174.342C103.905 171.437 107.06 168.432 110.215 165.406C112.151 163.537 114.068 161.628 115.985 159.719C117.003 160.877 117.802 162.238 118.321 163.74C118.341 167.152 118.361 170.544 118.441 173.956C118.561 180.048 118.7 186.161 119.02 192.254C119.339 186.161 119.479 180.048 119.599 173.956C119.659 170.544 119.699 167.152 119.719 163.74C120.238 162.238 121.037 160.897 122.055 159.719C123.972 161.628 125.869 163.537 127.825 165.406C130.98 168.432 134.135 171.458 137.429 174.342C134.574 171.011 131.619 167.782 128.644 164.573C126.747 162.562 124.89 160.633 123.013 158.683Z" fill="white"/>
<path d="M76.6922 75.8414C78.8735 73.8619 81.4376 72.3094 84.2695 71.3003C90.6988 71.2614 97.0898 71.2226 103.519 71.0674C115 70.8345 126.519 70.5628 138 69.9418C126.519 69.3596 115 69.0491 103.519 68.8162C97.0898 68.6998 90.6988 68.6221 84.2695 68.5833C81.4376 67.5742 78.8735 66.0216 76.6922 64.0421C80.2895 60.3161 83.8869 56.6288 87.4076 52.8251C93.1098 46.6925 98.812 40.56 104.246 34.1558C97.97 39.7061 91.8852 45.4505 85.8386 51.2337C82.1265 54.8045 78.4526 58.453 74.7787 62.1015C72.827 59.8891 71.2962 57.2886 70.3012 54.4164C70.2629 47.8958 70.2246 41.4139 70.0715 34.8933C69.8419 23.3269 69.574 11.644 69 0C68.426 11.644 68.1198 23.3269 67.8902 34.9709C67.7754 41.4915 67.6988 47.9734 67.6606 54.494C66.6656 57.3662 65.1348 59.9667 63.183 62.1791C59.5091 58.5306 55.8735 54.8822 52.1231 51.3113C46.0765 45.5281 40.0299 39.7449 33.7155 34.2334C39.1497 40.6376 44.8519 46.7702 50.5541 52.9027C54.0749 56.6676 57.6722 60.3937 61.2695 64.1198C59.0882 66.0993 56.5241 67.6518 53.6922 68.6609C47.2629 68.6998 40.8719 68.7386 34.4426 68.8938C23 69.0879 11.4809 69.3596 0 69.9806C11.4809 70.6016 23 70.8733 34.4809 71.1062C40.9101 71.2226 47.3012 71.3002 53.7304 71.3391C56.5624 72.3482 59.0882 73.9007 61.3078 75.8802C57.7105 79.6063 54.1131 83.2936 50.5923 87.0973C44.8902 93.2298 39.188 99.3624 33.7537 105.767C40.0682 100.216 46.1148 94.4719 52.1614 88.6887C55.8735 85.1178 59.5474 81.4694 63.2213 77.8209C65.173 80.0333 66.7038 82.6338 67.6988 85.506C67.7371 92.0266 67.7754 98.5085 67.9284 105.029C68.1581 116.673 68.426 128.356 69.0383 140C69.6506 128.356 69.9185 116.673 70.1481 105.029C70.2629 98.5085 70.3394 92.0266 70.3777 85.506C71.3727 82.6338 72.9035 80.0721 74.8552 77.8209C78.5291 81.4694 82.1647 85.1178 85.9151 88.6887C91.9617 94.4719 98.0083 100.255 104.323 105.767C98.8502 99.4012 93.1864 93.2298 87.4842 87.0973C83.8486 83.2548 80.2895 79.5675 76.6922 75.8414Z" fill="white"/>
</svg>
