<svg width="79" height="111" viewBox="0 0 79 111" fill="none" xmlns="http://www.w3.org/2000/svg">
<path d="M36.6789 36.3299C37.7221 35.3817 38.9484 34.638 40.3028 34.1546C43.3777 34.136 46.4343 34.1174 49.5091 34.043C55 33.9315 60.5092 33.8013 66 33.5039C60.5092 33.225 55 33.0762 49.5091 32.9647C46.4343 32.9089 43.3777 32.8717 40.3028 32.8531C38.9484 32.3697 37.7221 31.626 36.6789 30.6778C38.3993 28.8929 40.1198 27.1266 41.8037 25.3045C44.5308 22.3669 47.2579 19.4293 49.8569 16.3615C46.8552 19.0202 43.9451 21.7719 41.0532 24.5422C39.2779 26.2527 37.5208 28.0005 35.7637 29.7482C34.8303 28.6884 34.0982 27.4427 33.6223 26.0668C33.604 22.9433 33.5857 19.8383 33.5125 16.7147C33.4027 11.1741 33.2745 5.57778 33 0C32.7255 5.57778 32.579 11.1742 32.4692 16.7519C32.4143 19.8755 32.3777 22.9804 32.3594 26.104C31.8835 27.4799 31.1514 28.7256 30.218 29.7853C28.4609 28.0376 26.7221 26.2899 24.9285 24.5794C22.0366 21.8091 19.1448 19.0388 16.1248 16.3987C18.7238 19.4664 21.4509 22.4041 24.178 25.3417C25.8619 27.1452 27.5824 28.9301 29.3028 30.715C28.2596 31.6632 27.0333 32.4069 25.6789 32.8903C22.604 32.9089 19.5474 32.9275 16.4725 33.0019C11 33.0948 5.49085 33.225 0 33.5225C5.49085 33.8199 11 33.9501 16.4908 34.0616C19.5657 34.1174 22.6223 34.1546 25.6972 34.1732C27.0516 34.6566 28.2596 35.4003 29.3211 36.3485C27.6007 38.1334 25.8802 39.8997 24.1963 41.7218C21.4692 44.6594 18.7421 47.597 16.1431 50.6648C19.1631 48.0061 22.0549 45.2544 24.9468 42.4841C26.7221 40.7736 28.4792 39.0259 30.2363 37.2782C31.1697 38.3379 31.9018 39.5836 32.3777 40.9595C32.396 44.083 32.4143 47.188 32.4875 50.3116C32.5973 55.8893 32.7255 61.4857 33.0183 67.0635C33.3111 61.4857 33.4393 55.8893 33.5491 50.3116C33.604 47.188 33.6406 44.083 33.6589 40.9595C34.1348 39.5836 34.8669 38.3565 35.8003 37.2782C37.5574 39.0259 39.2962 40.7736 41.0899 42.4841C43.9817 45.2544 46.8735 48.0247 49.8935 50.6648C47.2762 47.6156 44.5674 44.6594 41.8403 41.7218C40.1015 39.8811 38.3993 38.1148 36.6789 36.3299Z" fill="white"/>
<path d="M59.0083 89.9193C59.7196 89.2689 60.5557 88.7588 61.4792 88.4272C63.5757 88.4145 65.6597 88.4017 67.7562 88.3507C71.5 88.2742 75.2562 88.1849 79 87.9809C75.2562 87.7896 71.5 87.6876 67.7562 87.611C65.6597 87.5728 63.5757 87.5473 61.4792 87.5345C60.5557 87.2029 59.7196 86.6928 59.0083 86.0424C60.1814 84.8181 61.3544 83.6066 62.5025 82.3568C64.3619 80.3418 66.2213 78.3269 67.9933 76.2226C65.9468 78.0463 63.9626 79.9337 61.9908 81.8339C60.7804 83.0072 59.5824 84.206 58.3844 85.4048C57.7479 84.6778 57.2488 83.8234 56.9243 82.8797C56.9118 80.7372 56.8993 78.6074 56.8494 76.4649C56.7745 72.6645 56.6872 68.8259 56.5 65C56.3128 68.8259 56.213 72.6645 56.1381 76.4904C56.1007 78.6329 56.0757 80.7627 56.0632 82.9052C55.7388 83.8489 55.2396 84.7034 54.6032 85.4303C53.4052 84.2315 52.2196 83.0327 50.9967 81.8594C49.025 79.9592 47.0532 78.0591 44.9942 76.2481C46.7662 78.3524 48.6256 80.3673 50.485 82.3823C51.6331 83.6194 52.8062 84.8436 53.9792 86.0679C53.2679 86.7183 52.4318 87.2284 51.5083 87.56C49.4118 87.5728 47.3278 87.5855 45.2313 87.6365C41.5 87.7003 37.7438 87.7896 34 87.9936C37.7438 88.1977 41.5 88.2869 45.2438 88.3635C47.3403 88.4017 49.4243 88.4272 51.5208 88.44C52.4443 88.7716 53.2679 89.2817 53.9917 89.9321C52.8186 91.1564 51.6456 92.3679 50.4975 93.6177C48.6381 95.6327 46.7787 97.6476 45.0067 99.7519C47.0657 97.9282 49.0374 96.0408 51.0091 94.1406C52.2196 92.9673 53.4176 91.7685 54.6156 90.5697C55.2521 91.2966 55.7512 92.1511 56.0757 93.0948C56.0882 95.2373 56.1007 97.3671 56.1506 99.5096C56.2255 103.335 56.3128 107.174 56.5125 111C56.7121 107.174 56.7995 103.335 56.8744 99.5096C56.9118 97.3671 56.9368 95.2373 56.9492 93.0948C57.2737 92.1511 57.7729 91.3094 58.4093 90.5697C59.6073 91.7685 60.7928 92.9673 62.0158 94.1406C63.9875 96.0408 65.9592 97.9409 68.0183 99.7519C66.2338 97.6604 64.3869 95.6327 62.5275 93.6177C61.3419 92.3551 60.1814 91.1436 59.0083 89.9193Z" fill="white"/>
</svg>
