<svg width="577" height="147" viewBox="0 0 577 147" fill="none" xmlns="http://www.w3.org/2000/svg">
<path d="M1.9269 239.975C2.52018 238.42 3.49364 237.043 4.75508 235.954C19.5525 223.248 115.428 141.68 143.329 137.389C150.817 136.237 156.324 136.047 160.333 136.301C167.446 136.756 174.416 134.204 179.462 129.17C198.038 110.634 244.313 73.3495 310.081 81.0046C325.656 82.819 341.133 76.5809 351.144 64.5137C372.427 38.8644 414.556 1.7009 470.117 19.6145C485.41 24.5451 502.079 21.5268 514.728 11.6311C531.288 -1.3231 552.882 -10.4758 558.043 23.923V255.763H10.4633C3.42454 255.763 -1.42539 248.707 1.09749 242.135L1.9269 239.975Z" fill="#9CCA4B"/>
<path d="M577 255.757H37.9097C30.6982 255.757 25.8367 248.373 28.6995 241.749C29.3043 240.349 30.2144 239.111 31.3721 238.114C45.5936 225.897 142.108 143.714 170.113 139.405C177.601 138.253 183.108 138.063 187.117 138.317C194.23 138.772 201.2 136.22 206.246 131.186C224.822 112.65 271.098 75.3655 336.865 83.0206C352.44 84.835 367.917 78.5969 377.928 66.5297C399.211 40.8804 441.34 3.71694 496.901 21.6305C512.194 26.5611 528.863 23.5429 541.512 13.6472C553.389 4.35631 567.858 -2.98192 577 6.31472V255.757Z" fill="#435A26"/>
<path d="M303.739 101.389C305.648 101.389 307.195 99.8415 307.195 97.9328C307.195 96.0241 305.648 94.4768 303.739 94.4768C301.831 94.4768 300.283 96.0241 300.283 97.9328C300.283 99.8415 301.831 101.389 303.739 101.389Z" fill="#BF6D9D"/>
<path d="M515.621 60.1244C517.53 60.1244 519.077 58.5771 519.077 56.6684C519.077 54.7597 517.53 53.2124 515.621 53.2124C513.712 53.2124 512.165 54.7597 512.165 56.6684C512.165 58.5771 513.712 60.1244 515.621 60.1244Z" fill="#BF6D9D"/>
<path d="M495.293 111.245C497.202 111.245 498.749 109.697 498.749 107.789C498.749 105.88 497.202 104.333 495.293 104.333C493.385 104.333 491.837 105.88 491.837 107.789C491.837 109.697 493.385 111.245 495.293 111.245Z" fill="#BF6D9D"/>
<path d="M426.375 106.112C428.284 106.112 429.831 104.565 429.831 102.656C429.831 100.747 428.284 99.2002 426.375 99.2002C424.467 99.2002 422.919 100.747 422.919 102.656C422.919 104.565 424.467 106.112 426.375 106.112Z" fill="#BF6D9D"/>
<path d="M321.141 140.194L322.684 135.569C322.92 134.86 323.894 134.791 324.234 135.459L326.549 140.096C326.693 140.378 326.981 140.563 327.298 140.563H329.815C330.72 140.563 330.984 141.79 330.161 142.164L327.932 143.178C327.592 143.333 327.39 143.696 327.448 144.07L328.116 148.396C328.237 149.197 327.269 149.692 326.693 149.116L323.951 146.374C323.612 146.035 323.053 146.052 322.73 146.409L320.985 148.373C320.403 149.03 319.332 148.465 319.545 147.613L320.207 144.963C320.334 144.462 319.983 143.973 319.47 143.926L317.483 143.748C316.613 143.667 316.429 142.475 317.235 142.135L320.668 140.707C320.893 140.614 321.066 140.424 321.141 140.194Z" fill="#BF6D9D"/>
<path d="M467.422 135.741L465.878 131.116C465.642 130.408 464.668 130.339 464.328 131.007L462.013 135.643C461.869 135.926 461.581 136.11 461.264 136.11H458.747C457.843 136.11 457.578 137.337 458.401 137.711L460.63 138.725C460.97 138.881 461.172 139.243 461.114 139.618L460.446 143.944C460.325 144.744 461.293 145.24 461.869 144.664L464.611 141.922C464.95 141.582 465.509 141.599 465.832 141.956L467.577 143.921C468.159 144.577 469.23 144.013 469.017 143.16L468.355 140.511C468.228 140.01 468.579 139.52 469.092 139.474L471.079 139.295C471.949 139.215 472.133 138.022 471.327 137.682L467.894 136.254C467.669 136.156 467.496 135.972 467.422 135.741Z" fill="#BF6D9D"/>
<path d="M475.007 72.0473L473.463 67.422C473.227 66.7135 472.254 66.6444 471.914 67.3126L469.598 71.9493C469.454 72.2316 469.166 72.4159 468.85 72.4159H466.332C465.428 72.4159 465.163 73.6428 465.987 74.0172L468.216 75.0309C468.556 75.1864 468.757 75.5494 468.7 75.9238L468.032 80.2495C467.911 81.0502 468.878 81.5455 469.454 80.9695L472.196 78.2278C472.536 77.8879 473.095 77.9052 473.417 78.2623L475.162 80.2265C475.744 80.8831 476.816 80.3186 476.602 79.4662L475.94 76.8166C475.813 76.3155 476.165 75.8258 476.677 75.7798L478.665 75.6012C479.534 75.5205 479.719 74.3282 478.912 73.9884L475.479 72.5599C475.26 72.4678 475.088 72.2777 475.007 72.0473Z" fill="#BF6D9D"/>
<path d="M547.819 134.376L546.275 129.751C546.039 129.043 545.066 128.974 544.732 129.642L542.416 134.278C542.272 134.561 541.984 134.745 541.667 134.745H539.15C538.246 134.745 537.981 135.972 538.805 136.346L541.034 137.36C541.374 137.516 541.575 137.878 541.518 138.253L540.85 142.579C540.729 143.379 541.696 143.875 542.272 143.299L545.014 140.557C545.354 140.217 545.913 140.234 546.235 140.591L547.98 142.556C548.562 143.212 549.634 142.648 549.42 141.795L548.758 139.146C548.631 138.645 548.983 138.155 549.495 138.109L551.482 137.93C552.352 137.85 552.536 136.657 551.73 136.318L548.297 134.889C548.067 134.791 547.894 134.607 547.819 134.376Z" fill="#BF6D9D"/>
<path d="M558.158 38.7893L556.615 34.164C556.379 33.4555 555.405 33.3863 555.065 34.0545L552.75 38.6913C552.606 38.9736 552.318 39.1579 552.001 39.1579H549.484C548.58 39.1579 548.314 40.3847 549.138 40.7591L551.367 41.7729C551.707 41.9284 551.909 42.2913 551.851 42.6657L551.183 46.9915C551.062 47.7921 552.03 48.2875 552.606 47.7115L555.347 44.9697C555.687 44.6299 556.246 44.6471 556.569 45.0043L558.314 46.9684C558.896 47.6251 559.967 47.0606 559.754 46.2081L559.091 43.5585C558.965 43.0574 559.316 42.5678 559.829 42.5217L561.816 42.3431C562.686 42.2625 562.87 41.0702 562.064 40.7304L558.631 39.3019C558.406 39.204 558.233 39.0197 558.158 38.7893Z" fill="#BF6D9D"/>
<path d="M256.34 125.788L254.796 121.163C254.56 120.455 253.587 120.386 253.253 121.054L250.937 125.691C250.793 125.973 250.505 126.157 250.188 126.157H247.671C246.767 126.157 246.502 127.384 247.326 127.758L249.555 128.772C249.895 128.928 250.096 129.291 250.039 129.665L249.37 133.991C249.249 134.791 250.217 135.287 250.793 134.711L253.535 131.969C253.875 131.629 254.434 131.646 254.756 132.004L256.501 133.968C257.083 134.624 258.154 134.06 257.941 133.207L257.279 130.558C257.152 130.057 257.504 129.567 258.016 129.521L260.003 129.342C260.873 129.262 261.058 128.069 260.251 127.73L256.818 126.301C256.594 126.209 256.421 126.019 256.34 125.788Z" fill="#BF6D9D"/>
<path d="M377.542 129.74L376.194 128.34L376.609 128.271C377.496 128.121 377.554 126.865 376.684 126.635L374.288 126.001C374.288 125.857 374.317 125.713 374.391 125.581L375.63 123.467C376.085 122.689 375.163 121.837 374.426 122.355L373.199 123.219L372.589 120.276C372.439 119.544 371.477 119.36 371.068 119.988L369.3 122.684L366.927 121.405C366.27 121.048 365.51 121.67 365.723 122.384L366.397 124.63L364.121 124.941C363.252 125.062 363.125 126.261 363.949 126.56L365.821 127.245C366.304 127.424 366.517 127.989 366.27 128.438L364.951 130.828C364.778 131.139 364.83 131.462 364.997 131.698C365.193 132.095 365.7 132.337 366.172 132.067L367.9 131.07C368.343 130.811 368.914 131.013 369.104 131.496L370.083 134.042C370.348 134.722 371.212 134.722 371.558 134.209C372.007 134.78 372.957 134.543 373.038 133.783L373.383 130.563L376.799 131.157C377.594 131.283 378.107 130.321 377.542 129.74Z" fill="#BF6D9D"/>
<path d="M440.447 47.6021L439.099 46.2025L439.514 46.1333C440.401 45.9836 440.458 44.7279 439.589 44.4975L437.193 43.8639C437.193 43.7199 437.221 43.5759 437.296 43.4434L438.535 41.3295C438.99 40.5519 438.068 39.6994 437.331 40.2178L436.104 41.0818L435.493 38.1385C435.344 37.4069 434.382 37.2226 433.973 37.8505L432.205 40.5461L429.831 39.2674C429.175 38.9103 428.414 39.5323 428.627 40.2466L429.301 42.493L427.026 42.804C426.156 42.925 426.03 44.123 426.853 44.4226L428.725 45.108C429.209 45.2866 429.422 45.8511 429.175 46.3003L427.856 48.6907C427.683 49.0018 427.735 49.3244 427.902 49.5605C428.098 49.958 428.604 50.1999 429.077 49.9292L430.805 48.9327C431.248 48.6735 431.819 48.8751 432.009 49.3589L432.988 51.9049C433.253 52.5846 434.117 52.5845 434.462 52.0719C434.912 52.6421 435.862 52.406 435.943 51.6456L436.288 48.4258L439.704 49.0191C440.499 49.1516 441.011 48.1896 440.447 47.6021Z" fill="#BF6D9D"/>
<path d="M554.391 86.407L553.043 85.0074L553.458 84.9383C554.345 84.7885 554.403 83.5328 553.533 83.3024L551.137 82.6688C551.137 82.5248 551.166 82.3808 551.241 82.2483L552.479 80.1344C552.934 79.3568 552.013 78.5043 551.275 79.0227L550.048 79.8867L549.438 76.9434C549.288 76.2119 548.326 76.0276 547.917 76.6554L546.149 79.351L543.776 78.0723C543.119 77.7152 542.359 78.3373 542.572 79.0515L543.246 81.2979L540.971 81.609C540.101 81.7299 539.974 82.928 540.798 83.2275L542.67 83.913C543.154 84.0915 543.367 84.656 543.119 85.1053L541.8 87.4957C541.627 87.8067 541.679 88.1293 541.846 88.3654C542.042 88.7629 542.549 89.0048 543.021 88.7341L544.749 87.7376C545.193 87.4784 545.763 87.68 545.953 88.1639L546.932 90.7098C547.197 91.3895 548.061 91.3894 548.407 90.8768C548.856 91.447 549.806 91.2109 549.887 90.4506L550.233 87.2307L553.648 87.824C554.443 87.9508 554.956 86.9888 554.391 86.407Z" fill="#BF6D9D"/>
<path d="M519.284 156.005L517.936 154.606L518.351 154.536C519.238 154.387 519.295 153.131 518.426 152.901L516.029 152.267C516.029 152.123 516.058 151.979 516.133 151.846L517.372 149.733C517.827 148.955 516.905 148.102 516.168 148.621L514.941 149.485L514.33 146.542C514.181 145.81 513.219 145.626 512.81 146.254L511.041 148.949L508.668 147.67C508.012 147.313 507.251 147.935 507.464 148.65L508.138 150.896L505.863 151.207C504.993 151.328 504.867 152.526 505.69 152.826L507.562 153.511C508.046 153.69 508.259 154.254 508.012 154.703L506.693 157.094C506.52 157.405 506.572 157.727 506.739 157.964C506.934 158.361 507.441 158.603 507.914 158.332L509.642 157.336C510.085 157.077 510.655 157.278 510.845 157.762L511.825 160.308C512.09 160.988 512.954 160.988 513.299 160.475C513.749 161.045 514.699 160.809 514.78 160.049L515.125 156.829L518.541 157.422C519.336 157.555 519.848 156.593 519.284 156.005Z" fill="#BF6D9D"/>
</svg>
