<svg width="700" height="330" viewBox="0 0 815 385" fill="none"
     xmlns="http://www.w3.org/2000/svg">
<path d="M9.70117 147.632L235.263 42.4508L340.444 268.012L114.882 373.193L9.70117 147.632Z" fill="url(#paint80_linear_80110031)"/>
<path fill-rule="evenodd" clip-rule="evenodd" d="M160.765 42.0143L9.0142 222.864L189.864 374.615L341.615 193.765L160.765 42.0143ZM0 223.653L190.653 383.629L350.629 192.977L159.977 33.0001L0 223.653Z" fill="url(#paint81_linear_80110031)"/>
<path d="M54.6704 280.487C54.6704 337.72 54.6704 337.72 110.13 337.72H143.385H200.251C201.859 337.72 203.165 336.401 203.165 334.879V327.775V282.517V252.074C203.165 247.71 203.165 247.71 199.849 246.29L150.619 223.255C146.5 221.428 146.5 221.428 146.5 225.893V268.817C146.5 280.487 146.5 280.487 129.621 280.487C111.637 280.487 111.737 280.487 111.737 268.817V137.101V81.7964C111.737 75.3019 80.6921 53.2815 63.3108 53.2815C54.6704 53.2815 54.6704 61.704 54.6704 63.0232V280.487Z" fill="white"/>
<path d="M295.396 355.58V155.874C295.396 106.252 295.496 88.0879 220.948 88.0879C146.6 88.0879 146.6 103.208 146.6 155.874V180.634C146.6 182.765 147.303 182.765 148.308 183.273L199.146 208.033C203.365 210.063 203.365 210.063 203.265 205.395V154.859C203.265 147.249 203.265 145.524 220.546 145.524C238.028 145.524 238.228 147.249 238.228 154.656V336.401C238.228 342.489 238.228 342.489 239.936 344.519C254.404 355.478 265.858 362.785 286.655 362.785C295.396 362.886 295.396 355.58 295.396 355.58Z" fill="white"/>
<path d="M461.8 55.72V154H437.86V113.54H400.62V154H376.68V55.72H400.62V94.22H437.86V55.72H461.8ZM474.322 114.8C474.322 106.773 475.816 99.7267 478.802 93.66C481.882 87.5933 486.036 82.9267 491.262 79.66C496.489 76.3933 502.322 74.76 508.762 74.76C514.269 74.76 519.076 75.88 523.182 78.12C527.382 80.36 530.602 83.3 532.842 86.94V75.88H556.782V154H532.842V142.94C530.509 146.58 527.242 149.52 523.042 151.76C518.936 154 514.129 155.12 508.622 155.12C502.276 155.12 496.489 153.487 491.262 150.22C486.036 146.86 481.882 142.147 478.802 136.08C475.816 129.92 474.322 122.827 474.322 114.8ZM532.842 114.94C532.842 108.967 531.162 104.253 527.802 100.8C524.536 97.3467 520.522 95.62 515.762 95.62C511.002 95.62 506.942 97.3467 503.582 100.8C500.316 104.16 498.682 108.827 498.682 114.8C498.682 120.773 500.316 125.533 503.582 129.08C506.942 132.533 511.002 134.26 515.762 134.26C520.522 134.26 524.536 132.533 527.802 129.08C531.162 125.627 532.842 120.913 532.842 114.94ZM569.342 114.94C569.342 106.82 570.975 99.7267 574.242 93.66C577.602 87.5933 582.222 82.9267 588.102 79.66C594.075 76.3933 600.889 74.76 608.542 74.76C618.342 74.76 626.509 77.3267 633.042 82.46C639.669 87.5933 644.009 94.8267 646.062 104.16H620.582C618.435 98.1867 614.282 95.2 608.122 95.2C603.735 95.2 600.235 96.9267 597.622 100.38C595.009 103.74 593.702 108.593 593.702 114.94C593.702 121.287 595.009 126.187 597.622 129.64C600.235 133 603.735 134.68 608.122 134.68C614.282 134.68 618.435 131.693 620.582 125.72H646.062C644.009 134.867 639.669 142.053 633.042 147.28C626.415 152.507 618.249 155.12 608.542 155.12C600.889 155.12 594.075 153.487 588.102 150.22C582.222 146.953 577.602 142.287 574.242 136.22C570.975 130.153 569.342 123.06 569.342 114.94ZM706.608 154L682.808 121.24V154H658.868V50.4H682.808V107.66L706.468 75.88H736.008L703.528 115.08L736.288 154H706.608ZM777.19 155.12C770.377 155.12 764.31 153.953 758.99 151.62C753.67 149.287 749.47 146.113 746.39 142.1C743.31 137.993 741.584 133.42 741.21 128.38H764.87C765.15 131.087 766.41 133.28 768.65 134.96C770.89 136.64 773.644 137.48 776.91 137.48C779.897 137.48 782.184 136.92 783.77 135.8C785.45 134.587 786.29 133.047 786.29 131.18C786.29 128.94 785.124 127.307 782.79 126.28C780.457 125.16 776.677 123.947 771.45 122.64C765.85 121.333 761.184 119.98 757.45 118.58C753.717 117.087 750.497 114.8 747.79 111.72C745.084 108.547 743.73 104.3 743.73 98.98C743.73 94.5 744.944 90.44 747.37 86.8C749.89 83.0667 753.53 80.1267 758.29 77.98C763.144 75.8333 768.884 74.76 775.51 74.76C785.31 74.76 793.01 77.1867 798.61 82.04C804.304 86.8933 807.57 93.3333 808.41 101.36H786.29C785.917 98.6533 784.704 96.5067 782.65 94.92C780.69 93.3333 778.077 92.54 774.81 92.54C772.01 92.54 769.864 93.1 768.37 94.22C766.877 95.2467 766.13 96.6933 766.13 98.56C766.13 100.8 767.297 102.48 769.63 103.6C772.057 104.72 775.79 105.84 780.83 106.96C786.617 108.453 791.33 109.947 794.97 111.44C798.61 112.84 801.784 115.173 804.49 118.44C807.29 121.613 808.737 125.907 808.83 131.32C808.83 135.893 807.524 140 804.91 143.64C802.39 147.187 798.704 149.987 793.85 152.04C789.09 154.093 783.537 155.12 777.19 155.12Z" fill="white"/>
<path d="M411.905 369L397.495 332.315H389.465L375.055 369H382.095L384.79 361.96H402.17L404.865 369H411.905ZM400.355 356.295H386.605L393.48 337.76L400.355 356.295ZM421.522 365.315C423.667 368.175 426.692 369.66 430.047 369.66C436.922 369.66 441.817 364.435 441.817 355.69C441.817 346.945 436.922 341.775 430.047 341.775C426.582 341.775 423.502 343.425 421.522 346.065V342.435H415.747V379.12H421.522V365.315ZM435.822 355.69C435.822 360.86 432.907 364.545 428.342 364.545C425.647 364.545 422.787 362.895 421.522 360.97V350.465C422.787 348.485 425.647 346.89 428.342 346.89C432.907 346.89 435.822 350.575 435.822 355.69ZM453.426 369V350.905C454.581 349.035 457.826 347.385 460.246 347.385C460.961 347.385 461.566 347.44 462.061 347.55V341.83C458.596 341.83 455.406 343.81 453.426 346.34V342.435H447.651V369H453.426ZM469.579 338.035C471.559 338.035 473.154 336.44 473.154 334.46C473.154 332.48 471.559 330.885 469.579 330.885C467.654 330.885 466.004 332.48 466.004 334.46C466.004 336.44 467.654 338.035 469.579 338.035ZM472.494 369V342.435H466.719V369H472.494ZM485.76 369V332.315H479.985V369H485.76ZM520.633 369V332.315H515.023L504.463 342.985L508.203 346.89L514.198 340.675V369H520.633ZM549.996 369V360.695H554.891V355.03H549.996V332.315H541.141L526.071 355.525V360.695H543.561V369H549.996ZM543.561 355.03H532.396L543.561 338.09V355.03ZM571.286 358.165V353.215H558.086V358.165H571.286ZM589.92 369V332.315H584.31L573.75 342.985L577.49 346.89L583.485 340.675V369H589.92ZM596.073 350.74C596.073 360.915 600.418 369.66 611.198 369.66C619.393 369.66 624.728 364.16 624.728 357.34C624.728 349.53 619.063 345.515 612.463 345.515C608.118 345.515 604.268 348.155 602.618 350.63C602.563 350.3 602.563 349.97 602.563 349.585C602.563 343.15 606.138 337.485 612.243 337.485C615.763 337.485 617.853 338.695 619.778 340.73L622.803 335.835C620.328 333.415 616.808 331.765 612.243 331.765C601.628 331.765 596.073 340.125 596.073 350.74ZM618.238 357.56C618.238 360.53 615.708 363.94 610.868 363.94C605.203 363.94 603.058 359.32 602.673 355.36C604.543 352.72 607.568 351.015 610.703 351.015C614.718 351.015 618.238 353.05 618.238 357.56ZM632.571 376.315C635.596 374.17 637.741 370.705 637.741 366.91C637.741 363.72 635.706 361.905 633.451 361.905C631.416 361.905 629.711 363.61 629.711 365.7C629.711 367.735 631.141 369.165 633.011 369.165C633.341 369.165 633.781 369.055 633.946 369C633.561 370.87 631.746 373.125 629.986 374.17L632.571 376.315ZM683.773 369V363.335H667.493C677.338 355.91 683.553 349.86 683.553 343.095C683.553 335.78 677.338 331.765 670.243 331.765C665.128 331.765 659.958 333.745 656.713 337.65L660.453 341.885C662.763 339.245 666.063 337.485 670.353 337.485C673.708 337.485 677.008 339.245 677.008 343.095C677.008 348.375 671.453 353.16 657.208 363.94V369H683.773ZM689.423 350.685C689.423 359.925 693.823 369.66 704.108 369.66C714.393 369.66 718.793 359.925 718.793 350.685C718.793 341.445 714.393 331.765 704.108 331.765C693.823 331.765 689.423 341.445 689.423 350.685ZM712.248 350.685C712.248 357.67 710.103 363.94 704.108 363.94C698.113 363.94 695.968 357.67 695.968 350.685C695.968 343.7 698.113 337.485 704.108 337.485C710.103 337.485 712.248 343.7 712.248 350.685ZM750.375 369V363.335H734.095C743.94 355.91 750.155 349.86 750.155 343.095C750.155 335.78 743.94 331.765 736.845 331.765C731.73 331.765 726.56 333.745 723.315 337.65L727.055 341.885C729.365 339.245 732.665 337.485 736.955 337.485C740.31 337.485 743.61 339.245 743.61 343.095C743.61 348.375 738.055 353.16 723.81 363.94V369H750.375ZM783.085 369V363.335H766.805C776.65 355.91 782.865 349.86 782.865 343.095C782.865 335.78 776.65 331.765 769.555 331.765C764.44 331.765 759.27 333.745 756.025 337.65L759.765 341.885C762.075 339.245 765.375 337.485 769.665 337.485C773.02 337.485 776.32 339.245 776.32 343.095C776.32 348.375 770.765 353.16 756.52 363.94V369H783.085Z" fill="white"/>
<path d="M470.06 301V274H423.8C456.02 253.12 469.16 237.46 469.16 219.1C469.16 194.98 448.82 179.14 420.56 179.14C403.82 179.14 384.74 185.08 371.96 199.12L389.06 219.64C397.7 211.54 407.78 206.5 420.56 206.5C429.92 206.5 437.66 210.82 437.66 219.1C437.66 230.98 427.94 239.26 375.92 276.88V301H470.06ZM482.016 241.06C482.016 272.74 498.396 303.16 533.496 303.16C568.596 303.16 584.976 272.74 584.976 241.06C584.976 209.38 568.596 179.14 533.496 179.14C498.396 179.14 482.016 209.38 482.016 241.06ZM553.656 241.06C553.656 262.3 547.896 275.8 533.496 275.8C519.096 275.8 513.336 262.3 513.336 241.06C513.336 219.82 519.096 206.5 533.496 206.5C547.896 206.5 553.656 219.82 553.656 241.06ZM691.72 301V274H645.46C677.68 253.12 690.82 237.46 690.82 219.1C690.82 194.98 670.48 179.14 642.22 179.14C625.48 179.14 606.4 185.08 593.62 199.12L610.72 219.64C619.36 211.54 629.44 206.5 642.22 206.5C651.58 206.5 659.32 210.82 659.32 219.1C659.32 230.98 649.6 239.26 597.58 276.88V301H691.72ZM801.056 301V274H754.796C787.016 253.12 800.156 237.46 800.156 219.1C800.156 194.98 779.816 179.14 751.556 179.14C734.816 179.14 715.736 185.08 702.956 199.12L720.056 219.64C728.696 211.54 738.776 206.5 751.556 206.5C760.916 206.5 768.656 210.82 768.656 219.1C768.656 230.98 758.936 239.26 706.916 276.88V301H801.056Z" fill="url(#paint82_linear_80110031)"/>
<defs>
<linearGradient id="paint80_linear_80110031" x1="312.395" y1="207.863" x2="86.8339" y2="313.044" gradientUnits="userSpaceOnUse">
<stop stop-color="#FDCD50"/>
<stop offset="0.5" stop-color="#F37588"/>
<stop offset="1" stop-color="#BF6D9D"/>
</linearGradient>
<linearGradient id="paint81_linear_80110031" x1="101.546" y1="94.7512" x2="296.081" y2="257.985" gradientUnits="userSpaceOnUse">
<stop stop-color="#F7D255"/>
<stop offset="1" stop-color="#DB722C"/>
</linearGradient>
<linearGradient id="paint82_linear_80110031" x1="809" y1="296.6" x2="368" y2="296.6" gradientUnits="userSpaceOnUse">
<stop stop-color="#FDCD50"/>
<stop offset="0.5" stop-color="#F37588"/>
<stop offset="1" stop-color="#BF6D9D"/>
</linearGradient>
</defs>
</svg>
