<svg width="262" height="152" viewBox="0 0 262 152" fill="none" xmlns="http://www.w3.org/2000/svg">
<path d="M138.34 133.816V141.331H137.577V135.319L134.625 140.376H134.249L131.297 135.351V141.331H130.535V133.816H131.19L134.453 139.388L137.685 133.816H138.34ZM142.603 135.641C143.34 135.641 143.905 135.827 144.299 136.199C144.692 136.564 144.889 137.108 144.889 137.831V141.331H144.159V140.451C143.987 140.744 143.733 140.973 143.397 141.138C143.068 141.302 142.674 141.385 142.216 141.385C141.586 141.385 141.085 141.234 140.713 140.934C140.341 140.633 140.155 140.236 140.155 139.742C140.155 139.263 140.327 138.876 140.67 138.583C141.021 138.289 141.576 138.143 142.334 138.143H144.127V137.799C144.127 137.312 143.991 136.944 143.719 136.693C143.447 136.436 143.05 136.307 142.527 136.307C142.17 136.307 141.826 136.368 141.497 136.489C141.168 136.604 140.885 136.765 140.649 136.972L140.305 136.403C140.591 136.16 140.935 135.974 141.336 135.845C141.737 135.709 142.159 135.641 142.603 135.641ZM142.334 140.783C142.764 140.783 143.132 140.687 143.44 140.494C143.748 140.293 143.977 140.007 144.127 139.635V138.712H142.356C141.389 138.712 140.906 139.048 140.906 139.721C140.906 140.05 141.032 140.311 141.282 140.504C141.533 140.69 141.883 140.783 142.334 140.783ZM147.689 136.79C147.868 136.411 148.133 136.124 148.484 135.931C148.842 135.738 149.282 135.641 149.804 135.641V136.382L149.622 136.371C149.028 136.371 148.563 136.554 148.226 136.919C147.89 137.284 147.722 137.795 147.722 138.454V141.331H146.959V135.684H147.689V136.79ZM153.472 141.385C152.914 141.385 152.413 141.263 151.969 141.02C151.533 140.776 151.189 140.436 150.939 140C150.688 139.556 150.563 139.059 150.563 138.508C150.563 137.956 150.688 137.463 150.939 137.026C151.189 136.589 151.533 136.25 151.969 136.006C152.413 135.763 152.914 135.641 153.472 135.641C153.959 135.641 154.392 135.738 154.771 135.931C155.158 136.117 155.462 136.393 155.684 136.758L155.115 137.144C154.929 136.865 154.693 136.657 154.406 136.521C154.12 136.378 153.809 136.307 153.472 136.307C153.064 136.307 152.696 136.4 152.367 136.586C152.045 136.765 151.791 137.022 151.604 137.359C151.426 137.695 151.336 138.078 151.336 138.508C151.336 138.944 151.426 139.331 151.604 139.667C151.791 139.996 152.045 140.254 152.367 140.44C152.696 140.619 153.064 140.708 153.472 140.708C153.809 140.708 154.12 140.64 154.406 140.504C154.693 140.368 154.929 140.161 155.115 139.882L155.684 140.268C155.462 140.633 155.158 140.912 154.771 141.106C154.385 141.292 153.952 141.385 153.472 141.385ZM159.975 135.641C160.683 135.641 161.245 135.849 161.66 136.264C162.082 136.672 162.293 137.269 162.293 138.057V141.331H161.531V138.132C161.531 137.545 161.384 137.098 161.091 136.79C160.798 136.482 160.379 136.328 159.835 136.328C159.227 136.328 158.744 136.511 158.386 136.876C158.035 137.234 157.86 137.731 157.86 138.368V141.331H157.097V133.365H157.86V136.672C158.067 136.343 158.353 136.088 158.718 135.91C159.083 135.731 159.502 135.641 159.975 135.641ZM171.799 140.644V141.331H166.528V140.783L169.652 137.724C170.046 137.337 170.311 137.005 170.447 136.725C170.59 136.439 170.661 136.153 170.661 135.867C170.661 135.423 170.508 135.079 170.2 134.836C169.899 134.586 169.466 134.46 168.901 134.46C168.021 134.46 167.337 134.739 166.85 135.298L166.303 134.825C166.596 134.482 166.968 134.217 167.419 134.031C167.877 133.845 168.393 133.752 168.965 133.752C169.731 133.752 170.336 133.934 170.78 134.299C171.23 134.657 171.456 135.151 171.456 135.781C171.456 136.167 171.37 136.539 171.198 136.897C171.026 137.255 170.701 137.667 170.221 138.132L167.666 140.644H171.799ZM174.852 133.816V141.331H174.079V134.503H172.308V133.816H174.852ZM176.734 138.089H179.547V138.754H176.734V138.089ZM185.753 140.644V141.331H180.482V140.783L183.606 137.724C184 137.337 184.265 137.005 184.401 136.725C184.544 136.439 184.616 136.153 184.616 135.867C184.616 135.423 184.462 135.079 184.154 134.836C183.853 134.586 183.42 134.46 182.855 134.46C181.975 134.46 181.291 134.739 180.804 135.298L180.257 134.825C180.55 134.482 180.922 134.217 181.373 134.031C181.831 133.845 182.347 133.752 182.919 133.752C183.685 133.752 184.29 133.934 184.734 134.299C185.184 134.657 185.41 135.151 185.41 135.781C185.41 136.167 185.324 136.539 185.152 136.897C184.981 137.255 184.655 137.667 184.175 138.132L181.62 140.644H185.753ZM191.028 137.391C191.501 137.549 191.862 137.785 192.113 138.1C192.37 138.415 192.499 138.794 192.499 139.238C192.499 139.674 192.381 140.057 192.145 140.386C191.909 140.708 191.569 140.959 191.125 141.138C190.688 141.31 190.173 141.395 189.579 141.395C188.677 141.395 187.969 141.202 187.454 140.816C186.938 140.429 186.681 139.903 186.681 139.238C186.681 138.787 186.802 138.407 187.046 138.1C187.296 137.785 187.658 137.549 188.13 137.391C187.743 137.241 187.45 137.026 187.25 136.747C187.049 136.461 186.949 136.124 186.949 135.738C186.949 135.129 187.185 134.646 187.658 134.289C188.137 133.931 188.778 133.752 189.579 133.752C190.109 133.752 190.57 133.834 190.964 133.999C191.365 134.156 191.676 134.385 191.898 134.686C192.12 134.986 192.231 135.337 192.231 135.738C192.231 136.124 192.127 136.461 191.92 136.747C191.712 137.026 191.415 137.241 191.028 137.391ZM187.722 135.759C187.722 136.174 187.887 136.504 188.216 136.747C188.545 136.99 188.999 137.112 189.579 137.112C190.159 137.112 190.613 136.99 190.943 136.747C191.279 136.504 191.447 136.178 191.447 135.77C191.447 135.348 191.275 135.015 190.932 134.772C190.595 134.528 190.145 134.407 189.579 134.407C189.007 134.407 188.552 134.528 188.216 134.772C187.887 135.015 187.722 135.344 187.722 135.759ZM189.579 140.741C190.245 140.741 190.764 140.605 191.136 140.333C191.515 140.061 191.705 139.692 191.705 139.227C191.705 138.762 191.515 138.397 191.136 138.132C190.764 137.86 190.245 137.724 189.579 137.724C188.921 137.724 188.402 137.86 188.023 138.132C187.65 138.397 187.464 138.762 187.464 139.227C187.464 139.699 187.65 140.071 188.023 140.343C188.395 140.608 188.914 140.741 189.579 140.741ZM194.265 140.215C194.429 140.215 194.565 140.272 194.673 140.386C194.78 140.494 194.834 140.63 194.834 140.794C194.834 140.88 194.819 140.973 194.791 141.073C194.769 141.174 194.734 141.288 194.683 141.417L194.233 142.898H193.717L194.082 141.342C193.968 141.306 193.875 141.242 193.803 141.148C193.732 141.048 193.696 140.93 193.696 140.794C193.696 140.63 193.749 140.494 193.857 140.386C193.964 140.272 194.1 140.215 194.265 140.215ZM203.891 140.644V141.331H198.619V140.783L201.743 137.724C202.137 137.337 202.402 137.005 202.538 136.725C202.681 136.439 202.753 136.153 202.753 135.867C202.753 135.423 202.599 135.079 202.291 134.836C201.99 134.586 201.557 134.46 200.992 134.46C200.112 134.46 199.428 134.739 198.942 135.298L198.394 134.825C198.687 134.482 199.06 134.217 199.511 134.031C199.969 133.845 200.484 133.752 201.056 133.752C201.822 133.752 202.427 133.934 202.871 134.299C203.322 134.657 203.547 135.151 203.547 135.781C203.547 136.167 203.461 136.539 203.289 136.897C203.118 137.255 202.792 137.667 202.312 138.132L199.757 140.644H203.891ZM207.814 141.395C207.234 141.395 206.715 141.242 206.257 140.934C205.806 140.626 205.452 140.186 205.194 139.613C204.944 139.034 204.819 138.354 204.819 137.574C204.819 136.793 204.944 136.117 205.194 135.545C205.452 134.965 205.806 134.521 206.257 134.213C206.715 133.906 207.234 133.752 207.814 133.752C208.394 133.752 208.909 133.906 209.36 134.213C209.818 134.521 210.176 134.965 210.433 135.545C210.691 136.117 210.82 136.793 210.82 137.574C210.82 138.354 210.691 139.034 210.433 139.613C210.176 140.186 209.818 140.626 209.36 140.934C208.909 141.242 208.394 141.395 207.814 141.395ZM207.814 140.687C208.25 140.687 208.633 140.565 208.963 140.322C209.299 140.079 209.56 139.724 209.746 139.259C209.932 138.794 210.025 138.232 210.025 137.574C210.025 136.915 209.932 136.353 209.746 135.888C209.56 135.423 209.299 135.069 208.963 134.825C208.633 134.582 208.25 134.46 207.814 134.46C207.377 134.46 206.991 134.582 206.654 134.825C206.325 135.069 206.068 135.423 205.882 135.888C205.695 136.353 205.602 136.915 205.602 137.574C205.602 138.232 205.695 138.794 205.882 139.259C206.068 139.724 206.325 140.079 206.654 140.322C206.991 140.565 207.377 140.687 207.814 140.687ZM217.037 140.644V141.331H211.766V140.783L214.89 137.724C215.284 137.337 215.549 137.005 215.685 136.725C215.828 136.439 215.899 136.153 215.899 135.867C215.899 135.423 215.746 135.079 215.438 134.836C215.137 134.586 214.704 134.46 214.139 134.46C213.258 134.46 212.575 134.739 212.088 135.298L211.541 134.825C211.834 134.482 212.206 134.217 212.657 134.031C213.115 133.845 213.631 133.752 214.203 133.752C214.969 133.752 215.574 133.934 216.018 134.299C216.468 134.657 216.694 135.151 216.694 135.781C216.694 136.167 216.608 136.539 216.436 136.897C216.264 137.255 215.939 137.667 215.459 138.132L212.904 140.644H217.037ZM220.09 133.816V141.331H219.317V134.503H217.546V133.816H220.09Z" fill="#D3D3D3"/>
<path d="M161.087 115.17H162.339V113.918H161.087V115.17ZM161.087 122.634V123.886H162.339V122.634H161.087ZM131.177 122.634H129.925V123.886H131.177V122.634ZM131.177 116.697L130.317 115.786L129.925 116.157V116.697H131.177ZM146.443 102.279L147.303 103.19L147.307 103.186L146.443 102.279ZM149.722 98.3213L150.835 98.8967L150.839 98.8891L150.842 98.8814L149.722 98.3213ZM148.931 91.3668L148.136 92.3346L148.154 92.35L148.174 92.3647L148.931 91.3668ZM139.545 91.0841L140.068 92.2222L140.08 92.2164L140.093 92.2104L139.545 91.0841ZM136.039 94.0242L135.361 95.0772L136.365 95.7235L137.059 94.7522L136.039 94.0242ZM129.368 89.7271L128.328 89.0285L127.616 90.0885L128.69 90.7801L129.368 89.7271ZM135.757 84.3558L136.292 85.4884L136.298 85.4853L136.304 85.4823L135.757 84.3558ZM152.775 83.847L152.263 84.9899L152.275 84.9951L152.287 85.0002L152.775 83.847ZM157.921 87.9179L156.885 88.6227L156.894 88.6354L156.903 88.6479L157.921 87.9179ZM158.429 100.131L159.559 100.673L159.559 100.673L158.429 100.131ZM153.171 106.576L152.319 105.658L152.311 105.665L153.171 106.576ZM144.068 115.17L143.208 114.26L140.917 116.423H144.068V115.17ZM159.834 115.17V122.634H162.339V115.17H159.834ZM161.087 121.381H131.177V123.886H161.087V121.381ZM132.429 122.634V116.697H129.925V122.634H132.429ZM132.037 117.607L147.303 103.19L145.583 101.369L130.317 115.786L132.037 117.607ZM147.307 103.186C148.96 101.609 150.173 100.176 150.835 98.8967L148.61 97.7459C148.14 98.6531 147.167 99.858 145.579 101.373L147.307 103.186ZM150.842 98.8814C151.481 97.6039 151.823 96.3013 151.823 94.9854H149.318C149.318 95.8557 149.094 96.777 148.602 97.7612L150.842 98.8814ZM151.823 94.9854C151.823 93.0789 151.144 91.4736 149.688 90.369L148.174 92.3647C148.904 92.9186 149.318 93.7256 149.318 94.9854H151.823ZM149.726 90.399C148.356 89.2738 146.457 88.8139 144.238 88.8139V91.3189C146.165 91.3189 147.395 91.7259 148.136 92.3346L149.726 90.399ZM144.238 88.8139C142.337 88.8139 140.582 89.187 138.997 89.9578L140.093 92.2104C141.298 91.6243 142.671 91.3189 144.238 91.3189V88.8139ZM139.022 89.946C137.418 90.6831 136.082 91.8097 135.02 93.2962L137.059 94.7522C137.882 93.6002 138.883 92.7667 140.068 92.2222L139.022 89.946ZM136.718 92.9712L130.046 88.6742L128.69 90.7801L135.361 95.0772L136.718 92.9712ZM130.407 90.4258C131.816 88.3295 133.764 86.6818 136.292 85.4884L135.222 83.2233C132.321 84.593 130.01 86.5261 128.328 89.0285L130.407 90.4258ZM136.304 85.4823C138.822 84.2583 141.74 83.6294 145.086 83.6294V81.1244C141.421 81.1244 138.119 81.8148 135.209 83.2294L136.304 85.4823ZM145.086 83.6294C147.889 83.6294 150.27 84.0965 152.263 84.9899L153.288 82.7041C150.908 81.6373 148.163 81.1244 145.086 81.1244V83.6294ZM152.287 85.0002C154.318 85.8609 155.831 87.0745 156.885 88.6227L158.956 87.213C157.598 85.218 155.68 83.7176 153.264 82.6937L152.287 85.0002ZM156.903 88.6479C157.977 90.1452 158.534 91.9371 158.534 94.0808H161.039C161.039 91.4751 160.352 89.1583 158.938 87.1878L156.903 88.6479ZM158.534 94.0808C158.534 96.047 158.121 97.8778 157.3 99.5886L159.559 100.673C160.547 98.614 161.039 96.4115 161.039 94.0808H158.534ZM157.3 99.5886C156.495 101.266 154.874 103.288 152.319 105.658L154.023 107.494C156.67 105.039 158.554 102.764 159.559 100.673L157.3 99.5886ZM152.311 105.665L143.208 114.26L144.928 116.081L154.031 107.487L152.311 105.665ZM144.068 116.423H161.087V113.918H144.068V116.423ZM172.954 120.881L173.623 119.822L173.623 119.822L172.954 120.881ZM166.904 113.87L165.768 114.396L165.772 114.405L165.776 114.413L166.904 113.87ZM166.904 91.8757L165.773 91.3377L165.77 91.3437L166.904 91.8757ZM172.954 84.8081L173.623 85.8667L173.623 85.8667L172.954 84.8081ZM190.482 84.8081L189.812 85.8667L189.812 85.8667L190.482 84.8081ZM196.475 91.8757L195.338 92.4023L195.342 92.4107L195.346 92.419L196.475 91.8757ZM196.475 113.87L195.344 113.332L195.341 113.338L196.475 113.87ZM190.482 120.881L189.812 119.822L189.812 119.822L190.482 120.881ZM187.372 112.456L186.333 111.757L186.328 111.764L186.324 111.77L187.372 112.456ZM187.372 93.2326L186.324 93.9186L186.328 93.9252L186.333 93.9317L187.372 93.2326ZM176.064 93.2326L175.025 92.5335L175.02 92.5401L175.016 92.5467L176.064 93.2326ZM176.064 112.456L175.016 113.142L175.02 113.149L175.025 113.155L176.064 112.456ZM181.718 122.06C178.655 122.06 175.97 121.306 173.623 119.822L172.285 121.939C175.064 123.697 178.222 124.565 181.718 124.565V122.06ZM173.623 119.822C171.281 118.341 169.413 116.194 168.033 113.327L165.776 114.413C167.335 117.652 169.501 120.179 172.285 121.939L173.623 119.822ZM168.041 113.343C166.701 110.453 166.008 106.966 166.008 102.844H163.503C163.503 107.242 164.242 111.105 165.768 114.396L168.041 113.343ZM166.008 102.844C166.008 98.7221 166.702 95.2566 168.038 92.4076L165.77 91.3437C164.242 94.6012 163.503 98.4481 163.503 102.844H166.008ZM168.035 92.4136C169.417 89.5082 171.285 87.3454 173.623 85.8667L172.285 83.7496C169.497 85.5126 167.331 88.0614 165.773 91.3377L168.035 92.4136ZM173.623 85.8667C175.97 84.3829 178.655 83.6294 181.718 83.6294V81.1244C178.222 81.1244 175.064 81.9918 172.285 83.7496L173.623 85.8667ZM181.718 83.6294C184.78 83.6294 187.466 84.3829 189.812 85.8667L191.151 83.7496C188.371 81.9918 185.214 81.1244 181.718 81.1244V83.6294ZM189.812 85.8667C192.147 87.3434 193.995 89.5022 195.338 92.4023L197.611 91.3491C196.09 88.0675 193.942 85.5146 191.151 83.7496L189.812 85.8667ZM195.346 92.419C196.717 95.2649 197.427 98.7262 197.427 102.844H199.932C199.932 98.444 199.173 94.5928 197.603 91.3323L195.346 92.419ZM197.427 102.844C197.427 106.962 196.717 110.445 195.344 113.332L197.606 114.408C199.173 111.113 199.932 107.246 199.932 102.844H197.427ZM195.341 113.338C193.998 116.2 192.151 118.343 189.812 119.822L191.151 121.939C193.938 120.177 196.087 117.646 197.609 114.402L195.341 113.338ZM189.812 119.822C187.466 121.306 184.78 122.06 181.718 122.06V124.565C185.214 124.565 188.371 123.697 191.151 121.939L189.812 119.822ZM181.718 116.819C184.566 116.819 186.839 115.557 188.42 113.142L186.324 111.77C185.191 113.502 183.694 114.314 181.718 114.314V116.819ZM188.411 113.155C190.014 110.773 190.716 107.267 190.716 102.844H188.211C188.211 107.092 187.519 109.993 186.333 111.757L188.411 113.155ZM190.716 102.844C190.716 98.4225 190.014 94.9158 188.411 92.5335L186.333 93.9317C187.519 95.6958 188.211 98.597 188.211 102.844H190.716ZM188.42 92.5467C186.839 90.1316 184.566 88.8705 181.718 88.8705V91.3754C183.694 91.3754 185.191 92.1874 186.324 93.9186L188.42 92.5467ZM181.718 88.8705C178.901 88.8705 176.637 90.136 175.025 92.5335L177.103 93.9317C178.279 92.183 179.785 91.3754 181.718 91.3754V88.8705ZM175.016 92.5467C173.459 94.9258 172.776 98.4265 172.776 102.844H175.281C175.281 98.593 175.955 95.6858 177.112 93.9186L175.016 92.5467ZM172.776 102.844C172.776 107.263 173.459 110.763 175.016 113.142L177.112 111.77C175.955 110.003 175.281 107.096 175.281 102.844H172.776ZM175.025 113.155C176.637 115.553 178.901 116.819 181.718 116.819V114.314C179.785 114.314 178.279 113.506 177.103 111.757L175.025 113.155ZM232.37 115.17H233.622V113.918H232.37V115.17ZM232.37 122.634V123.886H233.622V122.634H232.37ZM202.46 122.634H201.207V123.886H202.46V122.634ZM202.46 116.697L201.6 115.786L201.207 116.157V116.697H202.46ZM217.726 102.279L218.586 103.19L218.59 103.186L217.726 102.279ZM221.005 98.3213L222.117 98.8967L222.121 98.8891L222.125 98.8814L221.005 98.3213ZM220.213 91.3668L219.418 92.3346L219.437 92.35L219.456 92.3647L220.213 91.3668ZM210.828 91.0841L211.351 92.2222L211.363 92.2164L211.376 92.2104L210.828 91.0841ZM207.322 94.0242L206.644 95.0772L207.648 95.7235L208.341 94.7522L207.322 94.0242ZM200.65 89.7271L199.611 89.0285L198.898 90.0885L199.972 90.7801L200.65 89.7271ZM207.039 84.3558L207.574 85.4884L207.581 85.4853L207.587 85.4823L207.039 84.3558ZM224.058 83.847L223.546 84.9899L223.558 84.9951L223.569 85.0002L224.058 83.847ZM229.203 87.9179L228.168 88.6227L228.177 88.6354L228.186 88.6479L229.203 87.9179ZM229.712 100.131L230.841 100.673L230.841 100.673L229.712 100.131ZM224.454 106.576L223.602 105.658L223.594 105.665L224.454 106.576ZM215.351 115.17L214.491 114.26L212.2 116.423H215.351V115.17ZM231.117 115.17V122.634H233.622V115.17H231.117ZM232.37 121.381H202.46V123.886H232.37V121.381ZM203.712 122.634V116.697H201.207V122.634H203.712ZM203.32 117.607L218.586 103.19L216.866 101.369L201.6 115.786L203.32 117.607ZM218.59 103.186C220.243 101.609 221.456 100.176 222.117 98.8967L219.892 97.7459C219.423 98.6531 218.45 99.858 216.861 101.373L218.59 103.186ZM222.125 98.8814C222.764 97.6039 223.106 96.3013 223.106 94.9854H220.601C220.601 95.8557 220.377 96.777 219.885 97.7612L222.125 98.8814ZM223.106 94.9854C223.106 93.0789 222.426 91.4736 220.97 90.369L219.456 92.3647C220.187 92.9186 220.601 93.7256 220.601 94.9854H223.106ZM221.008 90.399C219.639 89.2738 217.74 88.8139 215.521 88.8139V91.3189C217.447 91.3189 218.677 91.7259 219.418 92.3346L221.008 90.399ZM215.521 88.8139C213.619 88.8139 211.864 89.187 210.28 89.9578L211.376 92.2104C212.58 91.6243 213.954 91.3189 215.521 91.3189V88.8139ZM210.305 89.946C208.701 90.6831 207.365 91.8097 206.303 93.2962L208.341 94.7522C209.164 93.6002 210.166 92.7667 211.351 92.2222L210.305 89.946ZM208 92.9712L201.329 88.6742L199.972 90.7801L206.644 95.0772L208 92.9712ZM201.69 90.4258C203.099 88.3295 205.047 86.6818 207.574 85.4884L206.505 83.2233C203.604 84.593 201.293 86.5261 199.611 89.0285L201.69 90.4258ZM207.587 85.4823C210.105 84.2583 213.022 83.6294 216.369 83.6294V81.1244C212.704 81.1244 209.402 81.8148 206.492 83.2294L207.587 85.4823ZM216.369 83.6294C219.171 83.6294 221.553 84.0965 223.546 84.9899L224.57 82.7041C222.191 81.6373 219.446 81.1244 216.369 81.1244V83.6294ZM223.569 85.0002C225.601 85.8609 227.114 87.0745 228.168 88.6227L230.239 87.213C228.88 85.218 226.963 83.7176 224.547 82.6937L223.569 85.0002ZM228.186 88.6479C229.26 90.1452 229.817 91.9371 229.817 94.0808H232.322C232.322 91.4751 231.635 89.1583 230.221 87.1878L228.186 88.6479ZM229.817 94.0808C229.817 96.047 229.404 97.8778 228.583 99.5886L230.841 100.673C231.829 98.614 232.322 96.4115 232.322 94.0808H229.817ZM228.583 99.5886C227.778 101.266 226.157 103.288 223.602 105.658L225.306 107.494C227.953 105.039 229.837 102.764 230.841 100.673L228.583 99.5886ZM223.594 105.665L214.491 114.26L216.211 116.081L225.314 107.487L223.594 105.665ZM215.351 116.423H232.37V113.918H215.351V116.423ZM251.415 83.0554H252.667V81.8029H251.415V83.0554ZM251.415 122.634V123.886H252.667V122.634H251.415ZM242.255 122.634H241.003V123.886H242.255V122.634ZM242.255 90.4056H243.508V89.1532H242.255V90.4056ZM234.34 90.4056H233.087V91.6581H234.34V90.4056ZM234.34 83.0554V81.8029H233.087V83.0554H234.34ZM250.162 83.0554V122.634H252.667V83.0554H250.162ZM251.415 121.381H242.255V123.886H251.415V121.381ZM243.508 122.634V90.4056H241.003V122.634H243.508ZM242.255 89.1532H234.34V91.6581H242.255V89.1532ZM235.592 90.4056V83.0554H233.087V90.4056H235.592ZM234.34 84.3079H251.415V81.8029H234.34V84.3079Z" fill="white"/>
<g filter="url(#filter0_f)">
<path d="M161.087 115.17H162.876V113.381H161.087V115.17ZM161.087 122.634V124.423H162.876V122.634H161.087ZM131.177 122.634H129.388V124.423H131.177V122.634ZM131.177 116.697L129.948 115.396L129.388 115.926V116.697H131.177ZM146.443 102.279L147.671 103.58L147.678 103.574L146.443 102.279ZM149.722 98.3213L151.311 99.1433L151.317 99.1324L151.323 99.1215L149.722 98.3213ZM148.931 91.3668L147.795 92.7494L147.822 92.7714L147.849 92.7923L148.931 91.3668ZM139.545 91.0841L140.292 92.71L140.31 92.7017L140.328 92.6931L139.545 91.0841ZM136.039 94.0242L135.071 95.5285L136.504 96.4518L137.495 95.0642L136.039 94.0242ZM129.368 89.7271L127.883 88.729L126.865 90.2434L128.399 91.2314L129.368 89.7271ZM135.757 84.3558L136.521 85.9737L136.53 85.9694L136.539 85.965L135.757 84.3558ZM152.775 83.847L152.043 85.4797L152.06 85.4872L152.077 85.4944L152.775 83.847ZM157.921 87.9179L156.442 88.9248L156.454 88.943L156.467 88.9608L157.921 87.9179ZM158.429 100.131L160.042 100.905L160.042 100.905L158.429 100.131ZM153.171 106.576L151.954 105.264L151.949 105.27L151.943 105.275L153.171 106.576ZM144.068 115.17L142.84 113.869L139.567 116.96H144.068V115.17ZM159.298 115.17V122.634H162.876V115.17H159.298ZM161.087 120.844H131.177V124.423H161.087V120.844ZM132.966 122.634V116.697H129.388V122.634H132.966ZM132.406 117.998L147.671 103.58L145.214 100.978L129.948 115.396L132.406 117.998ZM147.678 103.574C149.344 101.985 150.609 100.502 151.311 99.1433L148.133 97.4993C147.705 98.3269 146.783 99.4826 145.208 100.984L147.678 103.574ZM151.323 99.1215C151.993 97.7811 152.36 96.3968 152.36 94.9854H148.781C148.781 95.7603 148.583 96.5998 148.122 97.5211L151.323 99.1215ZM152.36 94.9854C152.36 92.9403 151.624 91.1639 150.012 89.9413L147.849 92.7923C148.424 93.2282 148.781 93.8642 148.781 94.9854H152.36ZM150.066 89.9842C148.562 88.7483 146.52 88.2771 144.238 88.2771V91.8556C146.102 91.8556 147.189 92.2514 147.795 92.7494L150.066 89.9842ZM144.238 88.2771C142.265 88.2771 140.428 88.6647 138.762 89.4752L140.328 92.6931C141.451 92.1466 142.743 91.8556 144.238 91.8556V88.2771ZM138.798 89.4583C137.104 90.2366 135.696 91.4261 134.583 92.9842L137.495 95.0642C138.267 93.9838 139.197 93.2132 140.292 92.71L138.798 89.4583ZM137.008 92.52L130.337 88.2229L128.399 91.2314L135.071 95.5285L137.008 92.52ZM130.853 90.7253C132.203 88.716 134.073 87.1294 136.521 85.9737L134.993 82.7379C132.012 84.1454 129.623 86.1397 127.883 88.729L130.853 90.7253ZM136.539 85.965C138.973 84.782 141.808 84.1662 145.086 84.1662V80.5877C141.353 80.5877 137.969 81.2911 134.975 82.7466L136.539 85.965ZM145.086 84.1662C147.83 84.1662 150.134 84.6235 152.043 85.4797L153.507 82.2142C151.045 81.1104 148.222 80.5877 145.086 80.5877V84.1662ZM152.077 85.4944C154.026 86.3202 155.453 87.4723 156.442 88.9248L159.4 86.9109C157.976 84.8202 155.972 83.2584 153.473 82.1995L152.077 85.4944ZM156.467 88.9608C157.468 90.3567 157.997 92.0361 157.997 94.0808H161.576C161.576 91.3761 160.861 88.9469 159.374 86.8749L156.467 88.9608ZM157.997 94.0808C157.997 95.9689 157.602 97.7201 156.816 99.3563L160.042 100.905C161.066 98.7717 161.576 96.4896 161.576 94.0808H157.997ZM156.816 99.3563C156.054 100.945 154.489 102.913 151.954 105.264L154.388 107.888C157.055 105.414 158.996 103.085 160.042 100.905L156.816 99.3563ZM151.943 105.275L142.84 113.869L145.296 116.471L154.399 107.877L151.943 105.275ZM144.068 116.96H161.087V113.381H144.068V116.96ZM172.954 120.881L173.91 119.369L173.91 119.369L172.954 120.881ZM166.904 113.87L165.281 114.622L165.286 114.634L165.292 114.646L166.904 113.87ZM166.904 91.8757L165.288 91.1072L165.284 91.1157L166.904 91.8757ZM172.954 84.8081L173.91 86.3204L173.91 86.3204L172.954 84.8081ZM190.482 84.8081L189.525 86.3204L189.525 86.3204L190.482 84.8081ZM196.475 91.8757L194.851 92.628L194.857 92.64L194.863 92.6519L196.475 91.8757ZM196.475 113.87L194.859 113.101L194.855 113.11L196.475 113.87ZM190.482 120.881L189.525 119.369L189.525 119.369L190.482 120.881ZM187.372 112.456L185.887 111.458L185.881 111.467L185.875 111.476L187.372 112.456ZM187.372 93.2326L185.875 94.2125L185.881 94.222L185.887 94.2314L187.372 93.2326ZM176.064 93.2326L174.579 92.2339L174.573 92.2433L174.567 92.2527L176.064 93.2326ZM176.064 112.456L174.567 113.436L174.573 113.446L174.579 113.455L176.064 112.456ZM181.718 121.523C178.748 121.523 176.164 120.794 173.91 119.369L171.998 122.393C174.87 124.21 178.129 125.101 181.718 125.101V121.523ZM173.91 119.369C171.663 117.947 169.859 115.881 168.516 113.094L165.292 114.646C166.89 117.965 169.119 120.573 171.998 122.393L173.91 119.369ZM168.528 113.118C167.228 110.314 166.545 106.907 166.545 102.844H162.966C162.966 107.3 163.715 111.244 165.281 114.622L168.528 113.118ZM166.545 102.844C166.545 98.7808 167.229 95.397 168.524 92.6356L165.284 91.1157C163.715 94.4607 162.966 98.3894 162.966 102.844H166.545ZM168.52 92.6442C169.864 89.8182 171.668 87.7381 173.91 86.3204L171.998 83.2959C169.113 85.1198 166.884 87.7514 165.288 91.1072L168.52 92.6442ZM173.91 86.3204C176.164 84.8953 178.748 84.1662 181.718 84.1662V80.5877C178.129 80.5877 174.87 81.4794 171.998 83.2959L173.91 86.3204ZM181.718 84.1662C184.687 84.1662 187.272 84.8953 189.525 86.3204L191.438 83.2959C188.565 81.4794 185.307 80.5877 181.718 80.5877V84.1662ZM189.525 86.3204C191.763 87.7352 193.545 89.8096 194.851 92.628L198.098 91.1234C196.54 87.76 194.327 85.1227 191.438 83.2959L189.525 86.3204ZM194.863 92.6519C196.19 95.4089 196.891 98.7867 196.891 102.844H200.469C200.469 98.3835 199.7 94.4488 198.087 91.0995L194.863 92.6519ZM196.891 102.844C196.891 106.901 196.19 110.302 194.859 113.101L198.091 114.638C199.699 111.256 200.469 107.306 200.469 102.844H196.891ZM194.855 113.11C193.551 115.89 191.768 117.95 189.525 119.369L191.438 122.393C194.321 120.57 196.534 117.956 198.095 114.63L194.855 113.11ZM189.525 119.369C187.272 120.794 184.687 121.523 181.718 121.523V125.101C185.307 125.101 188.565 124.21 191.438 122.393L189.525 119.369ZM181.718 117.355C184.753 117.355 187.192 115.998 188.869 113.436L185.875 111.476C184.838 113.061 183.507 113.777 181.718 113.777V117.355ZM188.856 113.455C190.548 110.94 191.253 107.304 191.253 102.844H187.675C187.675 107.055 186.985 109.826 185.887 111.458L188.856 113.455ZM191.253 102.844C191.253 98.385 190.548 94.7487 188.856 92.2339L185.887 94.2314C186.985 95.8629 187.675 98.6344 187.675 102.844H191.253ZM188.869 92.2527C187.192 89.6911 184.753 88.3337 181.718 88.3337V91.9122C183.507 91.9122 184.838 92.6279 185.875 94.2125L188.869 92.2527ZM181.718 88.3337C178.711 88.3337 176.286 89.6974 174.579 92.2339L177.548 94.2314C178.631 92.6216 179.975 91.9122 181.718 91.9122V88.3337ZM174.567 92.2527C172.924 94.7629 172.239 98.3908 172.239 102.844H175.818C175.818 98.6287 176.49 95.8487 177.561 94.2125L174.567 92.2527ZM172.239 102.844C172.239 107.298 172.924 110.926 174.567 113.436L177.561 111.476C176.49 109.84 175.818 107.06 175.818 102.844H172.239ZM174.579 113.455C176.286 115.992 178.711 117.355 181.718 117.355V113.777C179.975 113.777 178.631 113.067 177.548 111.458L174.579 113.455ZM232.37 115.17H234.159V113.381H232.37V115.17ZM232.37 122.634V124.423H234.159V122.634H232.37ZM202.46 122.634H200.67V124.423H202.46V122.634ZM202.46 116.697L201.231 115.396L200.67 115.926V116.697H202.46ZM217.726 102.279L218.954 103.58L218.96 103.574L217.726 102.279ZM221.005 98.3213L222.594 99.1433L222.6 99.1324L222.605 99.1215L221.005 98.3213ZM220.213 91.3668L219.078 92.7494L219.104 92.7714L219.132 92.7923L220.213 91.3668ZM210.828 91.0841L211.575 92.71L211.593 92.7017L211.61 92.6931L210.828 91.0841ZM207.322 94.0242L206.353 95.5285L207.787 96.4518L208.778 95.0642L207.322 94.0242ZM200.65 89.7271L199.165 88.729L198.148 90.2434L199.682 91.2314L200.65 89.7271ZM207.039 84.3558L207.804 85.9737L207.813 85.9694L207.822 85.965L207.039 84.3558ZM224.058 83.847L223.326 85.4797L223.343 85.4872L223.36 85.4944L224.058 83.847ZM229.203 87.9179L227.724 88.9248L227.737 88.943L227.749 88.9608L229.203 87.9179ZM229.712 100.131L231.325 100.905L231.325 100.905L229.712 100.131ZM224.454 106.576L223.237 105.264L223.231 105.27L223.226 105.275L224.454 106.576ZM215.351 115.17L214.123 113.869L210.849 116.96H215.351V115.17ZM230.58 115.17V122.634H234.159V115.17H230.58ZM232.37 120.844H202.46V124.423H232.37V120.844ZM204.249 122.634V116.697H200.67V122.634H204.249ZM203.688 117.998L218.954 103.58L216.497 100.978L201.231 115.396L203.688 117.998ZM218.96 103.574C220.627 101.985 221.891 100.502 222.594 99.1433L219.416 97.4993C218.988 98.3269 218.066 99.4826 216.491 100.984L218.96 103.574ZM222.605 99.1215C223.275 97.7811 223.642 96.3968 223.642 94.9854H220.064C220.064 95.7603 219.865 96.5998 219.405 97.5211L222.605 99.1215ZM223.642 94.9854C223.642 92.9403 222.906 91.1639 221.295 89.9413L219.132 92.7923C219.707 93.2282 220.064 93.8642 220.064 94.9854H223.642ZM221.349 89.9842C219.845 88.7483 217.803 88.2771 215.521 88.2771V91.8556C217.385 91.8556 218.471 92.2514 219.078 92.7494L221.349 89.9842ZM215.521 88.2771C213.548 88.2771 211.711 88.6647 210.045 89.4752L211.61 92.6931C212.734 92.1466 214.026 91.8556 215.521 91.8556V88.2771ZM210.081 89.4583C208.387 90.2366 206.979 91.4261 205.866 92.9842L208.778 95.0642C209.55 93.9838 210.479 93.2132 211.575 92.71L210.081 89.4583ZM208.291 92.52L201.619 88.2229L199.682 91.2314L206.353 95.5285L208.291 92.52ZM202.135 90.7253C203.486 88.716 205.356 87.1294 207.804 85.9737L206.275 82.7379C203.295 84.1454 200.906 86.1397 199.165 88.729L202.135 90.7253ZM207.822 85.965C210.255 84.782 213.09 84.1662 216.369 84.1662V80.5877C212.636 80.5877 209.251 81.2911 206.257 82.7466L207.822 85.965ZM216.369 84.1662C219.112 84.1662 221.416 84.6235 223.326 85.4797L224.79 82.2142C222.328 81.1104 219.505 80.5877 216.369 80.5877V84.1662ZM223.36 85.4944C225.309 86.3202 226.735 87.4723 227.724 88.9248L230.682 86.9109C229.259 84.8202 227.255 83.2584 224.756 82.1995L223.36 85.4944ZM227.749 88.9608C228.751 90.3567 229.28 92.0361 229.28 94.0808H232.858C232.858 91.3761 232.144 88.9469 230.657 86.8749L227.749 88.9608ZM229.28 94.0808C229.28 95.9689 228.884 97.7201 228.099 99.3563L231.325 100.905C232.349 98.7717 232.858 96.4896 232.858 94.0808H229.28ZM228.099 99.3563C227.337 100.945 225.772 102.913 223.237 105.264L225.671 107.888C228.338 105.414 230.279 103.085 231.325 100.905L228.099 99.3563ZM223.226 105.275L214.123 113.869L216.579 116.471L225.682 107.877L223.226 105.275ZM215.351 116.96H232.37V113.381H215.351V116.96ZM251.415 83.0554H253.204V81.2661H251.415V83.0554ZM251.415 122.634V124.423H253.204V122.634H251.415ZM242.255 122.634H240.466V124.423H242.255V122.634ZM242.255 90.4056H244.045V88.6164H242.255V90.4056ZM234.34 90.4056H232.55V92.1949H234.34V90.4056ZM234.34 83.0554V81.2661H232.55V83.0554H234.34ZM249.626 83.0554V122.634H253.204V83.0554H249.626ZM251.415 120.844H242.255V124.423H251.415V120.844ZM244.045 122.634V90.4056H240.466V122.634H244.045ZM242.255 88.6164H234.34V92.1949H242.255V88.6164ZM236.129 90.4056V83.0554H232.55V90.4056H236.129ZM234.34 84.8446H251.415V81.2661H234.34V84.8446Z" fill="url(#paint0_linear)"/>
</g>
<path d="M154.933 47.5247V72.5742H150.281V61.8387H137.327V72.5742H132.675V47.5247H137.327V57.8666H150.281V47.5247H154.933ZM177.892 66.777H165.367L162.898 72.5742H158.103L169.375 47.5247H173.955L185.264 72.5742H180.397L177.892 66.777ZM176.353 63.127L171.629 52.1768L166.942 63.127H176.353ZM199.694 72.9321C197.165 72.9321 194.875 72.3834 192.823 71.286C190.796 70.1647 189.197 68.6259 188.028 66.6697C186.883 64.7134 186.311 62.5067 186.311 60.0495C186.311 57.5922 186.895 55.3855 188.064 53.4292C189.233 51.473 190.831 49.9462 192.859 48.8488C194.911 47.7275 197.201 47.1669 199.73 47.1669C201.782 47.1669 203.654 47.5247 205.348 48.2404C207.042 48.9561 208.473 49.9939 209.642 51.3537L206.636 54.1807C204.823 52.2245 202.593 51.2464 199.945 51.2464C198.227 51.2464 196.688 51.6281 195.328 52.3915C193.969 53.131 192.907 54.1688 192.143 55.5048C191.38 56.8407 190.998 58.3556 190.998 60.0495C190.998 61.7433 191.38 63.2582 192.143 64.5942C192.907 65.9301 193.969 66.9798 195.328 67.7432C196.688 68.4828 198.227 68.8526 199.945 68.8526C202.593 68.8526 204.823 67.8625 206.636 65.8824L209.642 68.7452C208.473 70.1051 207.03 71.1428 205.312 71.8585C203.619 72.5742 201.746 72.9321 199.694 72.9321ZM222.724 62.0892L218.752 66.1687V72.5742H214.1V47.5247H218.752V60.3715L231.133 47.5247H236.358L225.837 58.7254L237.002 72.5742H231.563L222.724 62.0892ZM247.411 72.9321C245.479 72.9321 243.606 72.6577 241.793 72.109C240.003 71.5603 238.584 70.8327 237.534 69.9261L239.145 66.3118C240.17 67.123 241.423 67.791 242.902 68.3158C244.405 68.8168 245.908 69.0673 247.411 69.0673C249.272 69.0673 250.655 68.7691 251.562 68.1727C252.492 67.5762 252.958 66.789 252.958 65.8109C252.958 65.0952 252.695 64.5107 252.17 64.0574C251.669 63.5803 251.025 63.2105 250.238 62.9481C249.451 62.6856 248.377 62.3874 247.017 62.0534C245.109 61.6002 243.558 61.1469 242.365 60.6936C241.196 60.2403 240.182 59.5365 239.323 58.5823C238.489 57.6042 238.071 56.292 238.071 54.6459C238.071 53.2622 238.441 52.0098 239.18 50.8885C239.944 49.7434 241.077 48.8368 242.58 48.1688C244.107 47.5009 245.968 47.1669 248.162 47.1669C249.689 47.1669 251.192 47.3577 252.671 47.7394C254.15 48.1211 255.427 48.6698 256.5 49.3855L255.033 52.9998C253.936 52.3557 252.791 51.8666 251.598 51.5326C250.405 51.1986 249.248 51.0316 248.127 51.0316C246.29 51.0316 244.918 51.3418 244.011 51.9621C243.129 52.5823 242.687 53.4054 242.687 54.4312C242.687 55.1469 242.938 55.7314 243.439 56.1847C243.964 56.638 244.62 56.9958 245.407 57.2582C246.194 57.5207 247.268 57.8189 248.628 58.1529C250.488 58.5823 252.015 59.0356 253.208 59.5127C254.401 59.966 255.415 60.6697 256.25 61.624C257.109 62.5783 257.538 63.8665 257.538 65.4888C257.538 66.8725 257.156 68.1249 256.393 69.2462C255.653 70.3675 254.52 71.2621 252.993 71.9301C251.467 72.5981 249.606 72.9321 247.411 72.9321Z" fill="white"/>
<g filter="url(#filter1_f)">
<path d="M154.933 47.5247V72.5742H150.281V61.8387H137.327V72.5742H132.675V47.5247H137.327V57.8666H150.281V47.5247H154.933ZM177.892 66.777H165.367L162.898 72.5742H158.103L169.375 47.5247H173.955L185.264 72.5742H180.397L177.892 66.777ZM176.353 63.127L171.629 52.1768L166.942 63.127H176.353ZM199.694 72.9321C197.165 72.9321 194.875 72.3834 192.823 71.286C190.796 70.1647 189.197 68.6259 188.028 66.6697C186.883 64.7134 186.311 62.5067 186.311 60.0495C186.311 57.5922 186.895 55.3855 188.064 53.4292C189.233 51.473 190.831 49.9462 192.859 48.8488C194.911 47.7275 197.201 47.1669 199.73 47.1669C201.782 47.1669 203.654 47.5247 205.348 48.2404C207.042 48.9561 208.473 49.9939 209.642 51.3537L206.636 54.1807C204.823 52.2245 202.593 51.2464 199.945 51.2464C198.227 51.2464 196.688 51.6281 195.328 52.3915C193.969 53.131 192.907 54.1688 192.143 55.5048C191.38 56.8407 190.998 58.3556 190.998 60.0495C190.998 61.7433 191.38 63.2582 192.143 64.5942C192.907 65.9301 193.969 66.9798 195.328 67.7432C196.688 68.4828 198.227 68.8526 199.945 68.8526C202.593 68.8526 204.823 67.8625 206.636 65.8824L209.642 68.7452C208.473 70.1051 207.03 71.1428 205.312 71.8585C203.619 72.5742 201.746 72.9321 199.694 72.9321ZM222.724 62.0892L218.752 66.1687V72.5742H214.1V47.5247H218.752V60.3715L231.133 47.5247H236.358L225.837 58.7254L237.002 72.5742H231.563L222.724 62.0892ZM247.411 72.9321C245.479 72.9321 243.606 72.6577 241.793 72.109C240.003 71.5603 238.584 70.8327 237.534 69.9261L239.145 66.3118C240.17 67.123 241.423 67.791 242.902 68.3158C244.405 68.8168 245.908 69.0673 247.411 69.0673C249.272 69.0673 250.655 68.7691 251.562 68.1727C252.492 67.5762 252.958 66.789 252.958 65.8109C252.958 65.0952 252.695 64.5107 252.17 64.0574C251.669 63.5803 251.025 63.2105 250.238 62.9481C249.451 62.6856 248.377 62.3874 247.017 62.0534C245.109 61.6002 243.558 61.1469 242.365 60.6936C241.196 60.2403 240.182 59.5365 239.323 58.5823C238.489 57.6042 238.071 56.292 238.071 54.6459C238.071 53.2622 238.441 52.0098 239.18 50.8885C239.944 49.7434 241.077 48.8368 242.58 48.1688C244.107 47.5009 245.968 47.1669 248.162 47.1669C249.689 47.1669 251.192 47.3577 252.671 47.7394C254.15 48.1211 255.427 48.6698 256.5 49.3855L255.033 52.9998C253.936 52.3557 252.791 51.8666 251.598 51.5326C250.405 51.1986 249.248 51.0316 248.127 51.0316C246.29 51.0316 244.918 51.3418 244.011 51.9621C243.129 52.5823 242.687 53.4054 242.687 54.4312C242.687 55.1469 242.938 55.7314 243.439 56.1847C243.964 56.638 244.62 56.9958 245.407 57.2582C246.194 57.5207 247.268 57.8189 248.628 58.1529C250.488 58.5823 252.015 59.0356 253.208 59.5127C254.401 59.966 255.415 60.6697 256.25 61.624C257.109 62.5783 257.538 63.8665 257.538 65.4888C257.538 66.8725 257.156 68.1249 256.393 69.2462C255.653 70.3675 254.52 71.2621 252.993 71.9301C251.467 72.5981 249.606 72.9321 247.411 72.9321Z" fill="white"/>
</g>
<g filter="url(#filter2_f)">
<path d="M144.853 25.3876L141.503 32.9024H140.956L137.606 25.3876H138.207L141.245 32.1939L144.284 25.3876H144.853ZM146.064 25.3876H146.612V32.9024H146.064V25.3876ZM154.448 32.9024L152.655 30.3903C152.39 30.4261 152.147 30.444 151.925 30.444H149.778V32.9024H149.23V25.3876H151.925C152.87 25.3876 153.611 25.613 154.147 26.0639C154.684 26.5076 154.953 27.1267 154.953 27.9211C154.953 28.5152 154.799 29.0162 154.491 29.4241C154.19 29.8249 153.757 30.1076 153.192 30.2722L155.071 32.9024H154.448ZM151.925 29.9609C152.727 29.9609 153.339 29.7855 153.761 29.4348C154.183 29.077 154.394 28.5724 154.394 27.9211C154.394 27.2698 154.183 26.7689 153.761 26.4182C153.339 26.0603 152.727 25.8814 151.925 25.8814H149.778V29.9609H151.925ZM158.291 25.8814H155.585V25.3876H161.544V25.8814H158.838V32.9024H158.291V25.8814ZM165.696 32.9561C164.744 32.9561 164.004 32.6805 163.474 32.1294C162.952 31.5784 162.69 30.7732 162.69 29.714V25.3876H163.238V29.6925C163.238 30.6157 163.449 31.3064 163.871 31.7644C164.293 32.2225 164.905 32.4515 165.707 32.4515C166.501 32.4515 167.11 32.2225 167.532 31.7644C167.954 31.3064 168.165 30.6157 168.165 29.6925V25.3876H168.713V29.714C168.713 30.7732 168.448 31.5784 167.918 32.1294C167.389 32.6805 166.648 32.9561 165.696 32.9561ZM175.759 30.7875H171.4L170.445 32.9024H169.854L173.311 25.3876H173.859L177.315 32.9024H176.725L175.759 30.7875ZM175.555 30.3259L173.58 25.9887L171.615 30.3259H175.555ZM178.68 25.3876H179.227V32.4086H183.554V32.9024H178.68V25.3876Z" fill="white"/>
</g>
<path d="M144.853 25.3876L141.503 32.9024H140.956L137.606 25.3876H138.207L141.245 32.1939L144.284 25.3876H144.853ZM146.064 25.3876H146.612V32.9024H146.064V25.3876ZM154.448 32.9024L152.655 30.3903C152.39 30.4261 152.147 30.444 151.925 30.444H149.778V32.9024H149.23V25.3876H151.925C152.87 25.3876 153.611 25.613 154.147 26.0639C154.684 26.5076 154.953 27.1267 154.953 27.9211C154.953 28.5152 154.799 29.0162 154.491 29.4241C154.19 29.8249 153.757 30.1076 153.192 30.2722L155.071 32.9024H154.448ZM151.925 29.9609C152.727 29.9609 153.339 29.7855 153.761 29.4348C154.183 29.077 154.394 28.5724 154.394 27.9211C154.394 27.2698 154.183 26.7689 153.761 26.4182C153.339 26.0603 152.727 25.8814 151.925 25.8814H149.778V29.9609H151.925ZM158.291 25.8814H155.585V25.3876H161.544V25.8814H158.838V32.9024H158.291V25.8814ZM165.696 32.9561C164.744 32.9561 164.004 32.6805 163.474 32.1294C162.952 31.5784 162.69 30.7732 162.69 29.714V25.3876H163.238V29.6925C163.238 30.6157 163.449 31.3064 163.871 31.7644C164.293 32.2225 164.905 32.4515 165.707 32.4515C166.501 32.4515 167.11 32.2225 167.532 31.7644C167.954 31.3064 168.165 30.6157 168.165 29.6925V25.3876H168.713V29.714C168.713 30.7732 168.448 31.5784 167.918 32.1294C167.389 32.6805 166.648 32.9561 165.696 32.9561ZM175.759 30.7875H171.4L170.445 32.9024H169.854L173.311 25.3876H173.859L177.315 32.9024H176.725L175.759 30.7875ZM175.555 30.3259L173.58 25.9887L171.615 30.3259H175.555ZM178.68 25.3876H179.227V32.4086H183.554V32.9024H178.68V25.3876Z" fill="white"/>
<g filter="url(#filter3_f)">
<rect x="131.816" y="19.6818" width="57.256" height="17.8925" stroke="white" stroke-width="0.7157"/>
</g>
<g filter="url(#filter4_b)">
<rect x="131.816" y="19.6818" width="57.256" height="17.8925" stroke="white" stroke-width="0.7157"/>
</g>
<path d="M8 108.032C8 133.443 8 133.443 32.8153 133.443H47.6955H73.1402C73.8595 133.443 74.4439 132.857 74.4439 132.181V129.027V108.933V95.4173C74.4439 93.48 74.4439 93.48 72.9604 92.8492L50.9323 82.622C49.0891 81.8111 49.0891 81.8111 49.0891 83.7934V102.851C49.0891 108.032 49.0891 108.032 41.5366 108.032C33.4896 108.032 33.5346 108.032 33.5346 102.851V44.3714V19.8171C33.5346 16.9336 19.6434 7.15698 11.8662 7.15698C8 7.15698 8 10.8964 8 11.4821V108.032Z" fill="white"/>
<path d="M115.713 141.372V52.7063C115.713 30.675 115.758 22.6104 82.401 22.6104C49.1341 22.6104 49.1341 29.3234 49.1341 52.7063V63.6994C49.1341 64.6456 49.4488 64.6456 49.8983 64.8708L72.6457 75.864C74.5338 76.765 74.5338 76.765 74.4889 74.6926V52.2558C74.4889 48.8768 74.4889 48.1108 82.2212 48.1108C90.0434 48.1108 90.1333 48.8768 90.1333 52.1657V132.857C90.1333 135.56 90.1333 135.56 90.8976 136.461C97.3711 141.327 102.496 144.571 111.802 144.571C115.713 144.616 115.713 141.372 115.713 141.372Z" fill="white"/>
<g filter="url(#filter5_f)">
<path d="M8 108.032C8 133.443 8 133.443 32.8153 133.443H47.6955H73.1402C73.8595 133.443 74.4439 132.857 74.4439 132.181V129.027V108.933V95.4173C74.4439 93.48 74.4439 93.48 72.9604 92.8492L50.9323 82.622C49.0891 81.8111 49.0891 81.8111 49.0891 83.7934V102.851C49.0891 108.032 49.0891 108.032 41.5366 108.032C33.4896 108.032 33.5346 108.032 33.5346 102.851V44.3714V19.8171C33.5346 16.9336 19.6434 7.15698 11.8662 7.15698C8 7.15698 8 10.8964 8 11.4821V108.032Z" fill="white"/>
<path d="M115.713 141.372V52.7063C115.713 30.675 115.758 22.6104 82.401 22.6104C49.1341 22.6104 49.1341 29.3234 49.1341 52.7063V63.6994C49.1341 64.6456 49.4488 64.6456 49.8983 64.8708L72.6457 75.864C74.5338 76.765 74.5338 76.765 74.4889 74.6926V52.2558C74.4889 48.8768 74.4889 48.1108 82.2212 48.1108C90.0434 48.1108 90.1333 48.8768 90.1333 52.1657V132.857C90.1333 135.56 90.1333 135.56 90.8976 136.461C97.3711 141.327 102.496 144.571 111.802 144.571C115.713 144.616 115.713 141.372 115.713 141.372Z" fill="white"/>
</g>
<defs>
<filter id="filter0_f" x="124.002" y="77.7248" width="132.065" height="50.2393" filterUnits="userSpaceOnUse" color-interpolation-filters="sRGB">
<feFlood flood-opacity="0" result="BackgroundImageFix"/>
<feBlend mode="normal" in="SourceGraphic" in2="BackgroundImageFix" result="shape"/>
<feGaussianBlur stdDeviation="1.4314" result="effect1_foregroundBlur"/>
</filter>
<filter id="filter1_f" x="129.096" y="43.5884" width="132.02" height="32.9222" filterUnits="userSpaceOnUse" color-interpolation-filters="sRGB">
<feFlood flood-opacity="0" result="BackgroundImageFix"/>
<feBlend mode="normal" in="SourceGraphic" in2="BackgroundImageFix" result="shape"/>
<feGaussianBlur stdDeviation="1.78925" result="effect1_foregroundBlur"/>
</filter>
<filter id="filter2_f" x="134.028" y="21.8091" width="53.1045" height="14.7255" filterUnits="userSpaceOnUse" color-interpolation-filters="sRGB">
<feFlood flood-opacity="0" result="BackgroundImageFix"/>
<feBlend mode="normal" in="SourceGraphic" in2="BackgroundImageFix" result="shape"/>
<feGaussianBlur stdDeviation="1.78925" result="effect1_foregroundBlur"/>
</filter>
<filter id="filter3_f" x="127.88" y="15.7454" width="65.1287" height="25.7652" filterUnits="userSpaceOnUse" color-interpolation-filters="sRGB">
<feFlood flood-opacity="0" result="BackgroundImageFix"/>
<feBlend mode="normal" in="SourceGraphic" in2="BackgroundImageFix" result="shape"/>
<feGaussianBlur stdDeviation="1.78925" result="effect1_foregroundBlur"/>
</filter>
<filter id="filter4_b" x="130.027" y="17.8925" width="60.8345" height="21.471" filterUnits="userSpaceOnUse" color-interpolation-filters="sRGB">
<feFlood flood-opacity="0" result="BackgroundImageFix"/>
<feGaussianBlur in="BackgroundImage" stdDeviation="0.7157"/>
<feComposite in2="SourceAlpha" operator="in" result="effect1_backgroundBlur"/>
<feBlend mode="normal" in="SourceGraphic" in2="effect1_backgroundBlur" result="shape"/>
</filter>
<filter id="filter5_f" x="0.842999" y="-1.85966e-05" width="122.027" height="151.728" filterUnits="userSpaceOnUse" color-interpolation-filters="sRGB">
<feFlood flood-opacity="0" result="BackgroundImageFix"/>
<feBlend mode="normal" in="SourceGraphic" in2="BackgroundImageFix" result="shape"/>
<feGaussianBlur stdDeviation="3.5785" result="effect1_foregroundBlur"/>
</filter>
<linearGradient id="paint0_linear" x1="129.311" y1="94.3927" x2="259.059" y2="94.3868" gradientUnits="userSpaceOnUse">
<stop stop-color="#D240CD"/>
<stop offset="1" stop-color="#3DD2F3"/>
</linearGradient>
</defs>
</svg>
