<svg width="210" height="123" viewBox="0 0 210 123" fill="none" xmlns="http://www.w3.org/2000/svg">
<path d="M110.265 109.247V115.327H109.648V110.463L107.259 114.554H106.955L104.567 110.489V115.327H103.95V109.247H104.48L107.12 113.755L109.735 109.247H110.265ZM113.714 110.723C114.31 110.723 114.767 110.874 115.086 111.175C115.404 111.47 115.564 111.91 115.564 112.495V115.327H114.973V114.614C114.834 114.852 114.628 115.037 114.356 115.17C114.09 115.303 113.771 115.37 113.401 115.37C112.891 115.37 112.486 115.248 112.185 115.005C111.884 114.762 111.733 114.441 111.733 114.041C111.733 113.653 111.872 113.341 112.15 113.103C112.434 112.866 112.883 112.747 113.496 112.747H114.947V112.469C114.947 112.075 114.837 111.777 114.617 111.574C114.397 111.366 114.075 111.262 113.653 111.262C113.363 111.262 113.085 111.311 112.819 111.409C112.553 111.502 112.324 111.632 112.133 111.8L111.855 111.34C112.086 111.143 112.364 110.992 112.689 110.888C113.013 110.778 113.355 110.723 113.714 110.723ZM113.496 114.884C113.844 114.884 114.142 114.806 114.391 114.649C114.64 114.487 114.825 114.255 114.947 113.954V113.207H113.514C112.732 113.207 112.341 113.479 112.341 114.024C112.341 114.29 112.443 114.502 112.645 114.658C112.848 114.808 113.132 114.884 113.496 114.884ZM117.829 111.653C117.974 111.346 118.188 111.114 118.472 110.958C118.762 110.801 119.118 110.723 119.54 110.723V111.323L119.393 111.314C118.912 111.314 118.536 111.462 118.264 111.757C117.991 112.052 117.855 112.466 117.855 112.999V115.327H117.239V110.758H117.829V111.653ZM122.508 115.37C122.056 115.37 121.651 115.272 121.292 115.075C120.939 114.878 120.661 114.603 120.458 114.25C120.256 113.891 120.154 113.488 120.154 113.042C120.154 112.596 120.256 112.197 120.458 111.844C120.661 111.49 120.939 111.215 121.292 111.019C121.651 110.822 122.056 110.723 122.508 110.723C122.902 110.723 123.252 110.801 123.559 110.958C123.872 111.108 124.118 111.331 124.297 111.627L123.837 111.939C123.686 111.713 123.495 111.545 123.264 111.435C123.032 111.32 122.78 111.262 122.508 111.262C122.178 111.262 121.88 111.337 121.613 111.488C121.353 111.632 121.147 111.841 120.997 112.113C120.852 112.385 120.78 112.695 120.78 113.042C120.78 113.396 120.852 113.708 120.997 113.98C121.147 114.247 121.353 114.455 121.613 114.606C121.88 114.751 122.178 114.823 122.508 114.823C122.78 114.823 123.032 114.768 123.264 114.658C123.495 114.548 123.686 114.38 123.837 114.154L124.297 114.467C124.118 114.762 123.872 114.988 123.559 115.144C123.246 115.295 122.896 115.37 122.508 115.37ZM127.769 110.723C128.342 110.723 128.796 110.891 129.132 111.227C129.474 111.557 129.645 112.041 129.645 112.678V115.327H129.028V112.738C129.028 112.263 128.909 111.902 128.672 111.653C128.435 111.404 128.096 111.279 127.656 111.279C127.164 111.279 126.773 111.427 126.483 111.722C126.199 112.012 126.058 112.414 126.058 112.929V115.327H125.441V108.882H126.058V111.557C126.225 111.291 126.457 111.085 126.752 110.94C127.048 110.796 127.386 110.723 127.769 110.723ZM137.336 114.771V115.327H133.071V114.884L135.599 112.408C135.917 112.096 136.131 111.826 136.241 111.6C136.357 111.369 136.415 111.137 136.415 110.906C136.415 110.547 136.291 110.269 136.042 110.072C135.798 109.869 135.448 109.768 134.991 109.768C134.278 109.768 133.725 109.994 133.332 110.445L132.889 110.063C133.126 109.785 133.427 109.571 133.792 109.42C134.163 109.27 134.579 109.195 135.043 109.195C135.662 109.195 136.152 109.342 136.511 109.638C136.875 109.927 137.058 110.327 137.058 110.836C137.058 111.149 136.988 111.45 136.849 111.739C136.71 112.029 136.447 112.362 136.059 112.738L133.992 114.771H137.336ZM139.806 109.247V115.327H139.18V109.803H137.747V109.247H139.806ZM141.328 112.704H143.604V113.242H141.328V112.704ZM148.625 114.771V115.327H144.361V114.884L146.888 112.408C147.207 112.096 147.421 111.826 147.531 111.6C147.647 111.369 147.705 111.137 147.705 110.906C147.705 110.547 147.58 110.269 147.331 110.072C147.088 109.869 146.738 109.768 146.28 109.768C145.568 109.768 145.015 109.994 144.621 110.445L144.178 110.063C144.416 109.785 144.717 109.571 145.082 109.42C145.452 109.27 145.869 109.195 146.332 109.195C146.952 109.195 147.441 109.342 147.8 109.638C148.165 109.927 148.348 110.327 148.348 110.836C148.348 111.149 148.278 111.45 148.139 111.739C148 112.029 147.737 112.362 147.349 112.738L145.281 114.771H148.625ZM152.893 112.139C153.275 112.266 153.568 112.457 153.771 112.712C153.979 112.967 154.083 113.274 154.083 113.633C154.083 113.986 153.988 114.296 153.797 114.562C153.606 114.823 153.33 115.026 152.971 115.17C152.618 115.309 152.201 115.379 151.721 115.379C150.991 115.379 150.418 115.222 150.001 114.91C149.584 114.597 149.376 114.171 149.376 113.633C149.376 113.268 149.474 112.961 149.671 112.712C149.874 112.457 150.166 112.266 150.548 112.139C150.235 112.017 149.998 111.844 149.836 111.618C149.674 111.386 149.593 111.114 149.593 110.801C149.593 110.309 149.784 109.918 150.166 109.629C150.554 109.339 151.072 109.195 151.721 109.195C152.149 109.195 152.523 109.261 152.841 109.394C153.165 109.522 153.417 109.707 153.597 109.95C153.776 110.193 153.866 110.477 153.866 110.801C153.866 111.114 153.782 111.386 153.614 111.618C153.446 111.844 153.206 112.017 152.893 112.139ZM150.218 110.819C150.218 111.155 150.351 111.421 150.618 111.618C150.884 111.815 151.252 111.913 151.721 111.913C152.19 111.913 152.557 111.815 152.824 111.618C153.096 111.421 153.232 111.158 153.232 110.827C153.232 110.486 153.093 110.217 152.815 110.02C152.543 109.823 152.178 109.724 151.721 109.724C151.257 109.724 150.89 109.823 150.618 110.02C150.351 110.217 150.218 110.483 150.218 110.819ZM151.721 114.849C152.259 114.849 152.679 114.739 152.98 114.519C153.287 114.299 153.44 114.001 153.44 113.624C153.44 113.248 153.287 112.953 152.98 112.738C152.679 112.518 152.259 112.408 151.721 112.408C151.188 112.408 150.768 112.518 150.461 112.738C150.16 112.953 150.01 113.248 150.01 113.624C150.01 114.006 150.16 114.308 150.461 114.528C150.762 114.742 151.182 114.849 151.721 114.849ZM155.512 114.423C155.645 114.423 155.755 114.47 155.842 114.562C155.929 114.649 155.972 114.759 155.972 114.892C155.972 114.962 155.96 115.037 155.937 115.118C155.92 115.199 155.891 115.292 155.85 115.396L155.486 116.595H155.069L155.364 115.335C155.271 115.306 155.196 115.254 155.138 115.179C155.08 115.098 155.051 115.002 155.051 114.892C155.051 114.759 155.095 114.649 155.182 114.562C155.268 114.47 155.379 114.423 155.512 114.423ZM163.3 114.771V115.327H159.035V114.884L161.562 112.408C161.881 112.096 162.095 111.826 162.205 111.6C162.321 111.369 162.379 111.137 162.379 110.906C162.379 110.547 162.254 110.269 162.005 110.072C161.762 109.869 161.412 109.768 160.954 109.768C160.242 109.768 159.689 109.994 159.295 110.445L158.852 110.063C159.09 109.785 159.391 109.571 159.756 109.42C160.126 109.27 160.543 109.195 161.007 109.195C161.626 109.195 162.115 109.342 162.474 109.638C162.839 109.927 163.022 110.327 163.022 110.836C163.022 111.149 162.952 111.45 162.813 111.739C162.674 112.029 162.411 112.362 162.023 112.738L159.956 114.771H163.3ZM166.474 115.379C166.005 115.379 165.585 115.254 165.214 115.005C164.85 114.756 164.563 114.4 164.354 113.937C164.152 113.468 164.05 112.918 164.05 112.287C164.05 111.655 164.152 111.108 164.354 110.645C164.563 110.176 164.85 109.817 165.214 109.568C165.585 109.319 166.005 109.195 166.474 109.195C166.943 109.195 167.36 109.319 167.725 109.568C168.095 109.817 168.385 110.176 168.593 110.645C168.802 111.108 168.906 111.655 168.906 112.287C168.906 112.918 168.802 113.468 168.593 113.937C168.385 114.4 168.095 114.756 167.725 115.005C167.36 115.254 166.943 115.379 166.474 115.379ZM166.474 114.806C166.827 114.806 167.137 114.707 167.403 114.51C167.675 114.313 167.887 114.027 168.037 113.65C168.188 113.274 168.263 112.819 168.263 112.287C168.263 111.754 168.188 111.299 168.037 110.923C167.887 110.547 167.675 110.26 167.403 110.063C167.137 109.866 166.827 109.768 166.474 109.768C166.121 109.768 165.808 109.866 165.536 110.063C165.269 110.26 165.061 110.547 164.91 110.923C164.76 111.299 164.685 111.754 164.685 112.287C164.685 112.819 164.76 113.274 164.91 113.65C165.061 114.027 165.269 114.313 165.536 114.51C165.808 114.707 166.121 114.806 166.474 114.806ZM173.936 114.771V115.327H169.672V114.884L172.199 112.408C172.518 112.096 172.732 111.826 172.842 111.6C172.958 111.369 173.016 111.137 173.016 110.906C173.016 110.547 172.891 110.269 172.642 110.072C172.399 109.869 172.048 109.768 171.591 109.768C170.879 109.768 170.326 109.994 169.932 110.445L169.489 110.063C169.727 109.785 170.028 109.571 170.392 109.42C170.763 109.27 171.18 109.195 171.643 109.195C172.263 109.195 172.752 109.342 173.111 109.638C173.476 109.927 173.658 110.327 173.658 110.836C173.658 111.149 173.589 111.45 173.45 111.739C173.311 112.029 173.047 112.362 172.659 112.738L170.592 114.771H173.936ZM176.406 109.247V115.327H175.781V109.803H174.348V109.247H176.406Z" fill="#D3D3D3"/>
<path d="M128.566 92.8912H129.579V91.8779H128.566V92.8912ZM128.566 98.9295V99.9428H129.579V98.9295H128.566ZM104.367 98.9295H103.353V99.9428H104.367V98.9295ZM104.367 94.1263L103.671 93.3896L103.353 93.6895V94.1263H104.367ZM116.718 82.4614L117.414 83.1981L117.417 83.1948L116.718 82.4614ZM119.371 79.2593L120.271 79.7248L120.277 79.7124L119.371 79.2593ZM118.731 73.6326L118.087 74.4157L118.103 74.4281L118.118 74.44L118.731 73.6326ZM111.137 73.4039L111.56 74.3247L111.57 74.32L111.58 74.3151L111.137 73.4039ZM108.301 75.7827L107.752 76.6346L108.564 77.1575L109.125 76.3716L108.301 75.7827ZM102.903 72.306L102.062 71.7408L101.485 72.5984L102.354 73.158L102.903 72.306ZM108.072 67.9603L108.505 68.8767L108.515 68.8717L108.072 67.9603ZM121.841 67.5486L121.427 68.4733L121.436 68.4775L121.446 68.4816L121.841 67.5486ZM126.004 70.8422L125.166 71.4125L125.173 71.4228L125.181 71.4329L126.004 70.8422ZM126.416 80.7231L127.329 81.1616L127.329 81.1616L126.416 80.7231ZM122.161 85.938L121.472 85.195L121.466 85.2012L122.161 85.938ZM114.797 92.8912L114.101 92.1544L112.247 93.9045H114.797V92.8912ZM127.552 92.8912V98.9295H129.579V92.8912H127.552ZM128.566 97.9162H104.367V99.9428H128.566V97.9162ZM105.38 98.9295V94.1263H103.353V98.9295H105.38ZM105.063 94.863L117.414 83.1981L116.022 81.7247L103.671 93.3896L105.063 94.863ZM117.417 83.1948C118.755 81.9195 119.736 80.7596 120.271 79.7248L118.471 78.7937C118.091 79.5277 117.304 80.5025 116.019 81.728L117.417 83.1948ZM120.277 79.7124C120.794 78.6789 121.071 77.625 121.071 76.5603H119.044C119.044 77.2645 118.863 78.0098 118.465 78.8061L120.277 79.7124ZM121.071 76.5603C121.071 75.0178 120.521 73.719 119.343 72.8253L118.118 74.44C118.709 74.8881 119.044 75.5411 119.044 76.5603H121.071ZM119.374 72.8496C118.266 71.9393 116.729 71.5672 114.934 71.5672V73.5939C116.493 73.5939 117.488 73.9232 118.087 74.4157L119.374 72.8496ZM114.934 71.5672C113.396 71.5672 111.976 71.869 110.694 72.4927L111.58 74.3151C112.555 73.841 113.666 73.5939 114.934 73.5939V71.5672ZM110.714 72.4831C109.416 73.0795 108.335 73.991 107.476 75.1937L109.125 76.3716C109.791 75.4396 110.601 74.7652 111.56 74.3247L110.714 72.4831ZM108.849 74.9307L103.452 71.4541L102.354 73.158L107.752 76.6346L108.849 74.9307ZM103.744 72.8713C104.884 71.1753 106.46 69.8422 108.505 68.8766L107.639 67.044C105.293 68.1522 103.423 69.7162 102.062 71.7408L103.744 72.8713ZM108.515 68.8717C110.552 67.8814 112.912 67.3726 115.62 67.3726V65.3459C112.655 65.3459 109.983 65.9044 107.629 67.0489L108.515 68.8717ZM115.62 67.3726C117.887 67.3726 119.814 67.7505 121.427 68.4733L122.256 66.6239C120.33 65.7609 118.11 65.3459 115.62 65.3459V67.3726ZM121.446 68.4816C123.089 69.178 124.314 70.1599 125.166 71.4125L126.842 70.2719C125.743 68.6579 124.192 67.444 122.237 66.6156L121.446 68.4816ZM125.181 71.4329C126.05 72.6443 126.5 74.094 126.5 75.8284H128.527C128.527 73.7202 127.971 71.8458 126.827 70.2515L125.181 71.4329ZM126.5 75.8284C126.5 77.4192 126.167 78.9005 125.502 80.2846L127.329 81.1616C128.129 79.4961 128.527 77.7142 128.527 75.8284H126.5ZM125.502 80.2846C124.851 81.6418 123.539 83.278 121.472 85.195L122.851 86.6809C124.992 84.6944 126.517 82.854 127.329 81.1616L125.502 80.2846ZM121.466 85.2012L114.101 92.1544L115.492 93.628L122.857 86.6748L121.466 85.2012ZM114.797 93.9045H128.566V91.8779H114.797V93.9045ZM138.167 97.5114L138.709 96.655L138.709 96.655L138.167 97.5114ZM133.272 91.8391L132.353 92.2651L132.356 92.2719L132.359 92.2787L133.272 91.8391ZM133.272 74.0444L132.357 73.6091L132.355 73.614L133.272 74.0444ZM138.167 68.3263L138.709 69.1827L138.709 69.1827L138.167 68.3263ZM152.348 68.3263L151.806 69.1827L151.806 69.1827L152.348 68.3263ZM157.197 74.0444L156.278 74.4704L156.281 74.4772L156.284 74.484L157.197 74.0444ZM157.197 91.8391L156.282 91.4038L156.28 91.4087L157.197 91.8391ZM152.348 97.5114L151.806 96.655L151.806 96.655L152.348 97.5114ZM149.832 90.6954L148.991 90.1298L148.984 90.1405L149.832 90.6954ZM149.832 75.1422L148.984 75.6972L148.991 75.7078L149.832 75.1422ZM140.683 75.1422L139.842 74.5766L139.835 74.5873L140.683 75.1422ZM140.683 90.6954L139.835 91.2505L139.842 91.2611L140.683 90.6954ZM145.258 98.4651C142.78 98.4651 140.607 97.8555 138.709 96.655L137.626 98.3679C139.875 99.79 142.429 100.492 145.258 100.492V98.4651ZM138.709 96.655C136.814 95.4566 135.302 93.7194 134.185 91.3995L132.359 92.2787C133.621 94.8992 135.373 96.9435 137.626 98.3679L138.709 96.655ZM134.192 91.413C133.108 89.0749 132.547 86.2536 132.547 82.9188H130.521C130.521 86.4763 131.119 89.6018 132.353 92.2651L134.192 91.413ZM132.547 82.9188C132.547 79.5836 133.108 76.7797 134.19 74.4747L132.355 73.614C131.119 76.2494 130.521 79.3619 130.521 82.9188H132.547ZM134.188 74.4796C135.306 72.1289 136.817 70.379 138.709 69.1827L137.626 67.4698C135.37 68.8962 133.618 70.9584 132.357 73.6091L134.188 74.4796ZM138.709 69.1827C140.607 67.9822 142.78 67.3726 145.258 67.3726V65.3459C142.429 65.3459 139.875 66.0476 137.626 67.4698L138.709 69.1827ZM145.258 67.3726C147.735 67.3726 149.908 67.9822 151.806 69.1827L152.89 67.4698C150.641 66.0476 148.086 65.3459 145.258 65.3459V67.3726ZM151.806 69.1827C153.696 70.3774 155.19 72.124 156.278 74.4704L158.116 73.6183C156.886 70.9633 155.148 68.8978 152.89 67.4698L151.806 69.1827ZM156.284 74.484C157.393 76.7864 157.968 79.5869 157.968 82.9188H159.994C159.994 79.3586 159.38 76.2427 158.11 73.6048L156.284 74.484ZM157.968 82.9188C157.968 86.2503 157.393 89.0682 156.282 91.4038L158.112 92.2743C159.38 89.6085 159.994 86.4796 159.994 82.9188H157.968ZM156.28 91.4087C155.193 93.7242 153.699 95.4582 151.806 96.655L152.89 98.3679C155.145 96.9419 156.883 94.8944 158.114 92.2694L156.28 91.4087ZM151.806 96.655C149.908 97.8555 147.735 98.4651 145.258 98.4651V100.492C148.086 100.492 150.641 99.79 152.89 98.3679L151.806 96.655ZM145.258 94.2247C147.562 94.2247 149.401 93.2044 150.68 91.2504L148.984 90.1405C148.067 91.5411 146.856 92.1981 145.258 92.1981V94.2247ZM150.673 91.2611C151.969 89.3337 152.538 86.4966 152.538 82.9188H150.511C150.511 86.3553 149.951 88.7026 148.991 90.1298L150.673 91.2611ZM152.538 82.9188C152.538 79.3411 151.969 76.504 150.673 74.5766L148.991 75.7078C149.951 77.1351 150.511 79.4824 150.511 82.9188H152.538ZM150.68 74.5873C149.401 72.6333 147.562 71.6129 145.258 71.6129V73.6396C146.856 73.6396 148.067 74.2965 148.984 75.6972L150.68 74.5873ZM145.258 71.6129C142.978 71.6129 141.147 72.6368 139.842 74.5766L141.524 75.7078C142.476 74.293 143.694 73.6396 145.258 73.6396V71.6129ZM139.835 74.5873C138.575 76.5121 138.023 79.3443 138.023 82.9188H140.05C140.05 79.4791 140.595 77.127 141.531 75.6972L139.835 74.5873ZM138.023 82.9188C138.023 86.4933 138.575 89.3256 139.835 91.2504L141.531 90.1405C140.595 88.7107 140.05 86.3585 140.05 82.9188H138.023ZM139.842 91.2611C141.147 93.2008 142.978 94.2247 145.258 94.2247V92.1981C143.694 92.1981 142.476 91.5447 141.524 90.1298L139.842 91.2611ZM186.238 92.8912H187.251V91.8779H186.238V92.8912ZM186.238 98.9295V99.9428H187.251V98.9295H186.238ZM162.039 98.9295H161.026V99.9428H162.039V98.9295ZM162.039 94.1263L161.343 93.3896L161.026 93.6895V94.1263H162.039ZM174.39 82.4614L175.086 83.1981L175.089 83.1948L174.39 82.4614ZM177.043 79.2593L177.944 79.7248L177.95 79.7124L177.043 79.2593ZM176.403 73.6326L175.76 74.4157L175.775 74.4281L175.79 74.44L176.403 73.6326ZM168.809 73.4039L169.232 74.3247L169.243 74.32L169.253 74.3151L168.809 73.4039ZM165.973 75.7827L165.424 76.6346L166.236 77.1575L166.798 76.3716L165.973 75.7827ZM160.575 72.306L159.734 71.7408L159.158 72.5984L160.027 73.158L160.575 72.306ZM165.744 67.9603L166.177 68.8767L166.187 68.8717L165.744 67.9603ZM179.514 67.5486L179.099 68.4733L179.109 68.4775L179.118 68.4816L179.514 67.5486ZM183.676 70.8422L182.839 71.4125L182.846 71.4228L182.853 71.4329L183.676 70.8422ZM184.088 80.7231L185.002 81.1616L185.002 81.1616L184.088 80.7231ZM179.834 85.938L179.145 85.195L179.138 85.2012L179.834 85.938ZM172.469 92.8912L171.773 92.1544L169.919 93.9045H172.469V92.8912ZM185.225 92.8912V98.9295H187.251V92.8912H185.225ZM186.238 97.9162H162.039V99.9428H186.238V97.9162ZM163.052 98.9295V94.1263H161.026V98.9295H163.052ZM162.735 94.863L175.086 83.1981L173.694 81.7247L161.343 93.3896L162.735 94.863ZM175.089 83.1948C176.427 81.9195 177.408 80.7596 177.943 79.7248L176.143 78.7937C175.764 79.5277 174.976 80.5025 173.691 81.728L175.089 83.1948ZM177.95 79.7124C178.466 78.6789 178.743 77.625 178.743 76.5603H176.716C176.716 77.2645 176.535 78.0098 176.137 78.8061L177.95 79.7124ZM178.743 76.5603C178.743 75.0178 178.193 73.719 177.015 72.8253L175.79 74.44C176.381 74.8881 176.716 75.5411 176.716 76.5603H178.743ZM177.046 72.8496C175.938 71.9393 174.402 71.5672 172.606 71.5672V73.5939C174.165 73.5939 175.16 73.9232 175.76 74.4157L177.046 72.8496ZM172.606 71.5672C171.068 71.5672 169.648 71.869 168.366 72.4927L169.253 74.3151C170.227 73.841 171.339 73.5939 172.606 73.5939V71.5672ZM168.386 72.4831C167.088 73.0795 166.008 73.991 165.149 75.1937L166.798 76.3716C167.463 75.4396 168.274 74.7652 169.232 74.3247L168.386 72.4831ZM166.522 74.9307L161.124 71.4541L160.027 73.158L165.424 76.6346L166.522 74.9307ZM161.416 72.8713C162.556 71.1753 164.132 69.8422 166.177 68.8766L165.312 67.044C162.965 68.1522 161.095 69.7162 159.734 71.7408L161.416 72.8713ZM166.187 68.8717C168.224 67.8814 170.585 67.3726 173.292 67.3726V65.3459C170.327 65.3459 167.656 65.9044 165.301 67.0489L166.187 68.8717ZM173.292 67.3726C175.56 67.3726 177.487 67.7505 179.099 68.4733L179.928 66.6239C178.003 65.7609 175.782 65.3459 173.292 65.3459V67.3726ZM179.118 68.4816C180.762 69.178 181.986 70.1599 182.839 71.4125L184.514 70.2719C183.415 68.6579 181.864 67.444 179.909 66.6156L179.118 68.4816ZM182.853 71.4329C183.722 72.6443 184.173 74.094 184.173 75.8284H186.199C186.199 73.7202 185.643 71.8458 184.5 70.2515L182.853 71.4329ZM184.173 75.8284C184.173 77.4192 183.839 78.9005 183.175 80.2846L185.002 81.1616C185.801 79.4961 186.199 77.7142 186.199 75.8284H184.173ZM183.175 80.2846C182.523 81.6418 181.212 83.278 179.145 85.195L180.523 86.6809C182.665 84.6944 184.189 82.854 185.002 81.1616L183.175 80.2846ZM179.138 85.2012L171.773 92.1544L173.165 93.628L180.529 86.6748L179.138 85.2012ZM172.469 93.9045H186.238V91.8779H172.469V93.9045ZM201.647 66.9082H202.66V65.8948H201.647V66.9082ZM201.647 98.9295V99.9428H202.66V98.9295H201.647ZM194.236 98.9295H193.223V99.9428H194.236V98.9295ZM194.236 72.855H195.25V71.8417H194.236V72.855ZM187.832 72.855H186.819V73.8683H187.832V72.855ZM187.832 66.9082V65.8948H186.819V66.9082H187.832ZM200.634 66.9082V98.9295H202.66V66.9082H200.634ZM201.647 97.9162H194.236V99.9428H201.647V97.9162ZM195.25 98.9295V72.855H193.223V98.9295H195.25ZM194.236 71.8417H187.832V73.8683H194.236V71.8417ZM188.845 72.855V66.9082H186.819V72.855H188.845ZM187.832 67.9215H201.647V65.8948H187.832V67.9215Z" fill="white"/>
<g filter="url(#filter0_f)">
<path d="M128.566 92.8912H130.013V91.4436H128.566V92.8912ZM128.566 98.9295V100.377H130.013V98.9295H128.566ZM104.367 98.9295H102.919V100.377H104.367V98.9295ZM104.367 94.1263L103.373 93.0739L102.919 93.5023V94.1263H104.367ZM116.718 82.4614L117.712 83.5138L117.717 83.5091L116.718 82.4614ZM119.371 79.2593L120.657 79.9243L120.661 79.9155L120.666 79.9066L119.371 79.2593ZM118.731 73.6326L117.812 74.7513L117.833 74.769L117.856 74.786L118.731 73.6326ZM111.137 73.4039L111.741 74.7193L111.756 74.7127L111.77 74.7057L111.137 73.4039ZM108.301 75.7827L107.517 76.9997L108.677 77.7467L109.479 76.6241L108.301 75.7827ZM102.903 72.306L101.701 71.4985L100.878 72.7237L102.119 73.5231L102.903 72.306ZM108.072 67.9603L108.69 69.2693L108.698 69.2658L108.705 69.2622L108.072 67.9603ZM121.841 67.5486L121.249 68.8696L121.263 68.8757L121.276 68.8815L121.841 67.5486ZM126.004 70.8422L124.807 71.6569L124.817 71.6716L124.828 71.686L126.004 70.8422ZM126.416 80.7231L127.721 81.3495L127.721 81.3495L126.416 80.7231ZM122.161 85.938L121.177 84.8766L121.168 84.8854L122.161 85.938ZM114.797 92.8912L113.803 91.8386L111.154 94.3388H114.797V92.8912ZM127.118 92.8912V98.9295H130.013V92.8912H127.118ZM128.566 97.4819H104.367V100.377H128.566V97.4819ZM105.814 98.9295V94.1263H102.919V98.9295H105.814ZM105.361 95.1787L117.712 83.5138L115.724 81.4089L103.373 93.0739L105.361 95.1787ZM117.717 83.5091C119.065 82.2232 120.088 81.0235 120.657 79.9243L118.085 78.5942C117.739 79.2638 116.993 80.1989 115.719 81.4137L117.717 83.5091ZM120.666 79.9066C121.208 78.8222 121.505 77.7022 121.505 76.5603H118.61C118.61 77.1872 118.449 77.8665 118.076 78.6119L120.666 79.9066ZM121.505 76.5603C121.505 74.9057 120.909 73.4685 119.606 72.4793L117.856 74.786C118.321 75.1387 118.61 75.6532 118.61 76.5603H121.505ZM119.649 72.514C118.432 71.5141 116.78 71.1329 114.934 71.1329V74.0281C116.442 74.0281 117.321 74.3483 117.812 74.7513L119.649 72.514ZM114.934 71.1329C113.338 71.1329 111.852 71.4464 110.504 72.1022L111.77 74.7057C112.679 74.2635 113.724 74.0281 114.934 74.0281V71.1329ZM110.533 72.0885C109.162 72.7183 108.023 73.6806 107.123 74.9412L109.479 76.6241C110.103 75.75 110.855 75.1265 111.741 74.7193L110.533 72.0885ZM109.085 74.5656L103.687 71.089L102.119 73.5231L107.517 76.9997L109.085 74.5656ZM104.104 73.1136C105.197 71.488 106.71 70.2043 108.69 69.2693L107.454 66.6513C105.042 67.7901 103.11 69.4036 101.701 71.4985L104.104 73.1136ZM108.705 69.2622C110.674 68.3051 112.968 67.8068 115.62 67.8068V64.9116C112.6 64.9116 109.862 65.4808 107.439 66.6584L108.705 69.2622ZM115.62 67.8068C117.84 67.8068 119.704 68.1769 121.249 68.8696L122.433 66.2276C120.441 65.3345 118.158 64.9116 115.62 64.9116V67.8068ZM121.276 68.8815C122.853 69.5496 124.007 70.4817 124.807 71.6569L127.201 70.0275C126.049 68.336 124.428 67.0724 122.406 66.2157L121.276 68.8815ZM124.828 71.686C125.638 72.8154 126.066 74.1741 126.066 75.8284H128.961C128.961 73.6401 128.383 71.6747 127.18 69.9984L124.828 71.686ZM126.066 75.8284C126.066 77.3561 125.746 78.7728 125.111 80.0967L127.721 81.3495C128.549 79.6237 128.961 77.7773 128.961 75.8284H126.066ZM125.111 80.0967C124.494 81.382 123.228 82.9745 121.177 84.8766L123.146 86.9993C125.304 84.998 126.874 83.1138 127.721 81.3495L125.111 80.0967ZM121.168 84.8854L113.803 91.8386L115.79 93.9438L123.155 86.9906L121.168 84.8854ZM114.797 94.3388H128.566V91.4436H114.797V94.3388ZM138.167 97.5114L138.941 96.2879L138.941 96.2879L138.167 97.5114ZM133.272 91.8391L131.959 92.4477L131.963 92.4574L131.968 92.4671L133.272 91.8391ZM133.272 74.0444L131.965 73.4226L131.962 73.4295L133.272 74.0444ZM138.167 68.3263L138.941 69.5498L138.941 69.5498L138.167 68.3263ZM152.348 68.3263L151.574 69.5498L151.574 69.5498L152.348 68.3263ZM157.197 74.0444L155.883 74.653L155.888 74.6627L155.893 74.6724L157.197 74.0444ZM157.197 91.8391L155.89 91.2173L155.886 91.2242L157.197 91.8391ZM152.348 97.5114L151.574 96.2879L151.574 96.2879L152.348 97.5114ZM149.832 90.6954L148.631 89.8874L148.626 89.895L148.621 89.9026L149.832 90.6954ZM149.832 75.1422L148.621 75.935L148.626 75.9427L148.631 75.9503L149.832 75.1422ZM140.683 75.1422L139.482 74.3342L139.477 74.3418L139.472 74.3494L140.683 75.1422ZM140.683 90.6954L139.472 91.4882L139.477 91.4959L139.482 91.5035L140.683 90.6954ZM145.258 98.0308C142.855 98.0308 140.764 97.4409 138.941 96.2879L137.393 98.7349C139.718 100.205 142.354 100.926 145.258 100.926V98.0308ZM138.941 96.2879C137.122 95.138 135.663 93.4665 134.577 91.2111L131.968 92.4671C133.261 95.152 135.064 97.2621 137.393 98.7349L138.941 96.2879ZM134.586 91.2304C133.535 88.9619 132.982 86.2059 132.982 82.9188H130.086C130.086 86.524 130.692 89.7148 131.959 92.4477L134.586 91.2304ZM132.982 82.9188C132.982 79.6311 133.535 76.8933 134.583 74.6592L131.962 73.4295C130.692 76.1358 130.086 79.3144 130.086 82.9188H132.982ZM134.58 74.6661C135.667 72.3797 137.127 70.6968 138.941 69.5498L137.393 67.1027C135.06 68.5784 133.256 70.7076 131.965 73.4226L134.58 74.6661ZM138.941 69.5498C140.764 68.3967 142.855 67.8068 145.258 67.8068V64.9116C142.354 64.9116 139.718 65.6331 137.393 67.1027L138.941 69.5498ZM145.258 67.8068C147.66 67.8068 149.751 68.3967 151.574 69.5498L153.122 67.1027C150.798 65.6331 148.161 64.9116 145.258 64.9116V67.8068ZM151.574 69.5498C153.385 70.6945 154.827 72.3727 155.883 74.653L158.51 73.4357C157.249 70.7145 155.459 68.5807 153.122 67.1027L151.574 69.5498ZM155.893 74.6724C156.967 76.903 157.533 79.6358 157.533 82.9188H160.429C160.429 79.3096 159.806 76.1262 158.501 73.4163L155.893 74.6724ZM157.533 82.9188C157.533 86.2011 156.967 88.9524 155.89 91.2173L158.504 92.4608C159.806 89.7243 160.429 86.5288 160.429 82.9188H157.533ZM155.886 91.2242C154.831 93.4735 153.389 95.1403 151.574 96.2879L153.122 98.7349C155.454 97.2598 157.245 95.1451 158.507 92.4539L155.886 91.2242ZM151.574 96.2879C149.751 97.4409 147.66 98.0308 145.258 98.0308V100.926C148.161 100.926 150.798 100.205 153.122 98.7349L151.574 96.2879ZM145.258 94.659C147.713 94.659 149.687 93.5608 151.043 91.4882L148.621 89.9026C147.782 91.1847 146.705 91.7638 145.258 91.7638V94.659ZM151.033 91.5035C152.402 89.4689 152.972 86.5268 152.972 82.9188H150.077C150.077 86.3251 149.519 88.5674 148.631 89.8874L151.033 91.5035ZM152.972 82.9188C152.972 79.3109 152.402 76.3688 151.033 74.3342L148.631 75.9503C149.519 77.2703 150.077 79.5126 150.077 82.9188H152.972ZM151.043 74.3494C149.687 72.2769 147.713 71.1786 145.258 71.1786V74.0739C146.705 74.0739 147.782 74.653 148.621 75.935L151.043 74.3494ZM145.258 71.1786C142.825 71.1786 140.863 72.2819 139.482 74.3342L141.884 75.9503C142.76 74.6479 143.847 74.0739 145.258 74.0739V71.1786ZM139.472 74.3494C138.143 76.3803 137.589 79.3155 137.589 82.9188H140.484C140.484 79.508 141.028 77.2587 141.894 75.935L139.472 74.3494ZM137.589 82.9188C137.589 86.5222 138.143 89.4573 139.472 91.4882L141.894 89.9026C141.028 88.5789 140.484 86.3297 140.484 82.9188H137.589ZM139.482 91.5035C140.863 93.5557 142.825 94.659 145.258 94.659V91.7638C143.847 91.7638 142.76 91.1898 141.884 89.8874L139.482 91.5035ZM186.238 92.8912H187.686V91.4436H186.238V92.8912ZM186.238 98.9295V100.377H187.686V98.9295H186.238ZM162.039 98.9295H160.591V100.377H162.039V98.9295ZM162.039 94.1263L161.045 93.0739L160.591 93.5023V94.1263H162.039ZM174.39 82.4614L175.384 83.5138L175.389 83.5091L174.39 82.4614ZM177.043 79.2593L178.329 79.9243L178.334 79.9155L178.338 79.9066L177.043 79.2593ZM176.403 73.6326L175.484 74.7513L175.506 74.769L175.528 74.786L176.403 73.6326ZM168.809 73.4039L169.414 74.7193L169.428 74.7127L169.443 74.7057L168.809 73.4039ZM165.973 75.7827L165.189 76.9997L166.349 77.7467L167.151 76.6241L165.973 75.7827ZM160.575 72.306L159.374 71.4985L158.55 72.7237L159.791 73.5231L160.575 72.306ZM165.744 67.9603L166.363 69.2693L166.37 69.2658L166.377 69.2622L165.744 67.9603ZM179.514 67.5486L178.921 68.8696L178.935 68.8757L178.949 68.8815L179.514 67.5486ZM183.676 70.8422L182.48 71.6569L182.49 71.6716L182.5 71.686L183.676 70.8422ZM184.088 80.7231L185.393 81.3495L185.393 81.3495L184.088 80.7231ZM179.834 85.938L178.849 84.8766L178.84 84.8854L179.834 85.938ZM172.469 92.8912L171.475 91.8386L168.827 94.3388H172.469V92.8912ZM184.79 92.8912V98.9295H187.686V92.8912H184.79ZM186.238 97.4819H162.039V100.377H186.238V97.4819ZM163.487 98.9295V94.1263H160.591V98.9295H163.487ZM163.033 95.1787L175.384 83.5138L173.396 81.4089L161.045 93.0739L163.033 95.1787ZM175.389 83.5091C176.738 82.2232 177.761 81.0235 178.329 79.9243L175.758 78.5942C175.411 79.2638 174.665 80.1989 173.391 81.4137L175.389 83.5091ZM178.338 79.9066C178.88 78.8222 179.177 77.7022 179.177 76.5603H176.282C176.282 77.1872 176.121 77.8665 175.749 78.6119L178.338 79.9066ZM179.177 76.5603C179.177 74.9057 178.582 73.4685 177.278 72.4793L175.528 74.786C175.993 75.1387 176.282 75.6532 176.282 76.5603H179.177ZM177.322 72.514C176.105 71.5141 174.453 71.1329 172.606 71.1329V74.0281C174.114 74.0281 174.994 74.3483 175.484 74.7513L177.322 72.514ZM172.606 71.1329C171.01 71.1329 169.524 71.4464 168.176 72.1022L169.443 74.7057C170.351 74.2635 171.397 74.0281 172.606 74.0281V71.1329ZM168.205 72.0885C166.834 72.7183 165.696 73.6806 164.795 74.9412L167.151 76.6241C167.775 75.75 168.528 75.1265 169.414 74.7193L168.205 72.0885ZM166.757 74.5656L161.359 71.089L159.791 73.5231L165.189 76.9997L166.757 74.5656ZM161.777 73.1136C162.869 71.488 164.383 70.2043 166.363 69.2693L165.126 66.6513C162.715 67.7901 160.782 69.4036 159.374 71.4985L161.777 73.1136ZM166.377 69.2622C168.346 68.3051 170.64 67.8068 173.292 67.8068V64.9116C170.272 64.9116 167.534 65.4808 165.112 66.6584L166.377 69.2622ZM173.292 67.8068C175.512 67.8068 177.376 68.1769 178.921 68.8696L180.106 66.2276C178.113 65.3345 175.83 64.9116 173.292 64.9116V67.8068ZM178.949 68.8815C180.526 69.5496 181.68 70.4817 182.48 71.6569L184.873 70.0275C183.721 68.336 182.1 67.0724 180.078 66.2157L178.949 68.8815ZM182.5 71.686C183.31 72.8154 183.738 74.1741 183.738 75.8284H186.634C186.634 73.6401 186.055 71.6747 184.853 69.9984L182.5 71.686ZM183.738 75.8284C183.738 77.3561 183.418 78.7728 182.783 80.0967L185.393 81.3495C186.222 79.6237 186.634 77.7773 186.634 75.8284H183.738ZM182.783 80.0967C182.166 81.382 180.9 82.9745 178.849 84.8766L180.818 86.9993C182.976 84.998 184.546 83.1138 185.393 81.3495L182.783 80.0967ZM178.84 84.8854L171.475 91.8386L173.463 93.9438L180.828 86.9906L178.84 84.8854ZM172.469 94.3388H186.238V91.4436H172.469V94.3388ZM201.647 66.9082H203.095V65.4605H201.647V66.9082ZM201.647 98.9295V100.377H203.095V98.9295H201.647ZM194.236 98.9295H192.789V100.377H194.236V98.9295ZM194.236 72.855H195.684V71.4074H194.236V72.855ZM187.832 72.855H186.384V74.3026H187.832V72.855ZM187.832 66.9082V65.4605H186.384V66.9082H187.832ZM200.199 66.9082V98.9295H203.095V66.9082H200.199ZM201.647 97.4819H194.236V100.377H201.647V97.4819ZM195.684 98.9295V72.855H192.789V98.9295H195.684ZM194.236 71.4074H187.832V74.3026H194.236V71.4074ZM189.28 72.855V66.9082H186.384V72.855H189.28ZM187.832 68.3558H201.647V65.4605H187.832V68.3558Z" fill="url(#paint0_linear)"/>
</g>
<path d="M123.587 38.3428V58.6095H119.823V49.9238H109.342V58.6095H105.579V38.3428H109.342V46.7101H119.823V38.3428H123.587ZM142.162 53.9192H132.029L130.031 58.6095H126.151L135.271 38.3428H138.977L148.126 58.6095H144.189L142.162 53.9192ZM140.917 50.9661L137.095 42.1066L133.303 50.9661H140.917ZM159.802 58.899C157.756 58.899 155.903 58.4551 154.243 57.5672C152.602 56.66 151.309 55.4151 150.363 53.8324C149.437 52.2496 148.973 50.4642 148.973 48.4762C148.973 46.4881 149.446 44.7027 150.392 43.12C151.338 41.5372 152.631 40.3019 154.272 39.4141C155.932 38.5069 157.784 38.0533 159.83 38.0533C161.49 38.0533 163.006 38.3428 164.376 38.9219C165.746 39.5009 166.904 40.3405 167.85 41.4407L165.418 43.728C163.951 42.1452 162.147 41.3539 160.004 41.3539C158.614 41.3539 157.37 41.6627 156.269 42.2804C155.169 42.8787 154.31 43.7183 153.693 44.7992C153.075 45.8801 152.766 47.1058 152.766 48.4762C152.766 49.8466 153.075 51.0722 153.693 52.1531C154.31 53.234 155.169 54.0833 156.269 54.7009C157.37 55.2993 158.614 55.5984 160.004 55.5984C162.147 55.5984 163.951 54.7974 165.418 53.1954L167.85 55.5116C166.904 56.6118 165.737 57.4514 164.347 58.0304C162.977 58.6095 161.461 58.899 159.802 58.899ZM178.434 50.1264L175.22 53.427V58.6095H171.457V38.3428H175.22V48.7367L185.238 38.3428H189.465L180.953 47.4049L189.986 58.6095H185.585L178.434 50.1264ZM198.407 58.899C196.844 58.899 195.329 58.6771 193.862 58.2331C192.414 57.7892 191.266 57.2005 190.417 56.467L191.719 53.5428C192.549 54.1991 193.563 54.7395 194.759 55.1642C195.975 55.5695 197.191 55.7722 198.407 55.7722C199.913 55.7722 201.032 55.5309 201.766 55.0484C202.519 54.5658 202.895 53.9289 202.895 53.1375C202.895 52.5584 202.683 52.0856 202.258 51.7188C201.853 51.3328 201.332 51.0336 200.695 50.8213C200.058 50.609 199.189 50.3677 198.089 50.0975C196.545 49.7308 195.29 49.364 194.325 48.9973C193.379 48.6306 192.559 48.0612 191.864 47.2891C191.189 46.4978 190.851 45.4362 190.851 44.1044C190.851 42.9849 191.15 41.9715 191.748 41.0644C192.366 40.1379 193.283 39.4044 194.499 38.864C195.734 38.3235 197.24 38.0533 199.015 38.0533C200.251 38.0533 201.467 38.2077 202.663 38.5165C203.86 38.8254 204.893 39.2693 205.761 39.8484L204.574 42.7725C203.686 42.2514 202.76 41.8557 201.795 41.5855C200.83 41.3153 199.894 41.1802 198.987 41.1802C197.5 41.1802 196.39 41.4311 195.657 41.9329C194.943 42.4348 194.586 43.1007 194.586 43.9306C194.586 44.5097 194.788 44.9826 195.194 45.3493C195.618 45.716 196.149 46.0056 196.786 46.2179C197.423 46.4302 198.292 46.6715 199.392 46.9417C200.897 47.2891 202.133 47.6558 203.098 48.0419C204.063 48.4086 204.883 48.978 205.559 49.7501C206.254 50.5221 206.601 51.5644 206.601 52.8769C206.601 53.9964 206.292 55.0098 205.675 55.9169C205.076 56.8241 204.159 57.5479 202.924 58.0884C201.689 58.6288 200.183 58.899 198.407 58.899Z" fill="white"/>
<g filter="url(#filter1_f)">
<path d="M123.587 38.3428V58.6095H119.823V49.9238H109.342V58.6095H105.579V38.3428H109.342V46.7101H119.823V38.3428H123.587ZM142.162 53.9192H132.029L130.031 58.6095H126.151L135.271 38.3428H138.977L148.126 58.6095H144.189L142.162 53.9192ZM140.917 50.9661L137.095 42.1066L133.303 50.9661H140.917ZM159.802 58.899C157.756 58.899 155.903 58.4551 154.243 57.5672C152.602 56.66 151.309 55.4151 150.363 53.8324C149.437 52.2496 148.973 50.4642 148.973 48.4762C148.973 46.4881 149.446 44.7027 150.392 43.12C151.338 41.5372 152.631 40.3019 154.272 39.4141C155.932 38.5069 157.784 38.0533 159.83 38.0533C161.49 38.0533 163.006 38.3428 164.376 38.9219C165.746 39.5009 166.904 40.3405 167.85 41.4407L165.418 43.728C163.951 42.1452 162.147 41.3539 160.004 41.3539C158.614 41.3539 157.37 41.6627 156.269 42.2804C155.169 42.8787 154.31 43.7183 153.693 44.7992C153.075 45.8801 152.766 47.1058 152.766 48.4762C152.766 49.8466 153.075 51.0722 153.693 52.1531C154.31 53.234 155.169 54.0833 156.269 54.7009C157.37 55.2993 158.614 55.5984 160.004 55.5984C162.147 55.5984 163.951 54.7974 165.418 53.1954L167.85 55.5116C166.904 56.6118 165.737 57.4514 164.347 58.0304C162.977 58.6095 161.461 58.899 159.802 58.899ZM178.434 50.1264L175.22 53.427V58.6095H171.457V38.3428H175.22V48.7367L185.238 38.3428H189.465L180.953 47.4049L189.986 58.6095H185.585L178.434 50.1264ZM198.407 58.899C196.844 58.899 195.329 58.6771 193.862 58.2331C192.414 57.7892 191.266 57.2005 190.417 56.467L191.719 53.5428C192.549 54.1991 193.563 54.7395 194.759 55.1642C195.975 55.5695 197.191 55.7722 198.407 55.7722C199.913 55.7722 201.032 55.5309 201.766 55.0484C202.519 54.5658 202.895 53.9289 202.895 53.1375C202.895 52.5584 202.683 52.0856 202.258 51.7188C201.853 51.3328 201.332 51.0336 200.695 50.8213C200.058 50.609 199.189 50.3677 198.089 50.0975C196.545 49.7308 195.29 49.364 194.325 48.9973C193.379 48.6306 192.559 48.0612 191.864 47.2891C191.189 46.4978 190.851 45.4362 190.851 44.1044C190.851 42.9849 191.15 41.9715 191.748 41.0644C192.366 40.1379 193.283 39.4044 194.499 38.864C195.734 38.3235 197.24 38.0533 199.015 38.0533C200.251 38.0533 201.467 38.2077 202.663 38.5165C203.86 38.8254 204.893 39.2693 205.761 39.8484L204.574 42.7725C203.686 42.2514 202.76 41.8557 201.795 41.5855C200.83 41.3153 199.894 41.1802 198.987 41.1802C197.5 41.1802 196.39 41.4311 195.657 41.9329C194.943 42.4348 194.586 43.1007 194.586 43.9306C194.586 44.5097 194.788 44.9826 195.194 45.3493C195.618 45.716 196.149 46.0056 196.786 46.2179C197.423 46.4302 198.292 46.6715 199.392 46.9417C200.897 47.2891 202.133 47.6558 203.098 48.0419C204.063 48.4086 204.883 48.978 205.559 49.7501C206.254 50.5221 206.601 51.5644 206.601 52.8769C206.601 53.9964 206.292 55.0098 205.675 55.9169C205.076 56.8241 204.159 57.5479 202.924 58.0884C201.689 58.6288 200.183 58.899 198.407 58.899Z" fill="white"/>
</g>
<g filter="url(#filter2_f)">
<path d="M115.344 21.6591L112.634 27.7391H112.191L109.481 21.6591H109.967L112.425 27.1658L114.883 21.6591H115.344ZM116.324 21.6591H116.767V27.7391H116.324V21.6591ZM123.107 27.7391L121.656 25.7066C121.442 25.7356 121.245 25.75 121.066 25.75H119.329V27.7391H118.886V21.6591H121.066C121.83 21.6591 122.429 21.8415 122.864 22.2063C123.298 22.5653 123.515 23.0662 123.515 23.7089C123.515 24.1895 123.391 24.5948 123.142 24.9249C122.898 25.2492 122.548 25.4779 122.091 25.6111L123.611 27.7391H123.107ZM121.066 25.3592C121.714 25.3592 122.209 25.2173 122.551 24.9336C122.893 24.6441 123.063 24.2358 123.063 23.7089C123.063 23.182 122.893 22.7766 122.551 22.4929C122.209 22.2034 121.714 22.0586 121.066 22.0586H119.329V25.3592H121.066ZM126.216 22.0586H124.027V21.6591H128.848V22.0586H126.659V27.7391H126.216V22.0586ZM132.207 27.7825C131.437 27.7825 130.838 27.5596 130.409 27.1137C129.987 26.6678 129.775 26.0164 129.775 25.1594V21.6591H130.218V25.142C130.218 25.889 130.389 26.4478 130.731 26.8184C131.072 27.189 131.568 27.3743 132.216 27.3743C132.859 27.3743 133.351 27.189 133.693 26.8184C134.034 26.4478 134.205 25.889 134.205 25.142V21.6591H134.648V25.1594C134.648 26.0164 134.434 26.6678 134.005 27.1137C133.577 27.5596 132.978 27.7825 132.207 27.7825ZM140.349 26.028H136.822L136.049 27.7391H135.572L138.368 21.6591H138.811L141.608 27.7391H141.13L140.349 26.028ZM140.184 25.6545L138.586 22.1455L136.996 25.6545H140.184ZM142.712 21.6591H143.155V27.3395H146.655V27.7391H142.712V21.6591Z" fill="white"/>
</g>
<path d="M115.344 21.6591L112.634 27.7391H112.191L109.481 21.6591H109.967L112.425 27.1658L114.883 21.6591H115.344ZM116.324 21.6591H116.767V27.7391H116.324V21.6591ZM123.107 27.7391L121.656 25.7066C121.442 25.7356 121.245 25.75 121.066 25.75H119.329V27.7391H118.886V21.6591H121.066C121.83 21.6591 122.429 21.8415 122.864 22.2063C123.298 22.5653 123.515 23.0662 123.515 23.7089C123.515 24.1895 123.391 24.5948 123.142 24.9249C122.898 25.2492 122.548 25.4779 122.091 25.6111L123.611 27.7391H123.107ZM121.066 25.3592C121.714 25.3592 122.209 25.2173 122.551 24.9336C122.893 24.6441 123.063 24.2358 123.063 23.7089C123.063 23.182 122.893 22.7766 122.551 22.4929C122.209 22.2034 121.714 22.0586 121.066 22.0586H119.329V25.3592H121.066ZM126.216 22.0586H124.027V21.6591H128.848V22.0586H126.659V27.7391H126.216V22.0586ZM132.207 27.7825C131.437 27.7825 130.838 27.5596 130.409 27.1137C129.987 26.6678 129.775 26.0164 129.775 25.1594V21.6591H130.218V25.142C130.218 25.889 130.389 26.4478 130.731 26.8184C131.072 27.189 131.568 27.3743 132.216 27.3743C132.859 27.3743 133.351 27.189 133.693 26.8184C134.034 26.4478 134.205 25.889 134.205 25.142V21.6591H134.648V25.1594C134.648 26.0164 134.434 26.6678 134.005 27.1137C133.577 27.5596 132.978 27.7825 132.207 27.7825ZM140.349 26.028H136.822L136.049 27.7391H135.572L138.368 21.6591H138.811L141.608 27.7391H141.13L140.349 26.028ZM140.184 25.6545L138.586 22.1455L136.996 25.6545H140.184ZM142.712 21.6591H143.155V27.3395H146.655V27.7391H142.712V21.6591Z" fill="white"/>
<g filter="url(#filter3_f)">
<rect x="104.861" y="16.1333" width="45.7067" height="14.4762" stroke="white" stroke-width="0.579048"/>
</g>
<g filter="url(#filter4_b)">
<rect x="104.861" y="16.1333" width="45.7067" height="14.4762" stroke="white" stroke-width="0.579048"/>
</g>
<path d="M6 87.6147C6 108.173 6 108.173 25.813 108.173H37.6937H58.0092C58.5835 108.173 59.0501 107.699 59.0501 107.153V104.601V88.3437V77.4083C59.0501 75.8409 59.0501 75.8409 57.8656 75.3306L40.278 67.0561C38.8063 66.4 38.8063 66.4 38.8063 68.0038V83.4228C38.8063 87.6147 38.8063 87.6147 32.7763 87.6147C26.3514 87.6147 26.3873 87.6147 26.3873 83.4228V36.1089V16.2428C26.3873 13.91 15.2963 6 9.08681 6C6 6 6 9.02547 6 9.49933V87.6147Z" fill="white"/>
<path d="M92 114.589V42.8523C92 25.0276 92.0359 18.5028 65.4032 18.5028C38.8422 18.5028 38.8422 23.9341 38.8422 42.8523V51.7465C38.8422 52.512 39.0935 52.512 39.4524 52.6942L57.6143 61.5884C59.1219 62.3174 59.1219 62.3174 59.086 60.6406V42.4878C59.086 39.754 59.086 39.1343 65.2596 39.1343C71.505 39.1343 71.5768 39.754 71.5768 42.4149V107.699C71.5768 109.886 71.5768 109.886 72.187 110.615C77.3556 114.552 81.4474 117.177 88.8773 117.177C92 117.213 92 114.589 92 114.589Z" fill="white"/>
<g filter="url(#filter5_f)">
<path d="M6 87.6147C6 108.173 6 108.173 25.813 108.173H37.6937H58.0092C58.5835 108.173 59.0501 107.699 59.0501 107.153V104.601V88.3437V77.4083C59.0501 75.8409 59.0501 75.8409 57.8656 75.3306L40.278 67.0561C38.8063 66.4 38.8063 66.4 38.8063 68.0038V83.4228C38.8063 87.6147 38.8063 87.6147 32.7763 87.6147C26.3514 87.6147 26.3873 87.6147 26.3873 83.4228V36.1089V16.2428C26.3873 13.91 15.2963 6 9.08681 6C6 6 6 9.02547 6 9.49933V87.6147Z" fill="white"/>
<path d="M92 114.589V42.8523C92 25.0276 92.0359 18.5028 65.4032 18.5028C38.8422 18.5028 38.8422 23.9341 38.8422 42.8523V51.7465C38.8422 52.512 39.0935 52.512 39.4524 52.6942L57.6143 61.5884C59.1219 62.3174 59.1219 62.3174 59.086 60.6406V42.4878C59.086 39.754 59.086 39.1343 65.2596 39.1343C71.505 39.1343 71.5768 39.754 71.5768 42.4149V107.699C71.5768 109.886 71.5768 109.886 72.187 110.615C77.3556 114.552 81.4474 117.177 88.8773 117.177C92 117.213 92 114.589 92 114.589Z" fill="white"/>
</g>
<defs>
<filter id="filter0_f" x="98.5617" y="62.5954" width="106.849" height="40.6468" filterUnits="userSpaceOnUse" color-interpolation-filters="sRGB">
<feFlood flood-opacity="0" result="BackgroundImageFix"/>
<feBlend mode="normal" in="SourceGraphic" in2="BackgroundImageFix" result="shape"/>
<feGaussianBlur stdDeviation="1.1581" result="effect1_foregroundBlur"/>
</filter>
<filter id="filter1_f" x="102.683" y="35.158" width="106.813" height="26.6362" filterUnits="userSpaceOnUse" color-interpolation-filters="sRGB">
<feFlood flood-opacity="0" result="BackgroundImageFix"/>
<feBlend mode="normal" in="SourceGraphic" in2="BackgroundImageFix" result="shape"/>
<feGaussianBlur stdDeviation="1.44762" result="effect1_foregroundBlur"/>
</filter>
<filter id="filter2_f" x="106.585" y="18.7638" width="42.965" height="11.9139" filterUnits="userSpaceOnUse" color-interpolation-filters="sRGB">
<feFlood flood-opacity="0" result="BackgroundImageFix"/>
<feBlend mode="normal" in="SourceGraphic" in2="BackgroundImageFix" result="shape"/>
<feGaussianBlur stdDeviation="1.44762" result="effect1_foregroundBlur"/>
</filter>
<filter id="filter3_f" x="101.676" y="12.9486" width="52.0762" height="20.8457" filterUnits="userSpaceOnUse" color-interpolation-filters="sRGB">
<feFlood flood-opacity="0" result="BackgroundImageFix"/>
<feBlend mode="normal" in="SourceGraphic" in2="BackgroundImageFix" result="shape"/>
<feGaussianBlur stdDeviation="1.44762" result="effect1_foregroundBlur"/>
</filter>
<filter id="filter4_b" x="103.413" y="14.6857" width="48.6019" height="17.3714" filterUnits="userSpaceOnUse" color-interpolation-filters="sRGB">
<feFlood flood-opacity="0" result="BackgroundImageFix"/>
<feGaussianBlur in="BackgroundImage" stdDeviation="0.579048"/>
<feComposite in2="SourceAlpha" operator="in" result="effect1_backgroundBlur"/>
<feBlend mode="normal" in="SourceGraphic" in2="effect1_backgroundBlur" result="shape"/>
</filter>
<filter id="filter5_f" x="0.209524" y="0.209524" width="97.5809" height="122.758" filterUnits="userSpaceOnUse" color-interpolation-filters="sRGB">
<feFlood flood-opacity="0" result="BackgroundImageFix"/>
<feBlend mode="normal" in="SourceGraphic" in2="BackgroundImageFix" result="shape"/>
<feGaussianBlur stdDeviation="2.89524" result="effect1_foregroundBlur"/>
</filter>
<linearGradient id="paint0_linear" x1="102.857" y1="76.5793" x2="206.45" y2="76.5747" gradientUnits="userSpaceOnUse">
<stop stop-color="#D240CD"/>
<stop offset="1" stop-color="#3DD2F3"/>
</linearGradient>
</defs>
</svg>
