<svg width="716" height="328" viewBox="0 0 716 328" fill="none" xmlns="http://www.w3.org/2000/svg">
<path d="M9.06176 107.076L219.756 8.82779L318.005 219.522L107.31 317.771L9.06176 107.076Z" fill="url(#paint0_linear_28_52)"/>
<path fill-rule="evenodd" clip-rule="evenodd" d="M150.169 8.42006L8.42006 177.35L177.35 319.099L319.099 150.169L150.169 8.42006ZM0 178.087L178.087 327.519L327.519 149.432L149.432 0L0 178.087Z" fill="url(#paint1_linear_28_52)"/>
<path d="M51.067 231.175C51.067 284.636 51.0671 284.636 102.871 284.636H187.052C188.554 284.636 189.774 283.403 189.774 281.982V204.634C189.774 200.559 189.774 200.559 186.677 199.232L140.692 177.715C136.844 176.008 136.844 176.008 136.844 180.179V220.275C136.844 231.175 136.844 231.175 121.077 231.175C104.279 231.175 104.373 231.175 104.373 220.275V45.5802C104.373 39.5137 75.3736 18.9447 59.1379 18.9447C51.067 18.9447 51.067 26.8121 51.067 28.0444V231.175Z" fill="white"/>
<path d="M275.926 301.318V114.775C275.926 68.4241 276.02 51.457 206.385 51.457C136.938 51.457 136.938 65.5804 136.938 114.775V137.904C136.938 139.894 137.595 139.894 138.533 140.368L186.02 163.496C189.962 165.392 189.962 165.392 189.868 161.032V113.828C189.868 106.718 189.868 105.107 206.01 105.107C222.339 105.107 222.527 106.718 222.527 113.638V283.403C222.527 289.091 222.527 289.091 224.122 290.986C237.636 301.223 248.335 308.048 267.761 308.048C275.926 308.143 275.926 301.318 275.926 301.318Z" fill="white"/>
<path d="M428.11 58.4134V139.945H408.249V106.38H377.356V139.945H357.496V58.4134H377.356V90.3523H408.249V58.4134H428.11Z" fill="white"/>
<path d="M438.498 107.425C438.498 100.766 439.737 94.9205 442.214 89.8877C444.77 84.8549 448.215 80.9836 452.551 78.2736C456.887 75.5636 461.726 74.2086 467.069 74.2086C471.637 74.2086 475.625 75.1378 479.031 76.996C482.516 78.8543 485.187 81.2933 487.045 84.3129V75.1378H506.905V139.945H487.045V130.77C485.109 133.789 482.399 136.228 478.915 138.086C475.508 139.945 471.521 140.874 466.953 140.874C461.688 140.874 456.887 139.519 452.551 136.809C448.215 134.022 444.77 130.111 442.214 125.079C439.737 119.968 438.498 114.084 438.498 107.425ZM487.045 107.541C487.045 102.586 485.651 98.6758 482.864 95.811C480.154 92.9461 476.825 91.5137 472.876 91.5137C468.927 91.5137 465.559 92.9461 462.772 95.811C460.062 98.5984 458.707 102.47 458.707 107.425C458.707 112.38 460.062 116.329 462.772 119.272C465.559 122.136 468.927 123.569 472.876 123.569C476.825 123.569 480.154 122.136 482.864 119.272C485.651 116.407 487.045 112.497 487.045 107.541Z" fill="white"/>
<path d="M517.324 107.541C517.324 100.805 518.679 94.9205 521.389 89.8877C524.177 84.8549 528.009 80.9836 532.887 78.2736C537.843 75.5636 543.495 74.2086 549.844 74.2086C557.974 74.2086 564.749 76.3379 570.169 80.5964C575.666 84.8549 579.267 90.8556 580.97 98.5984H559.832C558.051 93.643 554.606 91.1653 549.496 91.1653C545.857 91.1653 542.953 92.5977 540.785 95.4625C538.617 98.2499 537.533 102.276 537.533 107.541C537.533 112.806 538.617 116.871 540.785 119.736C542.953 122.524 545.857 123.917 549.496 123.917C554.606 123.917 558.051 121.44 559.832 116.484H580.97C579.267 124.072 575.666 130.034 570.169 134.37C564.672 138.706 557.897 140.874 549.844 140.874C543.495 140.874 537.843 139.519 532.887 136.809C528.009 134.099 524.177 130.228 521.389 125.195C518.679 120.162 517.324 114.277 517.324 107.541Z" fill="white"/>
<path d="M631.198 139.945L611.454 112.768V139.945H591.593V54H611.454V101.502L631.081 75.1378H655.587L628.642 107.657L655.82 139.945H631.198Z" fill="white"/>
<path d="M689.752 140.874C684.1 140.874 679.067 139.906 674.654 137.97C670.24 136.035 666.756 133.402 664.201 130.073C661.646 126.666 660.213 122.872 659.904 118.691H679.532C679.764 120.936 680.809 122.756 682.667 124.15C684.526 125.543 686.81 126.24 689.52 126.24C691.997 126.24 693.894 125.775 695.211 124.846C696.604 123.84 697.301 122.562 697.301 121.014C697.301 119.155 696.333 117.8 694.398 116.949C692.462 116.02 689.326 115.013 684.99 113.929C680.345 112.845 676.473 111.722 673.376 110.561C670.279 109.322 667.608 107.425 665.362 104.87C663.117 102.237 661.994 98.7145 661.994 94.3011C661.994 90.5846 663.001 87.2165 665.014 84.1968C667.104 81.0997 670.124 78.6607 674.073 76.8799C678.099 75.099 682.861 74.2086 688.358 74.2086C696.488 74.2086 702.876 76.2217 707.522 80.248C712.245 84.2742 714.955 89.6167 715.652 96.2755H697.301C696.992 94.0301 695.985 92.2493 694.282 90.933C692.656 89.6167 690.488 88.9586 687.778 88.9586C685.455 88.9586 683.674 89.4232 682.435 90.3523C681.196 91.204 680.577 92.4041 680.577 93.9527C680.577 95.811 681.545 97.2047 683.48 98.1338C685.493 99.0629 688.591 99.9921 692.772 100.921C697.572 102.16 701.482 103.399 704.502 104.638C707.522 105.799 710.154 107.735 712.4 110.445C714.722 113.077 715.923 116.639 716 121.13C716 124.924 714.916 128.331 712.748 131.35C710.657 134.293 707.599 136.615 703.573 138.319C699.624 140.022 695.017 140.874 689.752 140.874Z" fill="white"/>
<path d="M356.938 270.732H435.903V248.084H397.1C424.126 230.57 435.148 217.435 435.148 202.034C435.148 181.802 418.087 168.516 394.382 168.516C380.341 168.516 364.336 173.498 353.616 185.275L367.96 202.487C375.207 195.693 383.662 191.465 394.382 191.465C402.233 191.465 408.726 195.089 408.726 202.034C408.726 211.999 400.572 218.944 356.938 250.5V270.732Z" fill="url(#paint2_linear_28_52)"/>
<path d="M445.931 220.454C445.931 247.027 459.671 272.544 489.113 272.544C518.555 272.544 532.294 247.027 532.294 220.454C532.294 193.881 518.555 168.516 489.113 168.516C459.671 168.516 445.931 193.881 445.931 220.454ZM506.023 220.454C506.023 238.27 501.191 249.594 489.113 249.594C477.034 249.594 472.203 238.27 472.203 220.454C472.203 202.638 477.034 191.465 489.113 191.465C501.191 191.465 506.023 202.638 506.023 220.454Z" fill="url(#paint3_linear_28_52)"/>
<path d="M542.867 270.732H621.831V248.084H583.028C610.054 230.57 621.076 217.435 621.076 202.034C621.076 181.802 604.015 168.516 580.311 168.516C566.269 168.516 550.265 173.498 539.545 185.275L553.888 202.487C561.136 195.693 569.591 191.465 580.311 191.465C588.162 191.465 594.654 195.089 594.654 202.034C594.654 211.999 586.501 218.944 542.867 250.5V270.732Z" fill="url(#paint4_linear_28_52)"/>
<path d="M630.35 256.69C638.201 265.75 652.696 272.544 672.022 272.544C697.085 272.544 713.693 260.314 713.693 242.649C713.693 228.154 700.709 219.85 689.989 218.793C701.916 216.831 712.032 207.923 712.032 196.146C712.032 179.538 697.689 168.516 672.022 168.516C653.451 168.516 640.164 175.31 631.709 184.822L643.939 200.675C651.035 194.485 660.094 190.71 669.304 190.71C678.967 190.71 686.214 194.032 686.214 200.373C686.214 205.96 680.326 208.98 669.908 208.98C666.133 208.98 658.282 208.98 656.319 208.829V231.174C657.829 231.023 665.529 230.872 669.908 230.872C683.647 230.872 687.875 234.194 687.875 240.082C687.875 245.971 682.138 250.5 670.965 250.5C662.208 250.5 650.733 246.726 643.486 239.629L630.35 256.69Z" fill="url(#paint5_linear_28_52)"/>
<defs>
<linearGradient id="paint0_linear_28_52" x1="327.519" y1="240.181" x2="-5.74069e-06" y2="240.181" gradientUnits="userSpaceOnUse">
<stop stop-color="#FDCD50"/>
<stop offset="0.5" stop-color="#F37588"/>
<stop offset="1" stop-color="#BF6D9D"/>
</linearGradient>
<linearGradient id="paint1_linear_28_52" x1="215.842" y1="-6.66873" x2="215.842" y2="327.519" gradientUnits="userSpaceOnUse">
<stop stop-color="#F7D255"/>
<stop offset="1" stop-color="#DB722C"/>
</linearGradient>
<linearGradient id="paint2_linear_28_52" x1="713.693" y1="244.803" x2="353.616" y2="244.803" gradientUnits="userSpaceOnUse">
<stop stop-color="#FDCD50"/>
<stop offset="0.5" stop-color="#F37588"/>
<stop offset="1" stop-color="#BF6D9D"/>
</linearGradient>
<linearGradient id="paint3_linear_28_52" x1="713.693" y1="244.803" x2="353.616" y2="244.803" gradientUnits="userSpaceOnUse">
<stop stop-color="#FDCD50"/>
<stop offset="0.5" stop-color="#F37588"/>
<stop offset="1" stop-color="#BF6D9D"/>
</linearGradient>
<linearGradient id="paint4_linear_28_52" x1="713.693" y1="244.803" x2="353.616" y2="244.803" gradientUnits="userSpaceOnUse">
<stop stop-color="#FDCD50"/>
<stop offset="0.5" stop-color="#F37588"/>
<stop offset="1" stop-color="#BF6D9D"/>
</linearGradient>
<linearGradient id="paint5_linear_28_52" x1="713.693" y1="244.803" x2="353.616" y2="244.803" gradientUnits="userSpaceOnUse">
<stop stop-color="#FDCD50"/>
<stop offset="0.5" stop-color="#F37588"/>
<stop offset="1" stop-color="#BF6D9D"/>
</linearGradient>
</defs>
</svg>
