<svg width="728" height="424" viewBox="0 0 728 424" fill="none" xmlns="http://www.w3.org/2000/svg">
<path d="M384.23 375V396H382.1V379.2L373.85 393.33H372.8L364.55 379.29V396H362.42V375H364.25L373.37 390.57L382.4 375H384.23ZM396.142 380.1C398.202 380.1 399.782 380.62 400.882 381.66C401.982 382.68 402.532 384.2 402.532 386.22V396H400.492V393.54C400.012 394.36 399.302 395 398.362 395.46C397.442 395.92 396.342 396.15 395.062 396.15C393.302 396.15 391.902 395.73 390.862 394.89C389.822 394.05 389.302 392.94 389.302 391.56C389.302 390.22 389.782 389.14 390.742 388.32C391.722 387.5 393.272 387.09 395.392 387.09H400.402V386.13C400.402 384.77 400.022 383.74 399.262 383.04C398.502 382.32 397.392 381.96 395.932 381.96C394.932 381.96 393.972 382.13 393.052 382.47C392.132 382.79 391.342 383.24 390.682 383.82L389.722 382.23C390.522 381.55 391.482 381.03 392.602 380.67C393.722 380.29 394.902 380.1 396.142 380.1ZM395.392 394.47C396.592 394.47 397.622 394.2 398.482 393.66C399.342 393.1 399.982 392.3 400.402 391.26V388.68H395.452C392.752 388.68 391.402 389.62 391.402 391.5C391.402 392.42 391.752 393.15 392.452 393.69C393.152 394.21 394.132 394.47 395.392 394.47ZM410.358 383.31C410.858 382.25 411.598 381.45 412.578 380.91C413.578 380.37 414.808 380.1 416.268 380.1V382.17L415.758 382.14C414.098 382.14 412.798 382.65 411.858 383.67C410.918 384.69 410.448 386.12 410.448 387.96V396H408.318V380.22H410.358V383.31ZM426.518 396.15C424.958 396.15 423.558 395.81 422.318 395.13C421.098 394.45 420.138 393.5 419.438 392.28C418.738 391.04 418.388 389.65 418.388 388.11C418.388 386.57 418.738 385.19 419.438 383.97C420.138 382.75 421.098 381.8 422.318 381.12C423.558 380.44 424.958 380.1 426.518 380.1C427.878 380.1 429.088 380.37 430.148 380.91C431.228 381.43 432.078 382.2 432.698 383.22L431.108 384.3C430.588 383.52 429.928 382.94 429.128 382.56C428.328 382.16 427.458 381.96 426.518 381.96C425.378 381.96 424.348 382.22 423.428 382.74C422.528 383.24 421.818 383.96 421.298 384.9C420.798 385.84 420.548 386.91 420.548 388.11C420.548 389.33 420.798 390.41 421.298 391.35C421.818 392.27 422.528 392.99 423.428 393.51C424.348 394.01 425.378 394.26 426.518 394.26C427.458 394.26 428.328 394.07 429.128 393.69C429.928 393.31 430.588 392.73 431.108 391.95L432.698 393.03C432.078 394.05 431.228 394.83 430.148 395.37C429.068 395.89 427.858 396.15 426.518 396.15ZM444.688 380.1C446.668 380.1 448.238 380.68 449.398 381.84C450.578 382.98 451.168 384.65 451.168 386.85V396H449.038V387.06C449.038 385.42 448.628 384.17 447.808 383.31C446.988 382.45 445.818 382.02 444.298 382.02C442.598 382.02 441.248 382.53 440.248 383.55C439.268 384.55 438.778 385.94 438.778 387.72V396H436.648V373.74H438.778V382.98C439.358 382.06 440.158 381.35 441.178 380.85C442.198 380.35 443.368 380.1 444.688 380.1ZM477.732 394.08V396H463.002V394.47L471.732 385.92C472.832 384.84 473.572 383.91 473.952 383.13C474.352 382.33 474.552 381.53 474.552 380.73C474.552 379.49 474.122 378.53 473.262 377.85C472.422 377.15 471.212 376.8 469.632 376.8C467.172 376.8 465.262 377.58 463.902 379.14L462.372 377.82C463.192 376.86 464.232 376.12 465.492 375.6C466.772 375.08 468.212 374.82 469.812 374.82C471.952 374.82 473.642 375.33 474.882 376.35C476.142 377.35 476.772 378.73 476.772 380.49C476.772 381.57 476.532 382.61 476.052 383.61C475.572 384.61 474.662 385.76 473.322 387.06L466.182 394.08H477.732ZM486.263 375V396H484.103V376.92H479.153V375H486.263ZM491.523 386.94H499.383V388.8H491.523V386.94ZM516.726 394.08V396H501.996V394.47L510.726 385.92C511.826 384.84 512.566 383.91 512.946 383.13C513.346 382.33 513.546 381.53 513.546 380.73C513.546 379.49 513.116 378.53 512.256 377.85C511.416 377.15 510.206 376.8 508.626 376.8C506.166 376.8 504.256 377.58 502.896 379.14L501.366 377.82C502.186 376.86 503.226 376.12 504.486 375.6C505.766 375.08 507.206 374.82 508.806 374.82C510.946 374.82 512.636 375.33 513.876 376.35C515.136 377.35 515.766 378.73 515.766 380.49C515.766 381.57 515.526 382.61 515.046 383.61C514.566 384.61 513.656 385.76 512.316 387.06L505.176 394.08H516.726ZM531.467 384.99C532.787 385.43 533.797 386.09 534.497 386.97C535.217 387.85 535.577 388.91 535.577 390.15C535.577 391.37 535.247 392.44 534.587 393.36C533.927 394.26 532.977 394.96 531.737 395.46C530.517 395.94 529.077 396.18 527.417 396.18C524.897 396.18 522.917 395.64 521.477 394.56C520.037 393.48 519.317 392.01 519.317 390.15C519.317 388.89 519.657 387.83 520.337 386.97C521.037 386.09 522.047 385.43 523.367 384.99C522.287 384.57 521.467 383.97 520.907 383.19C520.347 382.39 520.067 381.45 520.067 380.37C520.067 378.67 520.727 377.32 522.047 376.32C523.387 375.32 525.177 374.82 527.417 374.82C528.897 374.82 530.187 375.05 531.287 375.51C532.407 375.95 533.277 376.59 533.897 377.43C534.517 378.27 534.827 379.25 534.827 380.37C534.827 381.45 534.537 382.39 533.957 383.19C533.377 383.97 532.547 384.57 531.467 384.99ZM522.227 380.43C522.227 381.59 522.687 382.51 523.607 383.19C524.527 383.87 525.797 384.21 527.417 384.21C529.037 384.21 530.307 383.87 531.227 383.19C532.167 382.51 532.637 381.6 532.637 380.46C532.637 379.28 532.157 378.35 531.197 377.67C530.257 376.99 528.997 376.65 527.417 376.65C525.817 376.65 524.547 376.99 523.607 377.67C522.687 378.35 522.227 379.27 522.227 380.43ZM527.417 394.35C529.277 394.35 530.727 393.97 531.767 393.21C532.827 392.45 533.357 391.42 533.357 390.12C533.357 388.82 532.827 387.8 531.767 387.06C530.727 386.3 529.277 385.92 527.417 385.92C525.577 385.92 524.127 386.3 523.067 387.06C522.027 387.8 521.507 388.82 521.507 390.12C521.507 391.44 522.027 392.48 523.067 393.24C524.107 393.98 525.557 394.35 527.417 394.35ZM540.511 392.88C540.971 392.88 541.351 393.04 541.651 393.36C541.951 393.66 542.101 394.04 542.101 394.5C542.101 394.74 542.061 395 541.981 395.28C541.921 395.56 541.821 395.88 541.681 396.24L540.421 400.38H538.981L540.001 396.03C539.681 395.93 539.421 395.75 539.221 395.49C539.021 395.21 538.921 394.88 538.921 394.5C538.921 394.04 539.071 393.66 539.371 393.36C539.671 393.04 540.051 392.88 540.511 392.88ZM567.41 394.08V396H552.68V394.47L561.41 385.92C562.51 384.84 563.25 383.91 563.63 383.13C564.03 382.33 564.23 381.53 564.23 380.73C564.23 379.49 563.8 378.53 562.94 377.85C562.1 377.15 560.89 376.8 559.31 376.8C556.85 376.8 554.94 377.58 553.58 379.14L552.05 377.82C552.87 376.86 553.91 376.12 555.17 375.6C556.45 375.08 557.89 374.82 559.49 374.82C561.63 374.82 563.32 375.33 564.56 376.35C565.82 377.35 566.45 378.73 566.45 380.49C566.45 381.57 566.21 382.61 565.73 383.61C565.25 384.61 564.34 385.76 563 387.06L555.86 394.08H567.41ZM578.373 396.18C576.753 396.18 575.303 395.75 574.023 394.89C572.763 394.03 571.773 392.8 571.053 391.2C570.353 389.58 570.003 387.68 570.003 385.5C570.003 383.32 570.353 381.43 571.053 379.83C571.773 378.21 572.763 376.97 574.023 376.11C575.303 375.25 576.753 374.82 578.373 374.82C579.993 374.82 581.433 375.25 582.693 376.11C583.973 376.97 584.973 378.21 585.693 379.83C586.413 381.43 586.773 383.32 586.773 385.5C586.773 387.68 586.413 389.58 585.693 391.2C584.973 392.8 583.973 394.03 582.693 394.89C581.433 395.75 579.993 396.18 578.373 396.18ZM578.373 394.2C579.593 394.2 580.663 393.86 581.583 393.18C582.523 392.5 583.253 391.51 583.773 390.21C584.293 388.91 584.553 387.34 584.553 385.5C584.553 383.66 584.293 382.09 583.773 380.79C583.253 379.49 582.523 378.5 581.583 377.82C580.663 377.14 579.593 376.8 578.373 376.8C577.153 376.8 576.073 377.14 575.133 377.82C574.213 378.5 573.493 379.49 572.973 380.79C572.453 382.09 572.193 383.66 572.193 385.5C572.193 387.34 572.453 388.91 572.973 390.21C573.493 391.51 574.213 392.5 575.133 393.18C576.073 393.86 577.153 394.2 578.373 394.2ZM604.148 394.08V396H589.418V394.47L598.148 385.92C599.248 384.84 599.988 383.91 600.368 383.13C600.768 382.33 600.968 381.53 600.968 380.73C600.968 379.49 600.538 378.53 599.678 377.85C598.838 377.15 597.628 376.8 596.048 376.8C593.588 376.8 591.678 377.58 590.318 379.14L588.788 377.82C589.608 376.86 590.648 376.12 591.908 375.6C593.188 375.08 594.628 374.82 596.228 374.82C598.368 374.82 600.058 375.33 601.298 376.35C602.558 377.35 603.188 378.73 603.188 380.49C603.188 381.57 602.948 382.61 602.468 383.61C601.988 384.61 601.078 385.76 599.738 387.06L592.598 394.08H604.148ZM612.679 375V396H610.519V376.92H605.569V375H612.679Z" fill="#D3D3D3"/>
<path d="M447.796 321.144H451.296V317.644H447.796V321.144ZM447.796 342V345.5H451.296V342H447.796ZM364.214 342H360.714V345.5H364.214V342ZM364.214 325.41L361.811 322.865L360.714 323.901V325.41H364.214ZM406.874 285.12L409.277 287.665L409.283 287.659L409.289 287.653L406.874 285.12ZM416.038 274.06L419.147 275.668L419.158 275.647L419.169 275.625L416.038 274.06ZM413.826 254.626L411.604 257.331L411.657 257.374L411.711 257.414L413.826 254.626ZM387.598 253.836L389.059 257.016L389.094 257L389.129 256.983L387.598 253.836ZM377.802 262.052L375.907 264.994L378.711 266.801L380.65 264.086L377.802 262.052ZM359.158 250.044L356.253 248.092L354.262 251.054L357.263 252.987L359.158 250.044ZM377.012 235.034L378.507 238.199L378.524 238.19L378.542 238.182L377.012 235.034ZM424.57 233.612L423.138 236.806L423.171 236.821L423.204 236.835L424.57 233.612ZM438.948 244.988L436.055 246.958L436.079 246.993L436.104 247.028L438.948 244.988ZM440.37 279.116L443.525 280.631L443.525 280.631L440.37 279.116ZM425.676 297.128L423.296 294.562L423.285 294.572L423.273 294.583L425.676 297.128ZM400.238 321.144L397.835 318.599L391.432 324.644H400.238V321.144ZM444.296 321.144V342H451.296V321.144H444.296ZM447.796 338.5H364.214V345.5H447.796V338.5ZM367.714 342V325.41H360.714V342H367.714ZM366.617 327.955L409.277 287.665L404.471 282.575L361.811 322.865L366.617 327.955ZM409.289 287.653C413.909 283.248 417.298 279.242 419.147 275.668L412.929 272.452C411.618 274.987 408.898 278.354 404.459 282.587L409.289 287.653ZM419.169 275.625C420.953 272.055 421.908 268.415 421.908 264.738H414.908C414.908 267.17 414.283 269.745 412.908 272.495L419.169 275.625ZM421.908 264.738C421.908 259.41 420.01 254.924 415.941 251.838L411.711 257.414C413.751 258.962 414.908 261.218 414.908 264.738H421.908ZM416.048 251.921C412.22 248.777 406.914 247.492 400.712 247.492V254.492C406.096 254.492 409.534 255.63 411.604 257.331L416.048 251.921ZM400.712 247.492C395.399 247.492 390.495 248.534 386.067 250.689L389.129 256.983C392.496 255.346 396.334 254.492 400.712 254.492V247.492ZM386.137 250.656C381.654 252.715 377.921 255.864 374.954 260.018L380.65 264.086C382.95 260.867 385.748 258.538 389.059 257.016L386.137 250.656ZM379.697 259.109L361.053 247.101L357.263 252.987L375.907 264.994L379.697 259.109ZM362.063 251.996C366 246.138 371.444 241.534 378.507 238.199L375.517 231.869C367.412 235.697 360.953 241.099 356.253 248.092L362.063 251.996ZM378.542 238.182C385.578 234.762 393.731 233.004 403.082 233.004V226.004C392.841 226.004 383.614 227.933 375.482 231.886L378.542 238.182ZM403.082 233.004C410.914 233.004 417.569 234.309 423.138 236.806L426.002 230.418C419.352 227.437 411.682 226.004 403.082 226.004V233.004ZM423.204 236.835C428.881 239.24 433.109 242.631 436.055 246.958L441.841 243.018C438.045 237.443 432.688 233.251 425.936 230.389L423.204 236.835ZM436.104 247.028C439.106 251.212 440.662 256.22 440.662 262.21H447.662C447.662 254.928 445.742 248.454 441.792 242.948L436.104 247.028ZM440.662 262.21C440.662 267.705 439.509 272.821 437.215 277.601L443.525 280.631C446.287 274.878 447.662 268.723 447.662 262.21H440.662ZM437.215 277.601C434.965 282.289 430.435 287.94 423.296 294.562L428.056 299.694C435.453 292.833 440.719 286.476 443.525 280.631L437.215 277.601ZM423.273 294.583L397.835 318.599L402.641 323.689L428.079 299.673L423.273 294.583ZM400.238 324.644H447.796V317.644H400.238V324.644ZM480.959 337.102L482.829 334.144L482.829 334.144L480.959 337.102ZM464.053 317.51L460.877 318.982L460.888 319.005L460.899 319.028L464.053 317.51ZM464.053 256.048L460.892 254.545L460.888 254.553L460.884 254.561L464.053 256.048ZM480.959 236.298L482.829 239.256L482.829 239.256L480.959 236.298ZM529.939 236.298L528.068 239.256L528.068 239.256L529.939 236.298ZM546.687 256.048L543.511 257.52L543.522 257.543L543.533 257.566L546.687 256.048ZM546.687 317.51L543.526 316.007L543.522 316.015L543.518 316.023L546.687 317.51ZM529.939 337.102L528.068 334.144L528.068 334.144L529.939 337.102ZM521.249 313.56L518.345 311.606L518.332 311.625L518.32 311.643L521.249 313.56ZM521.249 259.84L518.32 261.757L518.332 261.775L518.345 261.794L521.249 259.84ZM489.649 259.84L486.745 257.886L486.732 257.905L486.72 257.923L489.649 259.84ZM489.649 313.56L486.72 315.477L486.732 315.495L486.745 315.514L489.649 313.56ZM505.449 340.396C496.891 340.396 489.387 338.29 482.829 334.144L479.088 340.06C486.856 344.972 495.679 347.396 505.449 347.396V340.396ZM482.829 334.144C476.284 330.005 471.064 324.004 467.206 315.992L460.899 319.028C465.257 328.08 471.308 335.14 479.088 340.06L482.829 334.144ZM467.228 316.038C463.486 307.963 461.549 298.218 461.549 286.7H454.549C454.549 298.987 456.614 309.783 460.877 318.982L467.228 316.038ZM461.549 286.7C461.549 275.18 463.486 265.496 467.221 257.535L460.884 254.561C456.614 263.664 454.549 274.415 454.549 286.7H461.549ZM467.213 257.551C471.075 249.432 476.295 243.388 482.829 239.256L479.088 233.34C471.297 238.267 465.246 245.389 460.892 254.545L467.213 257.551ZM482.829 239.256C489.387 235.11 496.891 233.004 505.449 233.004V226.004C495.679 226.004 486.856 228.428 479.088 233.34L482.829 239.256ZM505.449 233.004C514.007 233.004 521.511 235.11 528.068 239.256L531.809 233.34C524.041 228.428 515.219 226.004 505.449 226.004V233.004ZM528.068 239.256C534.594 243.383 539.755 249.415 543.511 257.52L549.862 254.576C545.613 245.406 539.609 238.272 531.809 233.34L528.068 239.256ZM543.533 257.566C547.362 265.519 549.349 275.192 549.349 286.7H556.349C556.349 274.403 554.227 263.641 549.84 254.53L543.533 257.566ZM549.349 286.7C549.349 298.207 547.363 307.939 543.526 316.007L549.847 319.013C554.227 309.806 556.349 298.999 556.349 286.7H549.349ZM543.518 316.023C539.766 324.021 534.605 330.01 528.068 334.144L531.809 340.06C539.598 335.135 545.602 328.063 549.855 318.997L543.518 316.023ZM528.068 334.144C521.511 338.29 514.007 340.396 505.449 340.396V347.396C515.219 347.396 524.041 344.972 531.809 340.06L528.068 334.144ZM505.449 325.75C513.409 325.75 519.76 322.226 524.177 315.477L518.32 311.643C515.154 316.481 510.971 318.75 505.449 318.75V325.75ZM524.153 315.514C528.631 308.856 530.595 299.057 530.595 286.7H523.595C523.595 298.569 521.661 306.677 518.345 311.606L524.153 315.514ZM530.595 286.7C530.595 274.343 528.631 264.544 524.153 257.886L518.345 261.794C521.661 266.723 523.595 274.831 523.595 286.7H530.595ZM524.177 257.923C519.76 251.174 513.409 247.65 505.449 247.65V254.65C510.971 254.65 515.154 256.919 518.32 261.757L524.177 257.923ZM505.449 247.65C497.577 247.65 491.252 251.187 486.745 257.886L492.553 261.794C495.84 256.907 500.048 254.65 505.449 254.65V247.65ZM486.72 257.923C482.369 264.571 480.461 274.354 480.461 286.7H487.461C487.461 274.819 489.345 266.695 492.577 261.757L486.72 257.923ZM480.461 286.7C480.461 299.046 482.369 308.829 486.72 315.477L492.577 311.643C489.345 306.705 487.461 298.581 487.461 286.7H480.461ZM486.745 315.514C491.252 322.213 497.577 325.75 505.449 325.75V318.75C500.048 318.75 495.84 316.493 492.553 311.606L486.745 315.514ZM646.993 321.144H650.493V317.644H646.993V321.144ZM646.993 342V345.5H650.493V342H646.993ZM563.411 342H559.911V345.5H563.411V342ZM563.411 325.41L561.008 322.865L559.911 323.901V325.41H563.411ZM606.071 285.12L608.474 287.665L608.481 287.659L608.487 287.653L606.071 285.12ZM615.235 274.06L618.344 275.668L618.355 275.647L618.366 275.625L615.235 274.06ZM613.023 254.626L610.802 257.331L610.854 257.374L610.908 257.414L613.023 254.626ZM586.795 253.836L588.257 257.016L588.292 257L588.326 256.983L586.795 253.836ZM576.999 262.052L575.104 264.994L577.908 266.801L579.847 264.086L576.999 262.052ZM558.355 250.044L555.45 248.092L553.459 251.054L556.46 252.987L558.355 250.044ZM576.209 235.034L577.704 238.199L577.722 238.19L577.739 238.182L576.209 235.034ZM623.767 233.612L622.336 236.806L622.369 236.821L622.402 236.835L623.767 233.612ZM638.145 244.988L635.252 246.958L635.276 246.993L635.301 247.028L638.145 244.988ZM639.567 279.116L642.723 280.631L642.723 280.631L639.567 279.116ZM624.873 297.128L622.493 294.562L622.482 294.572L622.471 294.583L624.873 297.128ZM599.435 321.144L597.033 318.599L590.63 324.644H599.435V321.144ZM643.493 321.144V342H650.493V321.144H643.493ZM646.993 338.5H563.411V345.5H646.993V338.5ZM566.911 342V325.41H559.911V342H566.911ZM565.814 327.955L608.474 287.665L603.668 282.575L561.008 322.865L565.814 327.955ZM608.487 287.653C613.106 283.248 616.495 279.242 618.344 275.668L612.127 272.452C610.815 274.987 608.095 278.354 603.656 282.587L608.487 287.653ZM618.366 275.625C620.151 272.055 621.105 268.415 621.105 264.738H614.105C614.105 267.17 613.48 269.745 612.105 272.495L618.366 275.625ZM621.105 264.738C621.105 259.41 619.207 254.924 615.139 251.838L610.908 257.414C612.948 258.962 614.105 261.218 614.105 264.738H621.105ZM615.245 251.921C611.417 248.777 606.111 247.492 599.909 247.492V254.492C605.294 254.492 608.731 255.63 610.802 257.331L615.245 251.921ZM599.909 247.492C594.597 247.492 589.692 248.534 585.264 250.689L588.326 256.983C591.693 255.346 595.531 254.492 599.909 254.492V247.492ZM585.334 250.656C580.851 252.715 577.118 255.864 574.151 260.018L579.847 264.086C582.147 260.867 584.945 258.538 588.257 257.016L585.334 250.656ZM578.894 259.109L560.25 247.101L556.46 252.987L575.104 264.994L578.894 259.109ZM561.26 251.996C565.197 246.138 570.641 241.534 577.704 238.199L574.715 231.869C566.609 235.697 560.15 241.099 555.45 248.092L561.26 251.996ZM577.739 238.182C584.775 234.762 592.928 233.004 602.279 233.004V226.004C592.039 226.004 582.811 227.933 574.679 231.886L577.739 238.182ZM602.279 233.004C610.111 233.004 616.767 234.309 622.336 236.806L625.199 230.418C618.549 227.437 610.879 226.004 602.279 226.004V233.004ZM622.402 236.835C628.078 239.24 632.306 242.631 635.252 246.958L641.038 243.018C637.243 237.443 631.885 233.251 625.133 230.389L622.402 236.835ZM635.301 247.028C638.303 251.212 639.859 256.22 639.859 262.21H646.859C646.859 254.928 644.94 248.454 640.989 242.948L635.301 247.028ZM639.859 262.21C639.859 267.705 638.707 272.821 636.412 277.601L642.723 280.631C645.484 274.878 646.859 268.723 646.859 262.21H639.859ZM636.412 277.601C634.162 282.289 629.632 287.94 622.493 294.562L627.253 299.694C634.651 292.833 639.917 286.476 642.723 280.631L636.412 277.601ZM622.471 294.583L597.033 318.599L601.838 323.689L627.276 299.673L622.471 294.583ZM599.435 324.644H646.993V317.644H599.435V324.644ZM700.215 231.4H703.715V227.9H700.215V231.4ZM700.215 342V345.5H703.715V342H700.215ZM674.619 342H671.119V345.5H674.619V342ZM674.619 251.94H678.119V248.44H674.619V251.94ZM652.499 251.94H648.999V255.44H652.499V251.94ZM652.499 231.4V227.9H648.999V231.4H652.499ZM696.715 231.4V342H703.715V231.4H696.715ZM700.215 338.5H674.619V345.5H700.215V338.5ZM678.119 342V251.94H671.119V342H678.119ZM674.619 248.44H652.499V255.44H674.619V248.44ZM655.999 251.94V231.4H648.999V251.94H655.999ZM652.499 234.9H700.215V227.9H652.499V234.9Z" fill="white"/>
<g filter="url(#filter0_f)">
<path d="M447.796 321.144H452.796V316.144H447.796V321.144ZM447.796 342V347H452.796V342H447.796ZM364.214 342H359.214V347H364.214V342ZM364.214 325.41L360.781 321.775L359.214 323.255V325.41H364.214ZM406.874 285.12L410.307 288.755L410.316 288.747L410.324 288.739L406.874 285.12ZM416.038 274.06L420.479 276.357L420.495 276.327L420.51 276.296L416.038 274.06ZM413.826 254.626L410.652 258.49L410.727 258.551L410.804 258.609L413.826 254.626ZM387.598 253.836L389.686 258.379L389.736 258.356L389.785 258.332L387.598 253.836ZM377.802 262.052L375.095 266.256L379.101 268.836L381.871 264.958L377.802 262.052ZM359.158 250.044L355.008 247.255L352.164 251.487L356.451 254.248L359.158 250.044ZM377.012 235.034L379.147 239.555L379.173 239.543L379.198 239.531L377.012 235.034ZM424.57 233.612L422.525 238.175L422.572 238.196L422.619 238.216L424.57 233.612ZM438.948 244.988L434.815 247.802L434.85 247.853L434.885 247.903L438.948 244.988ZM440.37 279.116L444.878 281.28L444.878 281.28L440.37 279.116ZM425.676 297.128L422.276 293.462L422.26 293.477L422.244 293.492L425.676 297.128ZM400.238 321.144L396.806 317.508L387.659 326.144H400.238V321.144ZM442.796 321.144V342H452.796V321.144H442.796ZM447.796 337H364.214V347H447.796V337ZM369.214 342V325.41H359.214V342H369.214ZM367.647 329.045L410.307 288.755L403.441 281.485L360.781 321.775L367.647 329.045ZM410.324 288.739C414.982 284.297 418.515 280.154 420.479 276.357L411.597 271.763C410.401 274.076 407.824 277.305 403.424 281.501L410.324 288.739ZM420.51 276.296C422.383 272.551 423.408 268.682 423.408 264.738H413.408C413.408 266.903 412.853 269.249 411.566 271.824L420.51 276.296ZM423.408 264.738C423.408 259.023 421.351 254.059 416.848 250.643L410.804 258.609C412.41 259.828 413.408 261.605 413.408 264.738H423.408ZM417 250.762C412.795 247.309 407.089 245.992 400.712 245.992V255.992C405.921 255.992 408.958 257.098 410.652 258.49L417 250.762ZM400.712 245.992C395.199 245.992 390.066 247.075 385.411 249.34L389.785 258.332C392.924 256.805 396.534 255.992 400.712 255.992V245.992ZM385.51 249.293C380.776 251.468 376.844 254.792 373.733 259.146L381.871 264.958C384.027 261.939 386.625 259.786 389.686 258.379L385.51 249.293ZM380.509 257.848L361.865 245.84L356.451 254.248L375.095 266.256L380.509 257.848ZM363.308 252.833C367.082 247.218 372.308 242.785 379.147 239.555L374.877 230.513C366.548 234.446 359.872 240.019 355.008 247.255L363.308 252.833ZM379.198 239.531C385.999 236.225 393.921 234.504 403.082 234.504V224.504C392.651 224.504 383.193 226.47 374.826 230.537L379.198 239.531ZM403.082 234.504C410.749 234.504 417.187 235.782 422.525 238.175L426.615 229.049C419.734 225.965 411.847 224.504 403.082 224.504V234.504ZM422.619 238.216C428.065 240.523 432.051 243.743 434.815 247.802L443.081 242.174C439.103 236.332 433.504 231.967 426.521 229.008L422.619 238.216ZM434.885 247.903C437.684 251.803 439.162 256.496 439.162 262.21H449.162C449.162 254.652 447.164 247.863 443.011 242.073L434.885 247.903ZM439.162 262.21C439.162 267.486 438.057 272.38 435.862 276.952L444.878 281.28C447.739 275.319 449.162 268.942 449.162 262.21H439.162ZM435.862 276.952C433.731 281.392 429.359 286.892 422.276 293.462L429.076 300.794C436.529 293.881 441.953 287.373 444.878 281.28L435.862 276.952ZM422.244 293.492L396.806 317.508L403.67 324.78L429.108 300.764L422.244 293.492ZM400.238 326.144H447.796V316.144H400.238V326.144ZM480.959 337.102L483.631 332.876L483.631 332.876L480.959 337.102ZM464.053 317.51L459.516 319.612L459.532 319.646L459.548 319.679L464.053 317.51ZM464.053 256.048L459.537 253.9L459.532 253.912L459.526 253.924L464.053 256.048ZM480.959 236.298L483.631 240.524L483.631 240.524L480.959 236.298ZM529.939 236.298L527.266 240.524L527.266 240.524L529.939 236.298ZM546.687 256.048L542.15 258.15L542.166 258.184L542.182 258.217L546.687 256.048ZM546.687 317.51L542.171 315.362L542.166 315.374L542.16 315.386L546.687 317.51ZM529.939 337.102L527.266 332.876L527.266 332.876L529.939 337.102ZM521.249 313.56L517.1 310.769L517.082 310.795L517.065 310.822L521.249 313.56ZM521.249 259.84L517.065 262.578L517.082 262.605L517.1 262.631L521.249 259.84ZM489.649 259.84L485.5 257.049L485.482 257.075L485.465 257.102L489.649 259.84ZM489.649 313.56L485.465 316.298L485.482 316.325L485.5 316.351L489.649 313.56ZM505.449 338.896C497.151 338.896 489.929 336.859 483.631 332.876L478.286 341.328C486.314 346.404 495.419 348.896 505.449 348.896V338.896ZM483.631 332.876C477.35 328.904 472.309 323.131 468.558 315.341L459.548 319.679C464.013 328.953 470.242 336.241 478.286 341.328L483.631 332.876ZM468.589 315.408C464.958 307.573 463.049 298.053 463.049 286.7H453.049C453.049 299.152 455.142 310.173 459.516 319.612L468.589 315.408ZM463.049 286.7C463.049 275.344 464.959 265.888 468.579 258.172L459.526 253.924C455.141 263.272 453.049 274.25 453.049 286.7H463.049ZM468.568 258.196C472.324 250.298 477.366 244.486 483.631 240.524L478.286 232.072C470.226 237.169 463.997 244.523 459.537 253.9L468.568 258.196ZM483.631 240.524C489.929 236.541 497.151 234.504 505.449 234.504V224.504C495.419 224.504 486.314 226.996 478.286 232.072L483.631 240.524ZM505.449 234.504C513.747 234.504 520.968 236.541 527.266 240.524L532.611 232.072C524.584 226.996 515.479 224.504 505.449 224.504V234.504ZM527.266 240.524C533.519 244.478 538.5 250.274 542.15 258.15L551.223 253.946C546.868 244.547 540.684 237.177 532.611 232.072L527.266 240.524ZM542.182 258.217C545.891 265.921 547.849 275.361 547.849 286.7H557.849C557.849 274.234 555.698 263.239 551.192 253.879L542.182 258.217ZM547.849 286.7C547.849 298.037 545.892 307.539 542.171 315.362L551.202 319.658C555.697 310.206 557.849 299.169 557.849 286.7H547.849ZM542.16 315.386C538.516 323.155 533.535 328.912 527.266 332.876L532.611 341.328C540.668 336.233 546.853 328.929 551.213 319.634L542.16 315.386ZM527.266 332.876C520.968 336.859 513.747 338.896 505.449 338.896V348.896C515.479 348.896 524.584 346.404 532.611 341.328L527.266 332.876ZM505.449 327.25C513.931 327.25 520.747 323.457 525.432 316.298L517.065 310.822C514.167 315.25 510.449 317.25 505.449 317.25V327.25ZM525.397 316.351C530.125 309.323 532.095 299.162 532.095 286.7H522.095C522.095 298.465 520.167 306.21 517.1 310.769L525.397 316.351ZM532.095 286.7C532.095 274.238 530.125 264.076 525.397 257.049L517.1 262.631C520.167 267.19 522.095 274.935 522.095 286.7H532.095ZM525.432 257.102C520.747 249.943 513.931 246.15 505.449 246.15V256.15C510.449 256.15 514.167 258.15 517.065 262.578L525.432 257.102ZM505.449 246.15C497.047 246.15 490.269 249.961 485.5 257.049L493.797 262.631C496.823 258.133 500.578 256.15 505.449 256.15V246.15ZM485.465 257.102C480.874 264.116 478.961 274.254 478.961 286.7H488.961C488.961 274.919 490.84 267.15 493.832 262.578L485.465 257.102ZM478.961 286.7C478.961 299.146 480.874 309.284 485.465 316.298L493.832 310.822C490.84 306.25 488.961 298.481 488.961 286.7H478.961ZM485.5 316.351C490.269 323.439 497.047 327.25 505.449 327.25V317.25C500.578 317.25 496.823 315.267 493.797 310.769L485.5 316.351ZM646.993 321.144H651.993V316.144H646.993V321.144ZM646.993 342V347H651.993V342H646.993ZM563.411 342H558.411V347H563.411V342ZM563.411 325.41L559.978 321.775L558.411 323.255V325.41H563.411ZM606.071 285.12L609.504 288.755L609.513 288.747L609.522 288.739L606.071 285.12ZM615.235 274.06L619.676 276.357L619.692 276.327L619.707 276.296L615.235 274.06ZM613.023 254.626L609.85 258.49L609.924 258.551L610.001 258.609L613.023 254.626ZM586.795 253.836L588.883 258.379L588.933 258.356L588.983 258.332L586.795 253.836ZM576.999 262.052L574.292 266.256L578.298 268.836L581.068 264.958L576.999 262.052ZM558.355 250.044L554.206 247.255L551.361 251.487L555.648 254.248L558.355 250.044ZM576.209 235.034L578.344 239.555L578.37 239.543L578.395 239.531L576.209 235.034ZM623.767 233.612L621.722 238.175L621.769 238.196L621.817 238.216L623.767 233.612ZM638.145 244.988L634.012 247.802L634.047 247.853L634.083 247.903L638.145 244.988ZM639.567 279.116L644.075 281.28L644.075 281.28L639.567 279.116ZM624.873 297.128L621.473 293.462L621.457 293.477L621.441 293.492L624.873 297.128ZM599.435 321.144L596.003 317.508L586.856 326.144H599.435V321.144ZM641.993 321.144V342H651.993V321.144H641.993ZM646.993 337H563.411V347H646.993V337ZM568.411 342V325.41H558.411V342H568.411ZM566.844 329.045L609.504 288.755L602.638 281.485L559.978 321.775L566.844 329.045ZM609.522 288.739C614.18 284.297 617.713 280.154 619.676 276.357L610.794 271.763C609.598 274.076 607.021 277.305 602.621 281.501L609.522 288.739ZM619.707 276.296C621.58 272.551 622.605 268.682 622.605 264.738H612.605C612.605 266.903 612.05 269.249 610.763 271.824L619.707 276.296ZM622.605 264.738C622.605 259.023 620.549 254.059 616.045 250.643L610.001 258.609C611.607 259.828 612.605 261.605 612.605 264.738H622.605ZM616.197 250.762C611.993 247.309 606.287 245.992 599.909 245.992V255.992C605.119 255.992 608.155 257.098 609.85 258.49L616.197 250.762ZM599.909 245.992C594.396 245.992 589.263 247.075 584.608 249.34L588.983 258.332C592.122 256.805 595.732 255.992 599.909 255.992V245.992ZM584.708 249.293C579.974 251.468 576.041 254.792 572.931 259.146L581.068 264.958C583.224 261.939 585.822 259.786 588.883 258.379L584.708 249.293ZM579.707 257.848L561.063 245.84L555.648 254.248L574.292 266.256L579.707 257.848ZM562.505 252.833C566.279 247.218 571.505 242.785 578.344 239.555L574.074 230.513C565.745 234.446 559.069 240.019 554.206 247.255L562.505 252.833ZM578.395 239.531C585.196 236.225 593.118 234.504 602.279 234.504V224.504C591.848 224.504 582.39 226.47 574.023 230.537L578.395 239.531ZM602.279 234.504C609.947 234.504 616.385 235.782 621.722 238.175L625.813 229.049C618.931 225.965 611.044 224.504 602.279 224.504V234.504ZM621.817 238.216C627.263 240.523 631.249 243.743 634.012 247.802L642.278 242.174C638.301 236.332 632.701 231.967 625.718 229.008L621.817 238.216ZM634.083 247.903C636.881 251.803 638.359 256.496 638.359 262.21H648.359C648.359 254.652 646.362 247.863 642.208 242.073L634.083 247.903ZM638.359 262.21C638.359 267.486 637.254 272.38 635.06 276.952L644.075 281.28C646.936 275.319 648.359 268.942 648.359 262.21H638.359ZM635.06 276.952C632.929 281.392 628.556 286.892 621.473 293.462L628.273 300.794C635.726 293.881 641.15 287.373 644.075 281.28L635.06 276.952ZM621.441 293.492L596.003 317.508L602.868 324.78L628.306 300.764L621.441 293.492ZM599.435 326.144H646.993V316.144H599.435V326.144ZM700.215 231.4H705.215V226.4H700.215V231.4ZM700.215 342V347H705.215V342H700.215ZM674.619 342H669.619V347H674.619V342ZM674.619 251.94H679.619V246.94H674.619V251.94ZM652.499 251.94H647.499V256.94H652.499V251.94ZM652.499 231.4V226.4H647.499V231.4H652.499ZM695.215 231.4V342H705.215V231.4H695.215ZM700.215 337H674.619V347H700.215V337ZM679.619 342V251.94H669.619V342H679.619ZM674.619 246.94H652.499V256.94H674.619V246.94ZM657.499 251.94V231.4H647.499V251.94H657.499ZM652.499 236.4H700.215V226.4H652.499V236.4Z" fill="url(#paint0_linear)"/>
</g>
<path d="M430.6 132V202H417.6V172H381.4V202H368.4V132H381.4V160.9H417.6V132H430.6ZM494.757 185.8H459.757L452.857 202H439.457L470.957 132H483.757L515.357 202H501.757L494.757 185.8ZM490.457 175.6L477.257 145L464.157 175.6H490.457ZM555.683 203C548.616 203 542.216 201.467 536.483 198.4C530.816 195.267 526.349 190.967 523.083 185.5C519.883 180.033 518.283 173.867 518.283 167C518.283 160.133 519.916 153.967 523.183 148.5C526.449 143.033 530.916 138.767 536.583 135.7C542.316 132.567 548.716 131 555.783 131C561.516 131 566.749 132 571.483 134C576.216 136 580.216 138.9 583.483 142.7L575.083 150.6C570.016 145.133 563.783 142.4 556.383 142.4C551.583 142.4 547.283 143.467 543.483 145.6C539.683 147.667 536.716 150.567 534.583 154.3C532.449 158.033 531.383 162.267 531.383 167C531.383 171.733 532.449 175.967 534.583 179.7C536.716 183.433 539.683 186.367 543.483 188.5C547.283 190.567 551.583 191.6 556.383 191.6C563.783 191.6 570.016 188.833 575.083 183.3L583.483 191.3C580.216 195.1 576.183 198 571.383 200C566.649 202 561.416 203 555.683 203ZM620.039 172.7L608.939 184.1V202H595.939V132H608.939V167.9L643.539 132H658.139L628.739 163.3L659.939 202H644.739L620.039 172.7ZM689.026 203C683.626 203 678.392 202.233 673.326 200.7C668.326 199.167 664.359 197.133 661.426 194.6L665.926 184.5C668.792 186.767 672.292 188.633 676.426 190.1C680.626 191.5 684.826 192.2 689.026 192.2C694.226 192.2 698.092 191.367 700.626 189.7C703.226 188.033 704.526 185.833 704.526 183.1C704.526 181.1 703.792 179.467 702.326 178.2C700.926 176.867 699.126 175.833 696.926 175.1C694.726 174.367 691.726 173.533 687.926 172.6C682.592 171.333 678.259 170.067 674.926 168.8C671.659 167.533 668.826 165.567 666.426 162.9C664.092 160.167 662.926 156.5 662.926 151.9C662.926 148.033 663.959 144.533 666.026 141.4C668.159 138.2 671.326 135.667 675.526 133.8C679.792 131.933 684.992 131 691.126 131C695.392 131 699.592 131.533 703.726 132.6C707.859 133.667 711.426 135.2 714.426 137.2L710.326 147.3C707.259 145.5 704.059 144.133 700.726 143.2C697.392 142.267 694.159 141.8 691.026 141.8C685.892 141.8 682.059 142.667 679.526 144.4C677.059 146.133 675.826 148.433 675.826 151.3C675.826 153.3 676.526 154.933 677.926 156.2C679.392 157.467 681.226 158.467 683.426 159.2C685.626 159.933 688.626 160.767 692.426 161.7C697.626 162.9 701.892 164.167 705.226 165.5C708.559 166.767 711.392 168.733 713.726 171.4C716.126 174.067 717.326 177.667 717.326 182.2C717.326 186.067 716.259 189.567 714.126 192.7C712.059 195.833 708.892 198.333 704.626 200.2C700.359 202.067 695.159 203 689.026 203Z" fill="white"/>
<g filter="url(#filter1_f)">
<path d="M430.6 132V202H417.6V172H381.4V202H368.4V132H381.4V160.9H417.6V132H430.6ZM494.757 185.8H459.757L452.857 202H439.457L470.957 132H483.757L515.357 202H501.757L494.757 185.8ZM490.457 175.6L477.257 145L464.157 175.6H490.457ZM555.683 203C548.616 203 542.216 201.467 536.483 198.4C530.816 195.267 526.349 190.967 523.083 185.5C519.883 180.033 518.283 173.867 518.283 167C518.283 160.133 519.916 153.967 523.183 148.5C526.449 143.033 530.916 138.767 536.583 135.7C542.316 132.567 548.716 131 555.783 131C561.516 131 566.749 132 571.483 134C576.216 136 580.216 138.9 583.483 142.7L575.083 150.6C570.016 145.133 563.783 142.4 556.383 142.4C551.583 142.4 547.283 143.467 543.483 145.6C539.683 147.667 536.716 150.567 534.583 154.3C532.449 158.033 531.383 162.267 531.383 167C531.383 171.733 532.449 175.967 534.583 179.7C536.716 183.433 539.683 186.367 543.483 188.5C547.283 190.567 551.583 191.6 556.383 191.6C563.783 191.6 570.016 188.833 575.083 183.3L583.483 191.3C580.216 195.1 576.183 198 571.383 200C566.649 202 561.416 203 555.683 203ZM620.039 172.7L608.939 184.1V202H595.939V132H608.939V167.9L643.539 132H658.139L628.739 163.3L659.939 202H644.739L620.039 172.7ZM689.026 203C683.626 203 678.392 202.233 673.326 200.7C668.326 199.167 664.359 197.133 661.426 194.6L665.926 184.5C668.792 186.767 672.292 188.633 676.426 190.1C680.626 191.5 684.826 192.2 689.026 192.2C694.226 192.2 698.092 191.367 700.626 189.7C703.226 188.033 704.526 185.833 704.526 183.1C704.526 181.1 703.792 179.467 702.326 178.2C700.926 176.867 699.126 175.833 696.926 175.1C694.726 174.367 691.726 173.533 687.926 172.6C682.592 171.333 678.259 170.067 674.926 168.8C671.659 167.533 668.826 165.567 666.426 162.9C664.092 160.167 662.926 156.5 662.926 151.9C662.926 148.033 663.959 144.533 666.026 141.4C668.159 138.2 671.326 135.667 675.526 133.8C679.792 131.933 684.992 131 691.126 131C695.392 131 699.592 131.533 703.726 132.6C707.859 133.667 711.426 135.2 714.426 137.2L710.326 147.3C707.259 145.5 704.059 144.133 700.726 143.2C697.392 142.267 694.159 141.8 691.026 141.8C685.892 141.8 682.059 142.667 679.526 144.4C677.059 146.133 675.826 148.433 675.826 151.3C675.826 153.3 676.526 154.933 677.926 156.2C679.392 157.467 681.226 158.467 683.426 159.2C685.626 159.933 688.626 160.767 692.426 161.7C697.626 162.9 701.892 164.167 705.226 165.5C708.559 166.767 711.392 168.733 713.726 171.4C716.126 174.067 717.326 177.667 717.326 182.2C717.326 186.067 716.259 189.567 714.126 192.7C712.059 195.833 708.892 198.333 704.626 200.2C700.359 202.067 695.159 203 689.026 203Z" fill="white"/>
</g>
<g filter="url(#filter2_f)">
<path d="M402.43 72L393.07 93H391.54L382.18 72H383.86L392.35 91.02L400.84 72H402.43ZM405.816 72H407.346V93H405.816V72ZM429.244 93L424.234 85.98C423.494 86.08 422.814 86.13 422.194 86.13H416.194V93H414.664V72H422.194C424.834 72 426.904 72.63 428.404 73.89C429.904 75.13 430.654 76.86 430.654 79.08C430.654 80.74 430.224 82.14 429.364 83.28C428.524 84.4 427.314 85.19 425.734 85.65L430.984 93H429.244ZM422.194 84.78C424.434 84.78 426.144 84.29 427.324 83.31C428.504 82.31 429.094 80.9 429.094 79.08C429.094 77.26 428.504 75.86 427.324 74.88C426.144 73.88 424.434 73.38 422.194 73.38H416.194V84.78H422.194ZM439.983 73.38H432.423V72H449.073V73.38H441.513V93H439.983V73.38ZM460.677 93.15C458.017 93.15 455.947 92.38 454.467 90.84C453.007 89.3 452.277 87.05 452.277 84.09V72H453.807V84.03C453.807 86.61 454.397 88.54 455.577 89.82C456.757 91.1 458.467 91.74 460.707 91.74C462.927 91.74 464.627 91.1 465.807 89.82C466.987 88.54 467.577 86.61 467.577 84.03V72H469.107V84.09C469.107 87.05 468.367 89.3 466.887 90.84C465.407 92.38 463.337 93.15 460.677 93.15ZM488.796 87.09H476.616L473.946 93H472.296L481.956 72H483.486L493.146 93H491.496L488.796 87.09ZM488.226 85.8L482.706 73.68L477.216 85.8H488.226ZM496.959 72H498.489V91.62H510.579V93H496.959V72Z" fill="white"/>
</g>
<path d="M402.43 72L393.07 93H391.54L382.18 72H383.86L392.35 91.02L400.84 72H402.43ZM405.816 72H407.346V93H405.816V72ZM429.244 93L424.234 85.98C423.494 86.08 422.814 86.13 422.194 86.13H416.194V93H414.664V72H422.194C424.834 72 426.904 72.63 428.404 73.89C429.904 75.13 430.654 76.86 430.654 79.08C430.654 80.74 430.224 82.14 429.364 83.28C428.524 84.4 427.314 85.19 425.734 85.65L430.984 93H429.244ZM422.194 84.78C424.434 84.78 426.144 84.29 427.324 83.31C428.504 82.31 429.094 80.9 429.094 79.08C429.094 77.26 428.504 75.86 427.324 74.88C426.144 73.88 424.434 73.38 422.194 73.38H416.194V84.78H422.194ZM439.983 73.38H432.423V72H449.073V73.38H441.513V93H439.983V73.38ZM460.677 93.15C458.017 93.15 455.947 92.38 454.467 90.84C453.007 89.3 452.277 87.05 452.277 84.09V72H453.807V84.03C453.807 86.61 454.397 88.54 455.577 89.82C456.757 91.1 458.467 91.74 460.707 91.74C462.927 91.74 464.627 91.1 465.807 89.82C466.987 88.54 467.577 86.61 467.577 84.03V72H469.107V84.09C469.107 87.05 468.367 89.3 466.887 90.84C465.407 92.38 463.337 93.15 460.677 93.15ZM488.796 87.09H476.616L473.946 93H472.296L481.956 72H483.486L493.146 93H491.496L488.796 87.09ZM488.226 85.8L482.706 73.68L477.216 85.8H488.226ZM496.959 72H498.489V91.62H510.579V93H496.959V72Z" fill="white"/>
<g filter="url(#filter3_f)">
<rect x="366" y="55" width="160" height="50" stroke="white" stroke-width="2"/>
</g>
<g filter="url(#filter4_b)">
<rect x="366" y="55" width="160" height="50" stroke="white" stroke-width="2"/>
</g>
<path d="M20 301.893C20 372.901 20 372.901 89.3456 372.901H130.928H202.032C204.042 372.901 205.675 371.264 205.675 369.376V360.563V304.411V266.64C205.675 261.227 205.675 261.227 201.53 259.464L139.973 230.885C134.822 228.618 134.822 228.618 134.822 234.158V287.414C134.822 301.893 134.822 301.893 113.717 301.893C91.23 301.893 91.3556 301.893 91.3556 287.414V123.994V55.3782C91.3556 47.3206 52.5371 20 30.8038 20C20 20 20 30.4498 20 32.0865V301.893Z" fill="white"/>
<path d="M321 395.06V147.286C321 85.7204 321.126 63.1841 227.911 63.1841C134.948 63.1841 134.948 81.9434 134.948 147.286V178.006C134.948 180.65 135.827 180.65 137.083 181.279L200.65 211.999C205.927 214.517 205.927 214.517 205.801 208.726V146.027C205.801 136.585 205.801 134.444 227.409 134.444C249.268 134.444 249.519 136.585 249.519 145.775V371.264C249.519 378.818 249.519 378.818 251.654 381.336C269.745 394.934 284.066 403.999 310.071 403.999C321 404.125 321 395.06 321 395.06Z" fill="white"/>
<g filter="url(#filter5_f)">
<path d="M20 301.893C20 372.901 20 372.901 89.3456 372.901H130.928H202.032C204.042 372.901 205.675 371.264 205.675 369.376V360.563V304.411V266.64C205.675 261.227 205.675 261.227 201.53 259.464L139.973 230.885C134.822 228.618 134.822 228.618 134.822 234.158V287.414C134.822 301.893 134.822 301.893 113.717 301.893C91.23 301.893 91.3556 301.893 91.3556 287.414V123.994V55.3782C91.3556 47.3206 52.5371 20 30.8038 20C20 20 20 30.4498 20 32.0865V301.893Z" fill="white"/>
<path d="M321 395.06V147.286C321 85.7204 321.126 63.1841 227.911 63.1841C134.948 63.1841 134.948 81.9434 134.948 147.286V178.006C134.948 180.65 135.827 180.65 137.083 181.279L200.65 211.999C205.927 214.517 205.927 214.517 205.801 208.726V146.027C205.801 136.585 205.801 134.444 227.409 134.444C249.268 134.444 249.519 136.585 249.519 145.775V371.264C249.519 378.818 249.519 378.818 251.654 381.336C269.745 394.934 284.066 403.999 310.071 403.999C321 404.125 321 395.06 321 395.06Z" fill="white"/>
</g>
<defs>
<filter id="filter0_f" x="344.164" y="216.504" width="369.051" height="140.392" filterUnits="userSpaceOnUse" color-interpolation-filters="sRGB">
<feFlood flood-opacity="0" result="BackgroundImageFix"/>
<feBlend mode="normal" in="SourceGraphic" in2="BackgroundImageFix" result="shape"/>
<feGaussianBlur stdDeviation="4" result="effect1_foregroundBlur"/>
</filter>
<filter id="filter1_f" x="358.4" y="121" width="368.926" height="92" filterUnits="userSpaceOnUse" color-interpolation-filters="sRGB">
<feFlood flood-opacity="0" result="BackgroundImageFix"/>
<feBlend mode="normal" in="SourceGraphic" in2="BackgroundImageFix" result="shape"/>
<feGaussianBlur stdDeviation="5" result="effect1_foregroundBlur"/>
</filter>
<filter id="filter2_f" x="372.18" y="62" width="148.399" height="41.15" filterUnits="userSpaceOnUse" color-interpolation-filters="sRGB">
<feFlood flood-opacity="0" result="BackgroundImageFix"/>
<feBlend mode="normal" in="SourceGraphic" in2="BackgroundImageFix" result="shape"/>
<feGaussianBlur stdDeviation="5" result="effect1_foregroundBlur"/>
</filter>
<filter id="filter3_f" x="355" y="44" width="182" height="72" filterUnits="userSpaceOnUse" color-interpolation-filters="sRGB">
<feFlood flood-opacity="0" result="BackgroundImageFix"/>
<feBlend mode="normal" in="SourceGraphic" in2="BackgroundImageFix" result="shape"/>
<feGaussianBlur stdDeviation="5" result="effect1_foregroundBlur"/>
</filter>
<filter id="filter4_b" x="361" y="50" width="170" height="60" filterUnits="userSpaceOnUse" color-interpolation-filters="sRGB">
<feFlood flood-opacity="0" result="BackgroundImageFix"/>
<feGaussianBlur in="BackgroundImage" stdDeviation="2"/>
<feComposite in2="SourceAlpha" operator="in" result="effect1_backgroundBlur"/>
<feBlend mode="normal" in="SourceGraphic" in2="effect1_backgroundBlur" result="shape"/>
</filter>
<filter id="filter5_f" x="0" y="0" width="341" height="424" filterUnits="userSpaceOnUse" color-interpolation-filters="sRGB">
<feFlood flood-opacity="0" result="BackgroundImageFix"/>
<feBlend mode="normal" in="SourceGraphic" in2="BackgroundImageFix" result="shape"/>
<feGaussianBlur stdDeviation="10" result="effect1_foregroundBlur"/>
</filter>
<linearGradient id="paint0_linear" x1="359" y1="263.777" x2="721.575" y2="263.761" gradientUnits="userSpaceOnUse">
<stop stop-color="#D240CD"/>
<stop offset="1" stop-color="#3DD2F3"/>
</linearGradient>
</defs>
</svg>
