<svg width="815" height="385" viewBox="0 0 815 385" fill="none"
     xmlns="http://www.w3.org/2000/svg">
<path d="M9.70117 147.632L235.263 42.4508L340.444 268.012L114.882 373.193L9.70117 147.632Z" fill="url(#paint0_linear_80110031)"/>
<path fill-rule="evenodd" clip-rule="evenodd" d="M160.765 42.0143L9.0142 222.864L189.864 374.615L341.615 193.765L160.765 42.0143ZM0 223.653L190.653 383.629L350.629 192.977L159.977 33.0001L0 223.653Z" fill="url(#paint1_linear_80110031)"/>
<path d="M54.6704 280.487C54.6704 337.72 54.6704 337.72 110.13 337.72H143.385H200.251C201.859 337.72 203.165 336.401 203.165 334.879V327.775V282.517V252.074C203.165 247.71 203.165 247.71 199.849 246.29L150.619 223.255C146.5 221.428 146.5 221.428 146.5 225.893V268.817C146.5 280.487 146.5 280.487 129.621 280.487C111.637 280.487 111.737 280.487 111.737 268.817V137.101V81.7964C111.737 75.3019 80.6921 53.2815 63.3108 53.2815C54.6704 53.2815 54.6704 61.704 54.6704 63.0232V280.487Z" fill="white"/>
<path d="M295.396 355.58V155.874C295.396 106.252 295.496 88.0879 220.948 88.0879C146.6 88.0879 146.6 103.208 146.6 155.874V180.634C146.6 182.765 147.303 182.765 148.308 183.273L199.146 208.033C203.365 210.063 203.365 210.063 203.265 205.395V154.859C203.265 147.249 203.265 145.524 220.546 145.524C238.028 145.524 238.228 147.249 238.228 154.656V336.401C238.228 342.489 238.228 342.489 239.936 344.519C254.404 355.478 265.858 362.785 286.655 362.785C295.396 362.886 295.396 355.58 295.396 355.58Z" fill="white"/>
<path d="M461.8 55.72V154H437.86V113.54H400.62V154H376.68V55.72H400.62V94.22H437.86V55.72H461.8ZM474.322 114.8C474.322 106.773 475.816 99.7267 478.802 93.66C481.882 87.5933 486.036 82.9267 491.262 79.66C496.489 76.3933 502.322 74.76 508.762 74.76C514.269 74.76 519.076 75.88 523.182 78.12C527.382 80.36 530.602 83.3 532.842 86.94V75.88H556.782V154H532.842V142.94C530.509 146.58 527.242 149.52 523.042 151.76C518.936 154 514.129 155.12 508.622 155.12C502.276 155.12 496.489 153.487 491.262 150.22C486.036 146.86 481.882 142.147 478.802 136.08C475.816 129.92 474.322 122.827 474.322 114.8ZM532.842 114.94C532.842 108.967 531.162 104.253 527.802 100.8C524.536 97.3467 520.522 95.62 515.762 95.62C511.002 95.62 506.942 97.3467 503.582 100.8C500.316 104.16 498.682 108.827 498.682 114.8C498.682 120.773 500.316 125.533 503.582 129.08C506.942 132.533 511.002 134.26 515.762 134.26C520.522 134.26 524.536 132.533 527.802 129.08C531.162 125.627 532.842 120.913 532.842 114.94ZM569.342 114.94C569.342 106.82 570.975 99.7267 574.242 93.66C577.602 87.5933 582.222 82.9267 588.102 79.66C594.075 76.3933 600.889 74.76 608.542 74.76C618.342 74.76 626.509 77.3267 633.042 82.46C639.669 87.5933 644.009 94.8267 646.062 104.16H620.582C618.435 98.1867 614.282 95.2 608.122 95.2C603.735 95.2 600.235 96.9267 597.622 100.38C595.009 103.74 593.702 108.593 593.702 114.94C593.702 121.287 595.009 126.187 597.622 129.64C600.235 133 603.735 134.68 608.122 134.68C614.282 134.68 618.435 131.693 620.582 125.72H646.062C644.009 134.867 639.669 142.053 633.042 147.28C626.415 152.507 618.249 155.12 608.542 155.12C600.889 155.12 594.075 153.487 588.102 150.22C582.222 146.953 577.602 142.287 574.242 136.22C570.975 130.153 569.342 123.06 569.342 114.94ZM706.608 154L682.808 121.24V154H658.868V50.4H682.808V107.66L706.468 75.88H736.008L703.528 115.08L736.288 154H706.608ZM777.19 155.12C770.377 155.12 764.31 153.953 758.99 151.62C753.67 149.287 749.47 146.113 746.39 142.1C743.31 137.993 741.584 133.42 741.21 128.38H764.87C765.15 131.087 766.41 133.28 768.65 134.96C770.89 136.64 773.644 137.48 776.91 137.48C779.897 137.48 782.184 136.92 783.77 135.8C785.45 134.587 786.29 133.047 786.29 131.18C786.29 128.94 785.124 127.307 782.79 126.28C780.457 125.16 776.677 123.947 771.45 122.64C765.85 121.333 761.184 119.98 757.45 118.58C753.717 117.087 750.497 114.8 747.79 111.72C745.084 108.547 743.73 104.3 743.73 98.98C743.73 94.5 744.944 90.44 747.37 86.8C749.89 83.0667 753.53 80.1267 758.29 77.98C763.144 75.8333 768.884 74.76 775.51 74.76C785.31 74.76 793.01 77.1867 798.61 82.04C804.304 86.8933 807.57 93.3333 808.41 101.36H786.29C785.917 98.6533 784.704 96.5067 782.65 94.92C780.69 93.3333 778.077 92.54 774.81 92.54C772.01 92.54 769.864 93.1 768.37 94.22C766.877 95.2467 766.13 96.6933 766.13 98.56C766.13 100.8 767.297 102.48 769.63 103.6C772.057 104.72 775.79 105.84 780.83 106.96C786.617 108.453 791.33 109.947 794.97 111.44C798.61 112.84 801.784 115.173 804.49 118.44C807.29 121.613 808.737 125.907 808.83 131.32C808.83 135.893 807.524 140 804.91 143.64C802.39 147.187 798.704 149.987 793.85 152.04C789.09 154.093 783.537 155.12 777.19 155.12Z" fill="white"/>
<path d="M411.905 369L397.495 332.315H389.465L375.055 369H382.095L384.79 361.96H402.17L404.865 369H411.905ZM400.355 356.295H386.605L393.48 337.76L400.355 356.295ZM421.522 365.315C423.667 368.175 426.692 369.66 430.047 369.66C436.922 369.66 441.817 364.435 441.817 355.69C441.817 346.945 436.922 341.775 430.047 341.775C426.582 341.775 423.502 343.425 421.522 346.065V342.435H415.747V379.12H421.522V365.315ZM435.822 355.69C435.822 360.86 432.907 364.545 428.342 364.545C425.647 364.545 422.787 362.895 421.522 360.97V350.465C422.787 348.485 425.647 346.89 428.342 346.89C432.907 346.89 435.822 350.575 435.822 355.69ZM453.426 369V350.905C454.581 349.035 457.826 347.385 460.246 347.385C460.961 347.385 461.566 347.44 462.061 347.55V341.83C458.596 341.83 455.406 343.81 453.426 346.34V342.435H447.651V369H453.426ZM469.579 338.035C471.559 338.035 473.154 336.44 473.154 334.46C473.154 332.48 471.559 330.885 469.579 330.885C467.654 330.885 466.004 332.48 466.004 334.46C466.004 336.44 467.654 338.035 469.579 338.035ZM472.494 369V342.435H466.719V369H472.494ZM485.76 369V332.315H479.985V369H485.76ZM520.633 369V332.315H515.023L504.463 342.985L508.203 346.89L514.198 340.675V369H520.633ZM527.611 363.995C530.581 367.515 534.926 369.66 541.251 369.66C549.446 369.66 555.221 364.875 555.221 357.23C555.221 349.75 549.666 345.405 543.506 345.405C539.986 345.405 536.961 346.835 535.201 348.595V337.98H552.801V332.315H528.766V352.83L533.331 354.15C535.641 351.95 538.226 350.96 541.361 350.96C545.871 350.96 548.731 353.545 548.731 357.505C548.731 361.08 545.816 363.94 541.196 363.94C537.071 363.94 533.771 362.4 531.296 359.595L527.611 363.995ZM572.36 358.165V353.215H559.16V358.165H572.36ZM590.994 369V332.315H585.384L574.824 342.985L578.564 346.89L584.559 340.675V369H590.994ZM608.588 369L622.833 336.77V332.315H596.378V337.98H615.408L601.548 369H608.588ZM624.675 376.315C627.7 374.17 629.845 370.705 629.845 366.91C629.845 363.72 627.81 361.905 625.555 361.905C623.52 361.905 621.815 363.61 621.815 365.7C621.815 367.735 623.245 369.165 625.115 369.165C625.445 369.165 625.885 369.055 626.05 369C625.665 370.87 623.85 373.125 622.09 374.17L624.675 376.315ZM675.878 369V363.335H659.598C669.443 355.91 675.658 349.86 675.658 343.095C675.658 335.78 669.443 331.765 662.348 331.765C657.233 331.765 652.063 333.745 648.818 337.65L652.558 341.885C654.868 339.245 658.168 337.485 662.458 337.485C665.813 337.485 669.113 339.245 669.113 343.095C669.113 348.375 663.558 353.16 649.313 363.94V369H675.878ZM681.527 350.685C681.527 359.925 685.927 369.66 696.212 369.66C706.497 369.66 710.897 359.925 710.897 350.685C710.897 341.445 706.497 331.765 696.212 331.765C685.927 331.765 681.527 341.445 681.527 350.685ZM704.352 350.685C704.352 357.67 702.207 363.94 696.212 363.94C690.217 363.94 688.072 357.67 688.072 350.685C688.072 343.7 690.217 337.485 696.212 337.485C702.207 337.485 704.352 343.7 704.352 350.685ZM742.479 369V363.335H726.199C736.044 355.91 742.259 349.86 742.259 343.095C742.259 335.78 736.044 331.765 728.949 331.765C723.834 331.765 718.664 333.745 715.419 337.65L719.159 341.885C721.469 339.245 724.769 337.485 729.059 337.485C732.414 337.485 735.714 339.245 735.714 343.095C735.714 348.375 730.159 353.16 715.914 363.94V369H742.479ZM775.189 369V363.335H758.909C768.754 355.91 774.969 349.86 774.969 343.095C774.969 335.78 768.754 331.765 761.659 331.765C756.544 331.765 751.374 333.745 748.129 337.65L751.869 341.885C754.179 339.245 757.479 337.485 761.769 337.485C765.124 337.485 768.424 339.245 768.424 343.095C768.424 348.375 762.869 353.16 748.624 363.94V369H775.189Z" fill="white"/>
<path d="M470.06 301V274H423.8C456.02 253.12 469.16 237.46 469.16 219.1C469.16 194.98 448.82 179.14 420.56 179.14C403.82 179.14 384.74 185.08 371.96 199.12L389.06 219.64C397.7 211.54 407.78 206.5 420.56 206.5C429.92 206.5 437.66 210.82 437.66 219.1C437.66 230.98 427.94 239.26 375.92 276.88V301H470.06ZM482.016 241.06C482.016 272.74 498.396 303.16 533.496 303.16C568.596 303.16 584.976 272.74 584.976 241.06C584.976 209.38 568.596 179.14 533.496 179.14C498.396 179.14 482.016 209.38 482.016 241.06ZM553.656 241.06C553.656 262.3 547.896 275.8 533.496 275.8C519.096 275.8 513.336 262.3 513.336 241.06C513.336 219.82 519.096 206.5 533.496 206.5C547.896 206.5 553.656 219.82 553.656 241.06ZM691.72 301V274H645.46C677.68 253.12 690.82 237.46 690.82 219.1C690.82 194.98 670.48 179.14 642.22 179.14C625.48 179.14 606.4 185.08 593.62 199.12L610.72 219.64C619.36 211.54 629.44 206.5 642.22 206.5C651.58 206.5 659.32 210.82 659.32 219.1C659.32 230.98 649.6 239.26 597.58 276.88V301H691.72ZM801.056 301V274H754.796C787.016 253.12 800.156 237.46 800.156 219.1C800.156 194.98 779.816 179.14 751.556 179.14C734.816 179.14 715.736 185.08 702.956 199.12L720.056 219.64C728.696 211.54 738.776 206.5 751.556 206.5C760.916 206.5 768.656 210.82 768.656 219.1C768.656 230.98 758.936 239.26 706.916 276.88V301H801.056Z" fill="url(#paint2_linear_80110031)"/>
<defs>
<linearGradient id="paint0_linear_80110031" x1="312.395" y1="207.863" x2="86.8339" y2="313.044" gradientUnits="userSpaceOnUse">
<stop stop-color="#FDCD50"/>
<stop offset="0.5" stop-color="#F37588"/>
<stop offset="1" stop-color="#BF6D9D"/>
</linearGradient>
<linearGradient id="paint1_linear_80110031" x1="101.546" y1="94.7512" x2="296.081" y2="257.985" gradientUnits="userSpaceOnUse">
<stop stop-color="#F7D255"/>
<stop offset="1" stop-color="#DB722C"/>
</linearGradient>
<linearGradient id="paint2_linear_80110031" x1="809" y1="296.6" x2="368" y2="296.6" gradientUnits="userSpaceOnUse">
<stop stop-color="#FDCD50"/>
<stop offset="0.5" stop-color="#F37588"/>
<stop offset="1" stop-color="#BF6D9D"/>
</linearGradient>
</defs>
</svg>
